G04 MADE WITH FRITZING*
G04 WWW.FRITZING.ORG*
G04 DOUBLE SIDED*
G04 HOLES PLATED*
G04 CONTOUR ON CENTER OF CONTOUR VECTOR*
%ASAXBY*%
%FSLAX23Y23*%
%MOIN*%
%OFA0B0*%
%SFA1.0B1.0*%
%ADD10C,0.010000*%
%ADD11C,0.010417*%
%ADD12C,0.005000*%
%ADD13R,0.001000X0.001000*%
%LNSILK1*%
G90*
G70*
G54D10*
X350Y527D02*
X350Y449D01*
D02*
X153Y606D02*
X320Y606D01*
D02*
X153Y370D02*
X320Y370D01*
D02*
X113Y527D02*
X113Y449D01*
D02*
X231Y508D02*
X231Y468D01*
D02*
X251Y488D02*
X212Y488D01*
G54D11*
D02*
X799Y122D02*
X1209Y122D01*
D02*
X1209Y122D02*
X1209Y517D01*
D02*
X1209Y517D02*
X799Y517D01*
D02*
X799Y517D02*
X799Y122D01*
D02*
X1209Y375D02*
X799Y375D01*
G54D10*
D02*
X1454Y527D02*
X1454Y1227D01*
D02*
X1454Y1227D02*
X1354Y1227D01*
D02*
X1354Y1227D02*
X1354Y527D01*
D02*
X1354Y527D02*
X1454Y527D01*
D02*
X1754Y927D02*
X1754Y1227D01*
D02*
X1754Y1227D02*
X1654Y1227D01*
D02*
X1654Y1227D02*
X1654Y927D01*
D02*
X1654Y927D02*
X1754Y927D01*
D02*
X254Y827D02*
X254Y1127D01*
D02*
X254Y1127D02*
X154Y1127D01*
D02*
X154Y1127D02*
X154Y827D01*
D02*
X154Y827D02*
X254Y827D01*
G54D12*
D02*
X254Y862D02*
X219Y827D01*
G54D10*
D02*
X854Y527D02*
X854Y1227D01*
D02*
X854Y1227D02*
X754Y1227D01*
D02*
X754Y1227D02*
X754Y527D01*
D02*
X754Y527D02*
X854Y527D01*
D02*
X1354Y527D02*
X1354Y1227D01*
D02*
X1354Y1227D02*
X1254Y1227D01*
D02*
X1254Y1227D02*
X1254Y527D01*
D02*
X1254Y527D02*
X1354Y527D01*
D02*
X554Y827D02*
X554Y1127D01*
D02*
X554Y1127D02*
X454Y1127D01*
D02*
X454Y1127D02*
X454Y827D01*
D02*
X454Y827D02*
X554Y827D01*
G54D12*
D02*
X554Y862D02*
X519Y827D01*
G54D10*
D02*
X1754Y527D02*
X1754Y827D01*
D02*
X1754Y827D02*
X1654Y827D01*
D02*
X1654Y827D02*
X1654Y527D01*
D02*
X1654Y527D02*
X1754Y527D01*
G54D13*
X1Y1479D02*
X1811Y1479D01*
X1Y1478D02*
X1811Y1478D01*
X1Y1477D02*
X1811Y1477D01*
X1Y1476D02*
X1811Y1476D01*
X1Y1475D02*
X1811Y1475D01*
X1Y1474D02*
X1811Y1474D01*
X1Y1473D02*
X1811Y1473D01*
X1Y1472D02*
X1811Y1472D01*
X1Y1471D02*
X8Y1471D01*
X1804Y1471D02*
X1811Y1471D01*
X1Y1470D02*
X8Y1470D01*
X1804Y1470D02*
X1811Y1470D01*
X1Y1469D02*
X8Y1469D01*
X1804Y1469D02*
X1811Y1469D01*
X1Y1468D02*
X8Y1468D01*
X1804Y1468D02*
X1811Y1468D01*
X1Y1467D02*
X8Y1467D01*
X1804Y1467D02*
X1811Y1467D01*
X1Y1466D02*
X8Y1466D01*
X1804Y1466D02*
X1811Y1466D01*
X1Y1465D02*
X8Y1465D01*
X1804Y1465D02*
X1811Y1465D01*
X1Y1464D02*
X8Y1464D01*
X1804Y1464D02*
X1811Y1464D01*
X1Y1463D02*
X8Y1463D01*
X1804Y1463D02*
X1811Y1463D01*
X1Y1462D02*
X8Y1462D01*
X1804Y1462D02*
X1811Y1462D01*
X1Y1461D02*
X8Y1461D01*
X1804Y1461D02*
X1811Y1461D01*
X1Y1460D02*
X8Y1460D01*
X1804Y1460D02*
X1811Y1460D01*
X1Y1459D02*
X8Y1459D01*
X1804Y1459D02*
X1811Y1459D01*
X1Y1458D02*
X8Y1458D01*
X1804Y1458D02*
X1811Y1458D01*
X1Y1457D02*
X8Y1457D01*
X1804Y1457D02*
X1811Y1457D01*
X1Y1456D02*
X8Y1456D01*
X1804Y1456D02*
X1811Y1456D01*
X1Y1455D02*
X8Y1455D01*
X1804Y1455D02*
X1811Y1455D01*
X1Y1454D02*
X8Y1454D01*
X1804Y1454D02*
X1811Y1454D01*
X1Y1453D02*
X8Y1453D01*
X1804Y1453D02*
X1811Y1453D01*
X1Y1452D02*
X8Y1452D01*
X1804Y1452D02*
X1811Y1452D01*
X1Y1451D02*
X8Y1451D01*
X1804Y1451D02*
X1811Y1451D01*
X1Y1450D02*
X8Y1450D01*
X1804Y1450D02*
X1811Y1450D01*
X1Y1449D02*
X8Y1449D01*
X1804Y1449D02*
X1811Y1449D01*
X1Y1448D02*
X8Y1448D01*
X1804Y1448D02*
X1811Y1448D01*
X1Y1447D02*
X8Y1447D01*
X1804Y1447D02*
X1811Y1447D01*
X1Y1446D02*
X8Y1446D01*
X1804Y1446D02*
X1811Y1446D01*
X1Y1445D02*
X8Y1445D01*
X1804Y1445D02*
X1811Y1445D01*
X1Y1444D02*
X8Y1444D01*
X1804Y1444D02*
X1811Y1444D01*
X1Y1443D02*
X8Y1443D01*
X1804Y1443D02*
X1811Y1443D01*
X1Y1442D02*
X8Y1442D01*
X1804Y1442D02*
X1811Y1442D01*
X1Y1441D02*
X8Y1441D01*
X1804Y1441D02*
X1811Y1441D01*
X1Y1440D02*
X8Y1440D01*
X1804Y1440D02*
X1811Y1440D01*
X1Y1439D02*
X8Y1439D01*
X1804Y1439D02*
X1811Y1439D01*
X1Y1438D02*
X8Y1438D01*
X1804Y1438D02*
X1811Y1438D01*
X1Y1437D02*
X8Y1437D01*
X1804Y1437D02*
X1811Y1437D01*
X1Y1436D02*
X8Y1436D01*
X1804Y1436D02*
X1811Y1436D01*
X1Y1435D02*
X8Y1435D01*
X1804Y1435D02*
X1811Y1435D01*
X1Y1434D02*
X8Y1434D01*
X1804Y1434D02*
X1811Y1434D01*
X1Y1433D02*
X8Y1433D01*
X1804Y1433D02*
X1811Y1433D01*
X1Y1432D02*
X8Y1432D01*
X1804Y1432D02*
X1811Y1432D01*
X1Y1431D02*
X8Y1431D01*
X1804Y1431D02*
X1811Y1431D01*
X1Y1430D02*
X8Y1430D01*
X1804Y1430D02*
X1811Y1430D01*
X1Y1429D02*
X8Y1429D01*
X1804Y1429D02*
X1811Y1429D01*
X1Y1428D02*
X8Y1428D01*
X1804Y1428D02*
X1811Y1428D01*
X1Y1427D02*
X8Y1427D01*
X1804Y1427D02*
X1811Y1427D01*
X1Y1426D02*
X8Y1426D01*
X1804Y1426D02*
X1811Y1426D01*
X1Y1425D02*
X8Y1425D01*
X1804Y1425D02*
X1811Y1425D01*
X1Y1424D02*
X8Y1424D01*
X1804Y1424D02*
X1811Y1424D01*
X1Y1423D02*
X8Y1423D01*
X1804Y1423D02*
X1811Y1423D01*
X1Y1422D02*
X8Y1422D01*
X1804Y1422D02*
X1811Y1422D01*
X1Y1421D02*
X8Y1421D01*
X1804Y1421D02*
X1811Y1421D01*
X1Y1420D02*
X8Y1420D01*
X1804Y1420D02*
X1811Y1420D01*
X1Y1419D02*
X8Y1419D01*
X1804Y1419D02*
X1811Y1419D01*
X1Y1418D02*
X8Y1418D01*
X1804Y1418D02*
X1811Y1418D01*
X1Y1417D02*
X8Y1417D01*
X1804Y1417D02*
X1811Y1417D01*
X1Y1416D02*
X8Y1416D01*
X1804Y1416D02*
X1811Y1416D01*
X1Y1415D02*
X8Y1415D01*
X1804Y1415D02*
X1811Y1415D01*
X1Y1414D02*
X8Y1414D01*
X1804Y1414D02*
X1811Y1414D01*
X1Y1413D02*
X8Y1413D01*
X1804Y1413D02*
X1811Y1413D01*
X1Y1412D02*
X8Y1412D01*
X1804Y1412D02*
X1811Y1412D01*
X1Y1411D02*
X8Y1411D01*
X1804Y1411D02*
X1811Y1411D01*
X1Y1410D02*
X8Y1410D01*
X1804Y1410D02*
X1811Y1410D01*
X1Y1409D02*
X8Y1409D01*
X1804Y1409D02*
X1811Y1409D01*
X1Y1408D02*
X8Y1408D01*
X1804Y1408D02*
X1811Y1408D01*
X1Y1407D02*
X8Y1407D01*
X1804Y1407D02*
X1811Y1407D01*
X1Y1406D02*
X8Y1406D01*
X1804Y1406D02*
X1811Y1406D01*
X1Y1405D02*
X8Y1405D01*
X1804Y1405D02*
X1811Y1405D01*
X1Y1404D02*
X8Y1404D01*
X1804Y1404D02*
X1811Y1404D01*
X1Y1403D02*
X8Y1403D01*
X1804Y1403D02*
X1811Y1403D01*
X1Y1402D02*
X8Y1402D01*
X1804Y1402D02*
X1811Y1402D01*
X1Y1401D02*
X8Y1401D01*
X1804Y1401D02*
X1811Y1401D01*
X1Y1400D02*
X8Y1400D01*
X1804Y1400D02*
X1811Y1400D01*
X1Y1399D02*
X8Y1399D01*
X1804Y1399D02*
X1811Y1399D01*
X1Y1398D02*
X8Y1398D01*
X1804Y1398D02*
X1811Y1398D01*
X1Y1397D02*
X8Y1397D01*
X1804Y1397D02*
X1811Y1397D01*
X1Y1396D02*
X8Y1396D01*
X1804Y1396D02*
X1811Y1396D01*
X1Y1395D02*
X8Y1395D01*
X1804Y1395D02*
X1811Y1395D01*
X1Y1394D02*
X8Y1394D01*
X1804Y1394D02*
X1811Y1394D01*
X1Y1393D02*
X8Y1393D01*
X1804Y1393D02*
X1811Y1393D01*
X1Y1392D02*
X8Y1392D01*
X1804Y1392D02*
X1811Y1392D01*
X1Y1391D02*
X8Y1391D01*
X1804Y1391D02*
X1811Y1391D01*
X1Y1390D02*
X8Y1390D01*
X1804Y1390D02*
X1811Y1390D01*
X1Y1389D02*
X8Y1389D01*
X1804Y1389D02*
X1811Y1389D01*
X1Y1388D02*
X8Y1388D01*
X1804Y1388D02*
X1811Y1388D01*
X1Y1387D02*
X8Y1387D01*
X1804Y1387D02*
X1811Y1387D01*
X1Y1386D02*
X8Y1386D01*
X1804Y1386D02*
X1811Y1386D01*
X1Y1385D02*
X8Y1385D01*
X1804Y1385D02*
X1811Y1385D01*
X1Y1384D02*
X8Y1384D01*
X1804Y1384D02*
X1811Y1384D01*
X1Y1383D02*
X8Y1383D01*
X1804Y1383D02*
X1811Y1383D01*
X1Y1382D02*
X8Y1382D01*
X1804Y1382D02*
X1811Y1382D01*
X1Y1381D02*
X8Y1381D01*
X1804Y1381D02*
X1811Y1381D01*
X1Y1380D02*
X8Y1380D01*
X1804Y1380D02*
X1811Y1380D01*
X1Y1379D02*
X8Y1379D01*
X1804Y1379D02*
X1811Y1379D01*
X1Y1378D02*
X8Y1378D01*
X1804Y1378D02*
X1811Y1378D01*
X1Y1377D02*
X8Y1377D01*
X1804Y1377D02*
X1811Y1377D01*
X1Y1376D02*
X8Y1376D01*
X1804Y1376D02*
X1811Y1376D01*
X1Y1375D02*
X8Y1375D01*
X1804Y1375D02*
X1811Y1375D01*
X1Y1374D02*
X8Y1374D01*
X1804Y1374D02*
X1811Y1374D01*
X1Y1373D02*
X8Y1373D01*
X1804Y1373D02*
X1811Y1373D01*
X1Y1372D02*
X8Y1372D01*
X1804Y1372D02*
X1811Y1372D01*
X1Y1371D02*
X8Y1371D01*
X1804Y1371D02*
X1811Y1371D01*
X1Y1370D02*
X8Y1370D01*
X1804Y1370D02*
X1811Y1370D01*
X1Y1369D02*
X8Y1369D01*
X1804Y1369D02*
X1811Y1369D01*
X1Y1368D02*
X8Y1368D01*
X1804Y1368D02*
X1811Y1368D01*
X1Y1367D02*
X8Y1367D01*
X1804Y1367D02*
X1811Y1367D01*
X1Y1366D02*
X8Y1366D01*
X1804Y1366D02*
X1811Y1366D01*
X1Y1365D02*
X8Y1365D01*
X1804Y1365D02*
X1811Y1365D01*
X1Y1364D02*
X8Y1364D01*
X1804Y1364D02*
X1811Y1364D01*
X1Y1363D02*
X8Y1363D01*
X1804Y1363D02*
X1811Y1363D01*
X1Y1362D02*
X8Y1362D01*
X1804Y1362D02*
X1811Y1362D01*
X1Y1361D02*
X8Y1361D01*
X1804Y1361D02*
X1811Y1361D01*
X1Y1360D02*
X8Y1360D01*
X1804Y1360D02*
X1811Y1360D01*
X1Y1359D02*
X8Y1359D01*
X1804Y1359D02*
X1811Y1359D01*
X1Y1358D02*
X8Y1358D01*
X1804Y1358D02*
X1811Y1358D01*
X1Y1357D02*
X8Y1357D01*
X1804Y1357D02*
X1811Y1357D01*
X1Y1356D02*
X8Y1356D01*
X1804Y1356D02*
X1811Y1356D01*
X1Y1355D02*
X8Y1355D01*
X1804Y1355D02*
X1811Y1355D01*
X1Y1354D02*
X8Y1354D01*
X1804Y1354D02*
X1811Y1354D01*
X1Y1353D02*
X8Y1353D01*
X1804Y1353D02*
X1811Y1353D01*
X1Y1352D02*
X8Y1352D01*
X1804Y1352D02*
X1811Y1352D01*
X1Y1351D02*
X8Y1351D01*
X1804Y1351D02*
X1811Y1351D01*
X1Y1350D02*
X8Y1350D01*
X1804Y1350D02*
X1811Y1350D01*
X1Y1349D02*
X8Y1349D01*
X1804Y1349D02*
X1811Y1349D01*
X1Y1348D02*
X8Y1348D01*
X1804Y1348D02*
X1811Y1348D01*
X1Y1347D02*
X8Y1347D01*
X1804Y1347D02*
X1811Y1347D01*
X1Y1346D02*
X8Y1346D01*
X1804Y1346D02*
X1811Y1346D01*
X1Y1345D02*
X8Y1345D01*
X1804Y1345D02*
X1811Y1345D01*
X1Y1344D02*
X8Y1344D01*
X1804Y1344D02*
X1811Y1344D01*
X1Y1343D02*
X8Y1343D01*
X1804Y1343D02*
X1811Y1343D01*
X1Y1342D02*
X8Y1342D01*
X1804Y1342D02*
X1811Y1342D01*
X1Y1341D02*
X8Y1341D01*
X1804Y1341D02*
X1811Y1341D01*
X1Y1340D02*
X8Y1340D01*
X1804Y1340D02*
X1811Y1340D01*
X1Y1339D02*
X8Y1339D01*
X1804Y1339D02*
X1811Y1339D01*
X1Y1338D02*
X8Y1338D01*
X1804Y1338D02*
X1811Y1338D01*
X1Y1337D02*
X8Y1337D01*
X1804Y1337D02*
X1811Y1337D01*
X1Y1336D02*
X8Y1336D01*
X1804Y1336D02*
X1811Y1336D01*
X1Y1335D02*
X8Y1335D01*
X1804Y1335D02*
X1811Y1335D01*
X1Y1334D02*
X8Y1334D01*
X1804Y1334D02*
X1811Y1334D01*
X1Y1333D02*
X8Y1333D01*
X1804Y1333D02*
X1811Y1333D01*
X1Y1332D02*
X8Y1332D01*
X1804Y1332D02*
X1811Y1332D01*
X1Y1331D02*
X8Y1331D01*
X1804Y1331D02*
X1811Y1331D01*
X1Y1330D02*
X8Y1330D01*
X1804Y1330D02*
X1811Y1330D01*
X1Y1329D02*
X8Y1329D01*
X944Y1329D02*
X951Y1329D01*
X1804Y1329D02*
X1811Y1329D01*
X1Y1328D02*
X8Y1328D01*
X943Y1328D02*
X952Y1328D01*
X1804Y1328D02*
X1811Y1328D01*
X1Y1327D02*
X8Y1327D01*
X943Y1327D02*
X952Y1327D01*
X1804Y1327D02*
X1811Y1327D01*
X1Y1326D02*
X8Y1326D01*
X942Y1326D02*
X952Y1326D01*
X1804Y1326D02*
X1811Y1326D01*
X1Y1325D02*
X8Y1325D01*
X942Y1325D02*
X952Y1325D01*
X1804Y1325D02*
X1811Y1325D01*
X1Y1324D02*
X8Y1324D01*
X942Y1324D02*
X952Y1324D01*
X1804Y1324D02*
X1811Y1324D01*
X1Y1323D02*
X8Y1323D01*
X943Y1323D02*
X952Y1323D01*
X1804Y1323D02*
X1811Y1323D01*
X1Y1322D02*
X8Y1322D01*
X943Y1322D02*
X952Y1322D01*
X1804Y1322D02*
X1811Y1322D01*
X1Y1321D02*
X8Y1321D01*
X944Y1321D02*
X951Y1321D01*
X1760Y1321D02*
X1762Y1321D01*
X1804Y1321D02*
X1811Y1321D01*
X1Y1320D02*
X8Y1320D01*
X946Y1320D02*
X948Y1320D01*
X1759Y1320D02*
X1763Y1320D01*
X1804Y1320D02*
X1811Y1320D01*
X1Y1319D02*
X8Y1319D01*
X1758Y1319D02*
X1764Y1319D01*
X1804Y1319D02*
X1811Y1319D01*
X1Y1318D02*
X8Y1318D01*
X1758Y1318D02*
X1764Y1318D01*
X1804Y1318D02*
X1811Y1318D01*
X1Y1317D02*
X8Y1317D01*
X1758Y1317D02*
X1764Y1317D01*
X1804Y1317D02*
X1811Y1317D01*
X1Y1316D02*
X8Y1316D01*
X1758Y1316D02*
X1764Y1316D01*
X1804Y1316D02*
X1811Y1316D01*
X1Y1315D02*
X8Y1315D01*
X1758Y1315D02*
X1764Y1315D01*
X1804Y1315D02*
X1811Y1315D01*
X1Y1314D02*
X8Y1314D01*
X1758Y1314D02*
X1764Y1314D01*
X1804Y1314D02*
X1811Y1314D01*
X1Y1313D02*
X8Y1313D01*
X1249Y1313D02*
X1256Y1313D01*
X1758Y1313D02*
X1764Y1313D01*
X1804Y1313D02*
X1811Y1313D01*
X1Y1312D02*
X8Y1312D01*
X885Y1312D02*
X886Y1312D01*
X911Y1312D02*
X913Y1312D01*
X938Y1312D02*
X950Y1312D01*
X991Y1312D02*
X1007Y1312D01*
X1043Y1312D02*
X1056Y1312D01*
X1248Y1312D02*
X1257Y1312D01*
X1758Y1312D02*
X1764Y1312D01*
X1804Y1312D02*
X1811Y1312D01*
X1Y1311D02*
X8Y1311D01*
X884Y1311D02*
X888Y1311D01*
X910Y1311D02*
X914Y1311D01*
X936Y1311D02*
X951Y1311D01*
X990Y1311D02*
X1010Y1311D01*
X1040Y1311D02*
X1058Y1311D01*
X1248Y1311D02*
X1257Y1311D01*
X1758Y1311D02*
X1764Y1311D01*
X1804Y1311D02*
X1811Y1311D01*
X1Y1310D02*
X8Y1310D01*
X883Y1310D02*
X889Y1310D01*
X909Y1310D02*
X914Y1310D01*
X936Y1310D02*
X952Y1310D01*
X989Y1310D02*
X1011Y1310D01*
X1039Y1310D02*
X1060Y1310D01*
X1248Y1310D02*
X1257Y1310D01*
X1758Y1310D02*
X1764Y1310D01*
X1804Y1310D02*
X1811Y1310D01*
X1Y1309D02*
X8Y1309D01*
X883Y1309D02*
X890Y1309D01*
X908Y1309D02*
X915Y1309D01*
X936Y1309D02*
X952Y1309D01*
X989Y1309D02*
X1012Y1309D01*
X1038Y1309D02*
X1061Y1309D01*
X1248Y1309D02*
X1257Y1309D01*
X1758Y1309D02*
X1764Y1309D01*
X1804Y1309D02*
X1811Y1309D01*
X1Y1308D02*
X8Y1308D01*
X883Y1308D02*
X890Y1308D01*
X907Y1308D02*
X915Y1308D01*
X936Y1308D02*
X952Y1308D01*
X989Y1308D02*
X1013Y1308D01*
X1037Y1308D02*
X1062Y1308D01*
X1248Y1308D02*
X1257Y1308D01*
X1758Y1308D02*
X1764Y1308D01*
X1804Y1308D02*
X1811Y1308D01*
X1Y1307D02*
X8Y1307D01*
X883Y1307D02*
X891Y1307D01*
X906Y1307D02*
X914Y1307D01*
X936Y1307D02*
X952Y1307D01*
X990Y1307D02*
X1014Y1307D01*
X1036Y1307D02*
X1063Y1307D01*
X1248Y1307D02*
X1257Y1307D01*
X1758Y1307D02*
X1764Y1307D01*
X1804Y1307D02*
X1811Y1307D01*
X1Y1306D02*
X8Y1306D01*
X884Y1306D02*
X892Y1306D01*
X905Y1306D02*
X913Y1306D01*
X937Y1306D02*
X952Y1306D01*
X991Y1306D02*
X1014Y1306D01*
X1035Y1306D02*
X1064Y1306D01*
X1248Y1306D02*
X1257Y1306D01*
X1640Y1306D02*
X1651Y1306D01*
X1659Y1306D02*
X1662Y1306D01*
X1682Y1306D02*
X1685Y1306D01*
X1696Y1306D02*
X1706Y1306D01*
X1740Y1306D02*
X1751Y1306D01*
X1758Y1306D02*
X1764Y1306D01*
X1804Y1306D02*
X1811Y1306D01*
X1Y1305D02*
X8Y1305D01*
X885Y1305D02*
X893Y1305D01*
X905Y1305D02*
X913Y1305D01*
X946Y1305D02*
X952Y1305D01*
X1007Y1305D02*
X1015Y1305D01*
X1034Y1305D02*
X1043Y1305D01*
X1055Y1305D02*
X1065Y1305D01*
X1249Y1305D02*
X1256Y1305D01*
X1638Y1305D02*
X1653Y1305D01*
X1658Y1305D02*
X1663Y1305D01*
X1681Y1305D02*
X1686Y1305D01*
X1694Y1305D02*
X1708Y1305D01*
X1738Y1305D02*
X1753Y1305D01*
X1758Y1305D02*
X1764Y1305D01*
X1804Y1305D02*
X1811Y1305D01*
X1Y1304D02*
X8Y1304D01*
X886Y1304D02*
X894Y1304D01*
X904Y1304D02*
X912Y1304D01*
X946Y1304D02*
X952Y1304D01*
X1008Y1304D02*
X1015Y1304D01*
X1034Y1304D02*
X1042Y1304D01*
X1057Y1304D02*
X1065Y1304D01*
X1250Y1304D02*
X1255Y1304D01*
X1636Y1304D02*
X1654Y1304D01*
X1658Y1304D02*
X1664Y1304D01*
X1681Y1304D02*
X1686Y1304D01*
X1693Y1304D02*
X1710Y1304D01*
X1737Y1304D02*
X1755Y1304D01*
X1758Y1304D02*
X1764Y1304D01*
X1804Y1304D02*
X1811Y1304D01*
X1Y1303D02*
X8Y1303D01*
X886Y1303D02*
X895Y1303D01*
X903Y1303D02*
X911Y1303D01*
X946Y1303D02*
X952Y1303D01*
X1009Y1303D02*
X1015Y1303D01*
X1033Y1303D02*
X1040Y1303D01*
X1058Y1303D02*
X1066Y1303D01*
X1635Y1303D02*
X1655Y1303D01*
X1658Y1303D02*
X1664Y1303D01*
X1680Y1303D02*
X1686Y1303D01*
X1691Y1303D02*
X1710Y1303D01*
X1735Y1303D02*
X1756Y1303D01*
X1758Y1303D02*
X1764Y1303D01*
X1804Y1303D02*
X1811Y1303D01*
X1Y1302D02*
X8Y1302D01*
X887Y1302D02*
X895Y1302D01*
X902Y1302D02*
X910Y1302D01*
X946Y1302D02*
X952Y1302D01*
X1009Y1302D02*
X1015Y1302D01*
X1033Y1302D02*
X1039Y1302D01*
X1059Y1302D02*
X1066Y1302D01*
X1634Y1302D02*
X1664Y1302D01*
X1680Y1302D02*
X1686Y1302D01*
X1689Y1302D02*
X1711Y1302D01*
X1734Y1302D02*
X1764Y1302D01*
X1804Y1302D02*
X1811Y1302D01*
X1Y1301D02*
X8Y1301D01*
X888Y1301D02*
X896Y1301D01*
X901Y1301D02*
X909Y1301D01*
X946Y1301D02*
X952Y1301D01*
X1009Y1301D02*
X1015Y1301D01*
X1033Y1301D02*
X1039Y1301D01*
X1060Y1301D02*
X1066Y1301D01*
X1633Y1301D02*
X1664Y1301D01*
X1680Y1301D02*
X1712Y1301D01*
X1733Y1301D02*
X1764Y1301D01*
X1804Y1301D02*
X1811Y1301D01*
X1Y1300D02*
X8Y1300D01*
X889Y1300D02*
X897Y1300D01*
X900Y1300D02*
X909Y1300D01*
X946Y1300D02*
X952Y1300D01*
X1009Y1300D02*
X1015Y1300D01*
X1033Y1300D02*
X1039Y1300D01*
X1060Y1300D02*
X1066Y1300D01*
X1632Y1300D02*
X1664Y1300D01*
X1680Y1300D02*
X1712Y1300D01*
X1733Y1300D02*
X1764Y1300D01*
X1804Y1300D02*
X1811Y1300D01*
X1Y1299D02*
X8Y1299D01*
X890Y1299D02*
X898Y1299D01*
X900Y1299D02*
X908Y1299D01*
X946Y1299D02*
X952Y1299D01*
X1009Y1299D02*
X1015Y1299D01*
X1033Y1299D02*
X1039Y1299D01*
X1060Y1299D02*
X1066Y1299D01*
X1631Y1299D02*
X1640Y1299D01*
X1650Y1299D02*
X1664Y1299D01*
X1680Y1299D02*
X1697Y1299D01*
X1705Y1299D02*
X1713Y1299D01*
X1732Y1299D02*
X1741Y1299D01*
X1751Y1299D02*
X1764Y1299D01*
X1804Y1299D02*
X1811Y1299D01*
X1Y1298D02*
X8Y1298D01*
X891Y1298D02*
X907Y1298D01*
X946Y1298D02*
X952Y1298D01*
X1009Y1298D02*
X1015Y1298D01*
X1033Y1298D02*
X1039Y1298D01*
X1060Y1298D02*
X1066Y1298D01*
X1631Y1298D02*
X1639Y1298D01*
X1651Y1298D02*
X1664Y1298D01*
X1680Y1298D02*
X1695Y1298D01*
X1706Y1298D02*
X1713Y1298D01*
X1731Y1298D02*
X1739Y1298D01*
X1752Y1298D02*
X1764Y1298D01*
X1804Y1298D02*
X1811Y1298D01*
X1Y1297D02*
X8Y1297D01*
X891Y1297D02*
X906Y1297D01*
X946Y1297D02*
X952Y1297D01*
X989Y1297D02*
X1015Y1297D01*
X1033Y1297D02*
X1039Y1297D01*
X1060Y1297D02*
X1066Y1297D01*
X1631Y1297D02*
X1638Y1297D01*
X1653Y1297D02*
X1664Y1297D01*
X1680Y1297D02*
X1694Y1297D01*
X1707Y1297D02*
X1713Y1297D01*
X1731Y1297D02*
X1738Y1297D01*
X1753Y1297D02*
X1764Y1297D01*
X1804Y1297D02*
X1811Y1297D01*
X1Y1296D02*
X8Y1296D01*
X892Y1296D02*
X905Y1296D01*
X946Y1296D02*
X952Y1296D01*
X987Y1296D02*
X1015Y1296D01*
X1033Y1296D02*
X1039Y1296D01*
X1060Y1296D02*
X1066Y1296D01*
X1191Y1296D02*
X1191Y1296D01*
X1217Y1296D02*
X1217Y1296D01*
X1244Y1296D02*
X1254Y1296D01*
X1298Y1296D02*
X1311Y1296D01*
X1350Y1296D02*
X1360Y1296D01*
X1630Y1296D02*
X1637Y1296D01*
X1654Y1296D02*
X1664Y1296D01*
X1680Y1296D02*
X1692Y1296D01*
X1707Y1296D02*
X1713Y1296D01*
X1731Y1296D02*
X1737Y1296D01*
X1754Y1296D02*
X1764Y1296D01*
X1804Y1296D02*
X1811Y1296D01*
X1Y1295D02*
X8Y1295D01*
X893Y1295D02*
X904Y1295D01*
X946Y1295D02*
X952Y1295D01*
X986Y1295D02*
X1015Y1295D01*
X1033Y1295D02*
X1039Y1295D01*
X1060Y1295D02*
X1066Y1295D01*
X1189Y1295D02*
X1193Y1295D01*
X1215Y1295D02*
X1219Y1295D01*
X1242Y1295D02*
X1256Y1295D01*
X1296Y1295D02*
X1315Y1295D01*
X1346Y1295D02*
X1363Y1295D01*
X1630Y1295D02*
X1636Y1295D01*
X1655Y1295D02*
X1664Y1295D01*
X1680Y1295D02*
X1691Y1295D01*
X1707Y1295D02*
X1713Y1295D01*
X1731Y1295D02*
X1737Y1295D01*
X1755Y1295D02*
X1764Y1295D01*
X1804Y1295D02*
X1811Y1295D01*
X1Y1294D02*
X8Y1294D01*
X894Y1294D02*
X904Y1294D01*
X946Y1294D02*
X952Y1294D01*
X985Y1294D02*
X1015Y1294D01*
X1033Y1294D02*
X1039Y1294D01*
X1060Y1294D02*
X1066Y1294D01*
X1188Y1294D02*
X1194Y1294D01*
X1214Y1294D02*
X1220Y1294D01*
X1241Y1294D02*
X1257Y1294D01*
X1295Y1294D02*
X1316Y1294D01*
X1345Y1294D02*
X1365Y1294D01*
X1630Y1294D02*
X1636Y1294D01*
X1656Y1294D02*
X1664Y1294D01*
X1680Y1294D02*
X1689Y1294D01*
X1707Y1294D02*
X1713Y1294D01*
X1731Y1294D02*
X1737Y1294D01*
X1756Y1294D02*
X1764Y1294D01*
X1804Y1294D02*
X1811Y1294D01*
X1Y1293D02*
X8Y1293D01*
X894Y1293D02*
X903Y1293D01*
X946Y1293D02*
X952Y1293D01*
X984Y1293D02*
X1015Y1293D01*
X1033Y1293D02*
X1039Y1293D01*
X1060Y1293D02*
X1066Y1293D01*
X1188Y1293D02*
X1195Y1293D01*
X1213Y1293D02*
X1220Y1293D01*
X1241Y1293D02*
X1257Y1293D01*
X1295Y1293D02*
X1317Y1293D01*
X1343Y1293D02*
X1366Y1293D01*
X1630Y1293D02*
X1636Y1293D01*
X1657Y1293D02*
X1664Y1293D01*
X1680Y1293D02*
X1687Y1293D01*
X1707Y1293D02*
X1713Y1293D01*
X1731Y1293D02*
X1737Y1293D01*
X1757Y1293D02*
X1764Y1293D01*
X1804Y1293D02*
X1811Y1293D01*
X1Y1292D02*
X8Y1292D01*
X894Y1292D02*
X904Y1292D01*
X946Y1292D02*
X952Y1292D01*
X984Y1292D02*
X1015Y1292D01*
X1033Y1292D02*
X1039Y1292D01*
X1060Y1292D02*
X1066Y1292D01*
X1188Y1292D02*
X1196Y1292D01*
X1213Y1292D02*
X1220Y1292D01*
X1241Y1292D02*
X1257Y1292D01*
X1295Y1292D02*
X1318Y1292D01*
X1342Y1292D02*
X1367Y1292D01*
X1630Y1292D02*
X1636Y1292D01*
X1658Y1292D02*
X1664Y1292D01*
X1680Y1292D02*
X1686Y1292D01*
X1707Y1292D02*
X1713Y1292D01*
X1731Y1292D02*
X1737Y1292D01*
X1758Y1292D02*
X1764Y1292D01*
X1804Y1292D02*
X1811Y1292D01*
X1Y1291D02*
X8Y1291D01*
X893Y1291D02*
X904Y1291D01*
X946Y1291D02*
X952Y1291D01*
X983Y1291D02*
X1015Y1291D01*
X1033Y1291D02*
X1039Y1291D01*
X1060Y1291D02*
X1066Y1291D01*
X1188Y1291D02*
X1196Y1291D01*
X1212Y1291D02*
X1220Y1291D01*
X1241Y1291D02*
X1257Y1291D01*
X1295Y1291D02*
X1319Y1291D01*
X1341Y1291D02*
X1368Y1291D01*
X1630Y1291D02*
X1636Y1291D01*
X1658Y1291D02*
X1664Y1291D01*
X1680Y1291D02*
X1686Y1291D01*
X1707Y1291D02*
X1713Y1291D01*
X1731Y1291D02*
X1737Y1291D01*
X1758Y1291D02*
X1764Y1291D01*
X1804Y1291D02*
X1811Y1291D01*
X1Y1290D02*
X8Y1290D01*
X892Y1290D02*
X905Y1290D01*
X946Y1290D02*
X952Y1290D01*
X983Y1290D02*
X990Y1290D01*
X1008Y1290D02*
X1015Y1290D01*
X1033Y1290D02*
X1039Y1290D01*
X1060Y1290D02*
X1066Y1290D01*
X1189Y1290D02*
X1197Y1290D01*
X1211Y1290D02*
X1219Y1290D01*
X1242Y1290D02*
X1257Y1290D01*
X1296Y1290D02*
X1319Y1290D01*
X1340Y1290D02*
X1369Y1290D01*
X1630Y1290D02*
X1636Y1290D01*
X1658Y1290D02*
X1664Y1290D01*
X1680Y1290D02*
X1686Y1290D01*
X1707Y1290D02*
X1713Y1290D01*
X1731Y1290D02*
X1737Y1290D01*
X1758Y1290D02*
X1764Y1290D01*
X1804Y1290D02*
X1811Y1290D01*
X1Y1289D02*
X8Y1289D01*
X891Y1289D02*
X906Y1289D01*
X946Y1289D02*
X952Y1289D01*
X983Y1289D02*
X989Y1289D01*
X1009Y1289D02*
X1015Y1289D01*
X1033Y1289D02*
X1039Y1289D01*
X1060Y1289D02*
X1066Y1289D01*
X1190Y1289D02*
X1198Y1289D01*
X1210Y1289D02*
X1218Y1289D01*
X1251Y1289D02*
X1257Y1289D01*
X1311Y1289D02*
X1320Y1289D01*
X1340Y1289D02*
X1349Y1289D01*
X1360Y1289D02*
X1370Y1289D01*
X1630Y1289D02*
X1636Y1289D01*
X1658Y1289D02*
X1664Y1289D01*
X1680Y1289D02*
X1686Y1289D01*
X1707Y1289D02*
X1713Y1289D01*
X1731Y1289D02*
X1737Y1289D01*
X1758Y1289D02*
X1764Y1289D01*
X1804Y1289D02*
X1811Y1289D01*
X1Y1288D02*
X8Y1288D01*
X890Y1288D02*
X907Y1288D01*
X946Y1288D02*
X952Y1288D01*
X982Y1288D02*
X989Y1288D01*
X1009Y1288D02*
X1015Y1288D01*
X1033Y1288D02*
X1039Y1288D01*
X1060Y1288D02*
X1066Y1288D01*
X1191Y1288D02*
X1199Y1288D01*
X1209Y1288D02*
X1217Y1288D01*
X1251Y1288D02*
X1257Y1288D01*
X1313Y1288D02*
X1320Y1288D01*
X1339Y1288D02*
X1347Y1288D01*
X1362Y1288D02*
X1370Y1288D01*
X1630Y1288D02*
X1636Y1288D01*
X1658Y1288D02*
X1664Y1288D01*
X1680Y1288D02*
X1686Y1288D01*
X1707Y1288D02*
X1713Y1288D01*
X1731Y1288D02*
X1737Y1288D01*
X1758Y1288D02*
X1764Y1288D01*
X1804Y1288D02*
X1811Y1288D01*
X1Y1287D02*
X8Y1287D01*
X890Y1287D02*
X898Y1287D01*
X900Y1287D02*
X908Y1287D01*
X946Y1287D02*
X952Y1287D01*
X982Y1287D02*
X988Y1287D01*
X1009Y1287D02*
X1016Y1287D01*
X1033Y1287D02*
X1039Y1287D01*
X1060Y1287D02*
X1066Y1287D01*
X1192Y1287D02*
X1200Y1287D01*
X1208Y1287D02*
X1217Y1287D01*
X1251Y1287D02*
X1257Y1287D01*
X1314Y1287D02*
X1320Y1287D01*
X1339Y1287D02*
X1346Y1287D01*
X1364Y1287D02*
X1371Y1287D01*
X1630Y1287D02*
X1636Y1287D01*
X1658Y1287D02*
X1664Y1287D01*
X1680Y1287D02*
X1686Y1287D01*
X1707Y1287D02*
X1713Y1287D01*
X1731Y1287D02*
X1737Y1287D01*
X1758Y1287D02*
X1764Y1287D01*
X1804Y1287D02*
X1811Y1287D01*
X1Y1286D02*
X8Y1286D01*
X889Y1286D02*
X897Y1286D01*
X900Y1286D02*
X909Y1286D01*
X946Y1286D02*
X952Y1286D01*
X982Y1286D02*
X988Y1286D01*
X1009Y1286D02*
X1016Y1286D01*
X1033Y1286D02*
X1039Y1286D01*
X1060Y1286D02*
X1066Y1286D01*
X1192Y1286D02*
X1201Y1286D01*
X1208Y1286D02*
X1216Y1286D01*
X1251Y1286D02*
X1257Y1286D01*
X1314Y1286D02*
X1320Y1286D01*
X1338Y1286D02*
X1345Y1286D01*
X1364Y1286D02*
X1371Y1286D01*
X1630Y1286D02*
X1636Y1286D01*
X1658Y1286D02*
X1664Y1286D01*
X1680Y1286D02*
X1686Y1286D01*
X1707Y1286D02*
X1713Y1286D01*
X1731Y1286D02*
X1737Y1286D01*
X1758Y1286D02*
X1764Y1286D01*
X1804Y1286D02*
X1811Y1286D01*
X1Y1285D02*
X8Y1285D01*
X888Y1285D02*
X896Y1285D01*
X901Y1285D02*
X909Y1285D01*
X946Y1285D02*
X952Y1285D01*
X982Y1285D02*
X988Y1285D01*
X1009Y1285D02*
X1016Y1285D01*
X1033Y1285D02*
X1039Y1285D01*
X1060Y1285D02*
X1066Y1285D01*
X1193Y1285D02*
X1201Y1285D01*
X1207Y1285D02*
X1215Y1285D01*
X1251Y1285D02*
X1257Y1285D01*
X1314Y1285D02*
X1320Y1285D01*
X1338Y1285D02*
X1344Y1285D01*
X1365Y1285D02*
X1371Y1285D01*
X1630Y1285D02*
X1636Y1285D01*
X1658Y1285D02*
X1664Y1285D01*
X1680Y1285D02*
X1686Y1285D01*
X1707Y1285D02*
X1713Y1285D01*
X1731Y1285D02*
X1737Y1285D01*
X1758Y1285D02*
X1764Y1285D01*
X1804Y1285D02*
X1811Y1285D01*
X1Y1284D02*
X8Y1284D01*
X887Y1284D02*
X895Y1284D01*
X902Y1284D02*
X910Y1284D01*
X946Y1284D02*
X952Y1284D01*
X982Y1284D02*
X988Y1284D01*
X1009Y1284D02*
X1016Y1284D01*
X1033Y1284D02*
X1039Y1284D01*
X1060Y1284D02*
X1066Y1284D01*
X1194Y1284D02*
X1202Y1284D01*
X1206Y1284D02*
X1214Y1284D01*
X1251Y1284D02*
X1257Y1284D01*
X1314Y1284D02*
X1320Y1284D01*
X1338Y1284D02*
X1344Y1284D01*
X1365Y1284D02*
X1371Y1284D01*
X1630Y1284D02*
X1636Y1284D01*
X1657Y1284D02*
X1664Y1284D01*
X1680Y1284D02*
X1686Y1284D01*
X1707Y1284D02*
X1713Y1284D01*
X1731Y1284D02*
X1737Y1284D01*
X1758Y1284D02*
X1764Y1284D01*
X1804Y1284D02*
X1811Y1284D01*
X1Y1283D02*
X8Y1283D01*
X886Y1283D02*
X895Y1283D01*
X903Y1283D02*
X911Y1283D01*
X946Y1283D02*
X952Y1283D01*
X982Y1283D02*
X988Y1283D01*
X1007Y1283D02*
X1016Y1283D01*
X1033Y1283D02*
X1040Y1283D01*
X1059Y1283D02*
X1066Y1283D01*
X1195Y1283D02*
X1203Y1283D01*
X1205Y1283D02*
X1213Y1283D01*
X1251Y1283D02*
X1257Y1283D01*
X1314Y1283D02*
X1320Y1283D01*
X1338Y1283D02*
X1344Y1283D01*
X1365Y1283D02*
X1371Y1283D01*
X1630Y1283D02*
X1636Y1283D01*
X1656Y1283D02*
X1664Y1283D01*
X1680Y1283D02*
X1686Y1283D01*
X1708Y1283D02*
X1714Y1283D01*
X1731Y1283D02*
X1737Y1283D01*
X1758Y1283D02*
X1764Y1283D01*
X1804Y1283D02*
X1811Y1283D01*
X1Y1282D02*
X8Y1282D01*
X885Y1282D02*
X894Y1282D01*
X904Y1282D02*
X912Y1282D01*
X946Y1282D02*
X952Y1282D01*
X982Y1282D02*
X989Y1282D01*
X1006Y1282D02*
X1016Y1282D01*
X1033Y1282D02*
X1041Y1282D01*
X1058Y1282D02*
X1065Y1282D01*
X1196Y1282D02*
X1212Y1282D01*
X1251Y1282D02*
X1257Y1282D01*
X1314Y1282D02*
X1321Y1282D01*
X1338Y1282D02*
X1344Y1282D01*
X1365Y1282D02*
X1371Y1282D01*
X1630Y1282D02*
X1636Y1282D01*
X1655Y1282D02*
X1664Y1282D01*
X1680Y1282D02*
X1686Y1282D01*
X1708Y1282D02*
X1714Y1282D01*
X1731Y1282D02*
X1737Y1282D01*
X1758Y1282D02*
X1764Y1282D01*
X1804Y1282D02*
X1811Y1282D01*
X1Y1281D02*
X8Y1281D01*
X885Y1281D02*
X893Y1281D01*
X905Y1281D02*
X913Y1281D01*
X946Y1281D02*
X952Y1281D01*
X983Y1281D02*
X989Y1281D01*
X1004Y1281D02*
X1016Y1281D01*
X1033Y1281D02*
X1042Y1281D01*
X1057Y1281D02*
X1065Y1281D01*
X1197Y1281D02*
X1212Y1281D01*
X1251Y1281D02*
X1257Y1281D01*
X1295Y1281D02*
X1321Y1281D01*
X1338Y1281D02*
X1344Y1281D01*
X1365Y1281D02*
X1371Y1281D01*
X1630Y1281D02*
X1637Y1281D01*
X1654Y1281D02*
X1664Y1281D01*
X1680Y1281D02*
X1686Y1281D01*
X1708Y1281D02*
X1714Y1281D01*
X1731Y1281D02*
X1737Y1281D01*
X1758Y1281D02*
X1764Y1281D01*
X1804Y1281D02*
X1811Y1281D01*
X1Y1280D02*
X8Y1280D01*
X884Y1280D02*
X892Y1280D01*
X905Y1280D02*
X914Y1280D01*
X946Y1280D02*
X952Y1280D01*
X983Y1280D02*
X991Y1280D01*
X1002Y1280D02*
X1016Y1280D01*
X1034Y1280D02*
X1044Y1280D01*
X1055Y1280D02*
X1064Y1280D01*
X1197Y1280D02*
X1211Y1280D01*
X1251Y1280D02*
X1257Y1280D01*
X1293Y1280D02*
X1321Y1280D01*
X1338Y1280D02*
X1344Y1280D01*
X1365Y1280D02*
X1371Y1280D01*
X1631Y1280D02*
X1637Y1280D01*
X1653Y1280D02*
X1664Y1280D01*
X1680Y1280D02*
X1686Y1280D01*
X1708Y1280D02*
X1714Y1280D01*
X1731Y1280D02*
X1737Y1280D01*
X1757Y1280D02*
X1764Y1280D01*
X1804Y1280D02*
X1811Y1280D01*
X1Y1279D02*
X8Y1279D01*
X883Y1279D02*
X891Y1279D01*
X906Y1279D02*
X914Y1279D01*
X937Y1279D02*
X961Y1279D01*
X983Y1279D02*
X1016Y1279D01*
X1035Y1279D02*
X1064Y1279D01*
X1198Y1279D02*
X1210Y1279D01*
X1251Y1279D02*
X1257Y1279D01*
X1292Y1279D02*
X1321Y1279D01*
X1338Y1279D02*
X1344Y1279D01*
X1365Y1279D02*
X1371Y1279D01*
X1631Y1279D02*
X1638Y1279D01*
X1652Y1279D02*
X1664Y1279D01*
X1680Y1279D02*
X1686Y1279D01*
X1708Y1279D02*
X1714Y1279D01*
X1731Y1279D02*
X1737Y1279D01*
X1756Y1279D02*
X1764Y1279D01*
X1804Y1279D02*
X1811Y1279D01*
X1Y1278D02*
X8Y1278D01*
X882Y1278D02*
X890Y1278D01*
X907Y1278D02*
X915Y1278D01*
X936Y1278D02*
X962Y1278D01*
X984Y1278D02*
X1016Y1278D01*
X1036Y1278D02*
X1063Y1278D01*
X1199Y1278D02*
X1209Y1278D01*
X1251Y1278D02*
X1257Y1278D01*
X1291Y1278D02*
X1321Y1278D01*
X1338Y1278D02*
X1344Y1278D01*
X1365Y1278D02*
X1371Y1278D01*
X1631Y1278D02*
X1640Y1278D01*
X1651Y1278D02*
X1664Y1278D01*
X1680Y1278D02*
X1686Y1278D01*
X1708Y1278D02*
X1714Y1278D01*
X1731Y1278D02*
X1737Y1278D01*
X1754Y1278D02*
X1764Y1278D01*
X1804Y1278D02*
X1811Y1278D01*
X1Y1277D02*
X8Y1277D01*
X882Y1277D02*
X890Y1277D01*
X908Y1277D02*
X915Y1277D01*
X936Y1277D02*
X962Y1277D01*
X984Y1277D02*
X1016Y1277D01*
X1037Y1277D02*
X1062Y1277D01*
X1200Y1277D02*
X1208Y1277D01*
X1251Y1277D02*
X1257Y1277D01*
X1290Y1277D02*
X1321Y1277D01*
X1338Y1277D02*
X1344Y1277D01*
X1365Y1277D02*
X1371Y1277D01*
X1632Y1277D02*
X1664Y1277D01*
X1680Y1277D02*
X1686Y1277D01*
X1708Y1277D02*
X1714Y1277D01*
X1731Y1277D02*
X1738Y1277D01*
X1753Y1277D02*
X1764Y1277D01*
X1804Y1277D02*
X1811Y1277D01*
X1Y1276D02*
X8Y1276D01*
X882Y1276D02*
X889Y1276D01*
X909Y1276D02*
X915Y1276D01*
X936Y1276D02*
X962Y1276D01*
X985Y1276D02*
X1008Y1276D01*
X1010Y1276D02*
X1016Y1276D01*
X1038Y1276D02*
X1061Y1276D01*
X1199Y1276D02*
X1209Y1276D01*
X1251Y1276D02*
X1257Y1276D01*
X1289Y1276D02*
X1321Y1276D01*
X1338Y1276D02*
X1344Y1276D01*
X1365Y1276D02*
X1371Y1276D01*
X1633Y1276D02*
X1664Y1276D01*
X1680Y1276D02*
X1686Y1276D01*
X1708Y1276D02*
X1714Y1276D01*
X1731Y1276D02*
X1739Y1276D01*
X1752Y1276D02*
X1764Y1276D01*
X1804Y1276D02*
X1811Y1276D01*
X1Y1275D02*
X8Y1275D01*
X882Y1275D02*
X888Y1275D01*
X910Y1275D02*
X915Y1275D01*
X936Y1275D02*
X962Y1275D01*
X986Y1275D02*
X1007Y1275D01*
X1010Y1275D02*
X1016Y1275D01*
X1039Y1275D02*
X1059Y1275D01*
X1199Y1275D02*
X1210Y1275D01*
X1251Y1275D02*
X1257Y1275D01*
X1289Y1275D02*
X1321Y1275D01*
X1338Y1275D02*
X1344Y1275D01*
X1365Y1275D02*
X1371Y1275D01*
X1634Y1275D02*
X1664Y1275D01*
X1680Y1275D02*
X1686Y1275D01*
X1708Y1275D02*
X1714Y1275D01*
X1732Y1275D02*
X1740Y1275D01*
X1751Y1275D02*
X1764Y1275D01*
X1804Y1275D02*
X1811Y1275D01*
X1Y1274D02*
X8Y1274D01*
X883Y1274D02*
X887Y1274D01*
X910Y1274D02*
X915Y1274D01*
X937Y1274D02*
X961Y1274D01*
X988Y1274D02*
X1005Y1274D01*
X1011Y1274D02*
X1015Y1274D01*
X1041Y1274D02*
X1058Y1274D01*
X1198Y1274D02*
X1211Y1274D01*
X1251Y1274D02*
X1257Y1274D01*
X1288Y1274D02*
X1296Y1274D01*
X1313Y1274D02*
X1321Y1274D01*
X1338Y1274D02*
X1344Y1274D01*
X1365Y1274D02*
X1371Y1274D01*
X1635Y1274D02*
X1656Y1274D01*
X1658Y1274D02*
X1664Y1274D01*
X1680Y1274D02*
X1686Y1274D01*
X1708Y1274D02*
X1714Y1274D01*
X1732Y1274D02*
X1764Y1274D01*
X1804Y1274D02*
X1811Y1274D01*
X1Y1273D02*
X8Y1273D01*
X885Y1273D02*
X885Y1273D01*
X912Y1273D02*
X913Y1273D01*
X938Y1273D02*
X960Y1273D01*
X991Y1273D02*
X1003Y1273D01*
X1013Y1273D02*
X1013Y1273D01*
X1044Y1273D02*
X1055Y1273D01*
X1197Y1273D02*
X1211Y1273D01*
X1251Y1273D02*
X1257Y1273D01*
X1288Y1273D02*
X1295Y1273D01*
X1314Y1273D02*
X1321Y1273D01*
X1338Y1273D02*
X1344Y1273D01*
X1365Y1273D02*
X1371Y1273D01*
X1636Y1273D02*
X1655Y1273D01*
X1658Y1273D02*
X1664Y1273D01*
X1680Y1273D02*
X1686Y1273D01*
X1708Y1273D02*
X1714Y1273D01*
X1733Y1273D02*
X1764Y1273D01*
X1804Y1273D02*
X1811Y1273D01*
X1Y1272D02*
X8Y1272D01*
X1196Y1272D02*
X1212Y1272D01*
X1251Y1272D02*
X1257Y1272D01*
X1288Y1272D02*
X1294Y1272D01*
X1315Y1272D02*
X1321Y1272D01*
X1338Y1272D02*
X1344Y1272D01*
X1365Y1272D02*
X1371Y1272D01*
X1637Y1272D02*
X1653Y1272D01*
X1658Y1272D02*
X1664Y1272D01*
X1680Y1272D02*
X1686Y1272D01*
X1708Y1272D02*
X1714Y1272D01*
X1734Y1272D02*
X1764Y1272D01*
X1804Y1272D02*
X1811Y1272D01*
X1Y1271D02*
X8Y1271D01*
X1195Y1271D02*
X1213Y1271D01*
X1251Y1271D02*
X1257Y1271D01*
X1288Y1271D02*
X1294Y1271D01*
X1315Y1271D02*
X1321Y1271D01*
X1338Y1271D02*
X1344Y1271D01*
X1365Y1271D02*
X1371Y1271D01*
X1639Y1271D02*
X1651Y1271D01*
X1658Y1271D02*
X1664Y1271D01*
X1680Y1271D02*
X1686Y1271D01*
X1708Y1271D02*
X1714Y1271D01*
X1735Y1271D02*
X1756Y1271D01*
X1758Y1271D02*
X1764Y1271D01*
X1804Y1271D02*
X1811Y1271D01*
X1Y1270D02*
X8Y1270D01*
X1194Y1270D02*
X1203Y1270D01*
X1206Y1270D02*
X1214Y1270D01*
X1251Y1270D02*
X1257Y1270D01*
X1288Y1270D02*
X1294Y1270D01*
X1315Y1270D02*
X1321Y1270D01*
X1338Y1270D02*
X1344Y1270D01*
X1365Y1270D02*
X1371Y1270D01*
X1658Y1270D02*
X1664Y1270D01*
X1681Y1270D02*
X1686Y1270D01*
X1708Y1270D02*
X1714Y1270D01*
X1736Y1270D02*
X1755Y1270D01*
X1758Y1270D02*
X1764Y1270D01*
X1804Y1270D02*
X1811Y1270D01*
X1Y1269D02*
X8Y1269D01*
X1194Y1269D02*
X1202Y1269D01*
X1207Y1269D02*
X1215Y1269D01*
X1251Y1269D02*
X1257Y1269D01*
X1288Y1269D02*
X1294Y1269D01*
X1315Y1269D02*
X1321Y1269D01*
X1338Y1269D02*
X1344Y1269D01*
X1365Y1269D02*
X1371Y1269D01*
X1658Y1269D02*
X1664Y1269D01*
X1681Y1269D02*
X1686Y1269D01*
X1708Y1269D02*
X1713Y1269D01*
X1738Y1269D02*
X1754Y1269D01*
X1759Y1269D02*
X1764Y1269D01*
X1804Y1269D02*
X1811Y1269D01*
X1Y1268D02*
X8Y1268D01*
X1193Y1268D02*
X1201Y1268D01*
X1207Y1268D02*
X1216Y1268D01*
X1251Y1268D02*
X1257Y1268D01*
X1288Y1268D02*
X1294Y1268D01*
X1315Y1268D02*
X1321Y1268D01*
X1338Y1268D02*
X1344Y1268D01*
X1365Y1268D02*
X1371Y1268D01*
X1658Y1268D02*
X1664Y1268D01*
X1682Y1268D02*
X1685Y1268D01*
X1709Y1268D02*
X1713Y1268D01*
X1739Y1268D02*
X1752Y1268D01*
X1759Y1268D02*
X1763Y1268D01*
X1804Y1268D02*
X1811Y1268D01*
X1Y1267D02*
X8Y1267D01*
X1192Y1267D02*
X1200Y1267D01*
X1208Y1267D02*
X1216Y1267D01*
X1251Y1267D02*
X1257Y1267D01*
X1288Y1267D02*
X1294Y1267D01*
X1313Y1267D02*
X1321Y1267D01*
X1338Y1267D02*
X1345Y1267D01*
X1365Y1267D02*
X1371Y1267D01*
X1658Y1267D02*
X1664Y1267D01*
X1804Y1267D02*
X1811Y1267D01*
X1Y1266D02*
X8Y1266D01*
X1191Y1266D02*
X1199Y1266D01*
X1209Y1266D02*
X1217Y1266D01*
X1251Y1266D02*
X1257Y1266D01*
X1288Y1266D02*
X1294Y1266D01*
X1311Y1266D02*
X1321Y1266D01*
X1338Y1266D02*
X1346Y1266D01*
X1364Y1266D02*
X1371Y1266D01*
X1658Y1266D02*
X1664Y1266D01*
X1804Y1266D02*
X1811Y1266D01*
X1Y1265D02*
X8Y1265D01*
X1190Y1265D02*
X1198Y1265D01*
X1210Y1265D02*
X1218Y1265D01*
X1251Y1265D02*
X1257Y1265D01*
X1288Y1265D02*
X1294Y1265D01*
X1310Y1265D02*
X1321Y1265D01*
X1339Y1265D02*
X1347Y1265D01*
X1362Y1265D02*
X1371Y1265D01*
X1658Y1265D02*
X1664Y1265D01*
X1804Y1265D02*
X1811Y1265D01*
X1Y1264D02*
X8Y1264D01*
X1189Y1264D02*
X1198Y1264D01*
X1211Y1264D02*
X1219Y1264D01*
X1251Y1264D02*
X1257Y1264D01*
X1288Y1264D02*
X1296Y1264D01*
X1308Y1264D02*
X1321Y1264D01*
X1339Y1264D02*
X1348Y1264D01*
X1361Y1264D02*
X1370Y1264D01*
X1658Y1264D02*
X1664Y1264D01*
X1804Y1264D02*
X1811Y1264D01*
X1Y1263D02*
X8Y1263D01*
X1189Y1263D02*
X1197Y1263D01*
X1211Y1263D02*
X1220Y1263D01*
X1243Y1263D02*
X1266Y1263D01*
X1289Y1263D02*
X1321Y1263D01*
X1340Y1263D02*
X1369Y1263D01*
X1657Y1263D02*
X1664Y1263D01*
X1804Y1263D02*
X1811Y1263D01*
X1Y1262D02*
X8Y1262D01*
X1188Y1262D02*
X1196Y1262D01*
X1212Y1262D02*
X1220Y1262D01*
X1242Y1262D02*
X1267Y1262D01*
X1289Y1262D02*
X1321Y1262D01*
X1341Y1262D02*
X1368Y1262D01*
X1656Y1262D02*
X1663Y1262D01*
X1804Y1262D02*
X1811Y1262D01*
X1Y1261D02*
X8Y1261D01*
X1187Y1261D02*
X1195Y1261D01*
X1213Y1261D02*
X1221Y1261D01*
X1241Y1261D02*
X1267Y1261D01*
X1290Y1261D02*
X1321Y1261D01*
X1342Y1261D02*
X1367Y1261D01*
X1655Y1261D02*
X1663Y1261D01*
X1804Y1261D02*
X1811Y1261D01*
X1Y1260D02*
X8Y1260D01*
X1187Y1260D02*
X1194Y1260D01*
X1214Y1260D02*
X1221Y1260D01*
X1241Y1260D02*
X1268Y1260D01*
X1291Y1260D02*
X1321Y1260D01*
X1343Y1260D02*
X1366Y1260D01*
X1654Y1260D02*
X1662Y1260D01*
X1804Y1260D02*
X1811Y1260D01*
X1Y1259D02*
X8Y1259D01*
X1188Y1259D02*
X1193Y1259D01*
X1215Y1259D02*
X1221Y1259D01*
X1241Y1259D02*
X1267Y1259D01*
X1292Y1259D02*
X1312Y1259D01*
X1316Y1259D02*
X1321Y1259D01*
X1344Y1259D02*
X1365Y1259D01*
X1636Y1259D02*
X1662Y1259D01*
X1804Y1259D02*
X1811Y1259D01*
X1Y1258D02*
X8Y1258D01*
X1188Y1258D02*
X1193Y1258D01*
X1216Y1258D02*
X1220Y1258D01*
X1242Y1258D02*
X1267Y1258D01*
X1293Y1258D02*
X1311Y1258D01*
X1316Y1258D02*
X1320Y1258D01*
X1346Y1258D02*
X1364Y1258D01*
X1634Y1258D02*
X1661Y1258D01*
X1804Y1258D02*
X1811Y1258D01*
X1Y1257D02*
X8Y1257D01*
X1189Y1257D02*
X1191Y1257D01*
X1217Y1257D02*
X1219Y1257D01*
X1243Y1257D02*
X1266Y1257D01*
X1295Y1257D02*
X1309Y1257D01*
X1317Y1257D02*
X1319Y1257D01*
X1348Y1257D02*
X1361Y1257D01*
X1634Y1257D02*
X1660Y1257D01*
X1804Y1257D02*
X1811Y1257D01*
X1Y1256D02*
X8Y1256D01*
X1634Y1256D02*
X1659Y1256D01*
X1804Y1256D02*
X1811Y1256D01*
X1Y1255D02*
X8Y1255D01*
X1634Y1255D02*
X1658Y1255D01*
X1804Y1255D02*
X1811Y1255D01*
X1Y1254D02*
X8Y1254D01*
X1634Y1254D02*
X1656Y1254D01*
X1804Y1254D02*
X1811Y1254D01*
X1Y1253D02*
X8Y1253D01*
X1635Y1253D02*
X1654Y1253D01*
X1804Y1253D02*
X1811Y1253D01*
X1Y1252D02*
X8Y1252D01*
X1804Y1252D02*
X1811Y1252D01*
X1Y1251D02*
X8Y1251D01*
X1804Y1251D02*
X1811Y1251D01*
X1Y1250D02*
X8Y1250D01*
X1804Y1250D02*
X1811Y1250D01*
X1Y1249D02*
X8Y1249D01*
X1804Y1249D02*
X1811Y1249D01*
X1Y1248D02*
X8Y1248D01*
X1804Y1248D02*
X1811Y1248D01*
X1Y1247D02*
X8Y1247D01*
X1804Y1247D02*
X1811Y1247D01*
X1Y1246D02*
X8Y1246D01*
X1804Y1246D02*
X1811Y1246D01*
X1Y1245D02*
X8Y1245D01*
X1804Y1245D02*
X1811Y1245D01*
X1Y1244D02*
X8Y1244D01*
X1804Y1244D02*
X1811Y1244D01*
X1Y1243D02*
X8Y1243D01*
X1804Y1243D02*
X1811Y1243D01*
X1Y1242D02*
X8Y1242D01*
X1804Y1242D02*
X1811Y1242D01*
X1Y1241D02*
X8Y1241D01*
X1804Y1241D02*
X1811Y1241D01*
X1Y1240D02*
X8Y1240D01*
X1804Y1240D02*
X1811Y1240D01*
X1Y1239D02*
X8Y1239D01*
X1804Y1239D02*
X1811Y1239D01*
X1Y1238D02*
X8Y1238D01*
X1804Y1238D02*
X1811Y1238D01*
X1Y1237D02*
X8Y1237D01*
X1804Y1237D02*
X1811Y1237D01*
X1Y1236D02*
X8Y1236D01*
X1804Y1236D02*
X1811Y1236D01*
X1Y1235D02*
X8Y1235D01*
X1804Y1235D02*
X1811Y1235D01*
X1Y1234D02*
X8Y1234D01*
X1804Y1234D02*
X1811Y1234D01*
X1Y1233D02*
X8Y1233D01*
X1804Y1233D02*
X1811Y1233D01*
X1Y1232D02*
X8Y1232D01*
X58Y1232D02*
X61Y1232D01*
X66Y1232D02*
X72Y1232D01*
X80Y1232D02*
X85Y1232D01*
X116Y1232D02*
X132Y1232D01*
X158Y1232D02*
X161Y1232D01*
X166Y1232D02*
X172Y1232D01*
X180Y1232D02*
X185Y1232D01*
X214Y1232D02*
X235Y1232D01*
X1804Y1232D02*
X1811Y1232D01*
X1Y1231D02*
X8Y1231D01*
X57Y1231D02*
X62Y1231D01*
X64Y1231D02*
X73Y1231D01*
X78Y1231D02*
X87Y1231D01*
X114Y1231D02*
X134Y1231D01*
X157Y1231D02*
X162Y1231D01*
X165Y1231D02*
X174Y1231D01*
X178Y1231D02*
X187Y1231D01*
X212Y1231D02*
X237Y1231D01*
X1804Y1231D02*
X1811Y1231D01*
X1Y1230D02*
X8Y1230D01*
X57Y1230D02*
X75Y1230D01*
X77Y1230D02*
X88Y1230D01*
X113Y1230D02*
X135Y1230D01*
X157Y1230D02*
X175Y1230D01*
X177Y1230D02*
X188Y1230D01*
X211Y1230D02*
X238Y1230D01*
X1804Y1230D02*
X1811Y1230D01*
X1Y1229D02*
X8Y1229D01*
X57Y1229D02*
X89Y1229D01*
X112Y1229D02*
X136Y1229D01*
X157Y1229D02*
X189Y1229D01*
X210Y1229D02*
X239Y1229D01*
X1804Y1229D02*
X1811Y1229D01*
X1Y1228D02*
X8Y1228D01*
X57Y1228D02*
X89Y1228D01*
X111Y1228D02*
X137Y1228D01*
X157Y1228D02*
X190Y1228D01*
X209Y1228D02*
X240Y1228D01*
X1804Y1228D02*
X1811Y1228D01*
X1Y1227D02*
X8Y1227D01*
X57Y1227D02*
X90Y1227D01*
X110Y1227D02*
X138Y1227D01*
X157Y1227D02*
X190Y1227D01*
X209Y1227D02*
X240Y1227D01*
X1804Y1227D02*
X1811Y1227D01*
X1Y1226D02*
X8Y1226D01*
X57Y1226D02*
X90Y1226D01*
X109Y1226D02*
X139Y1226D01*
X157Y1226D02*
X190Y1226D01*
X209Y1226D02*
X240Y1226D01*
X607Y1226D02*
X611Y1226D01*
X1804Y1226D02*
X1811Y1226D01*
X1Y1225D02*
X8Y1225D01*
X57Y1225D02*
X67Y1225D01*
X71Y1225D02*
X81Y1225D01*
X84Y1225D02*
X90Y1225D01*
X109Y1225D02*
X117Y1225D01*
X131Y1225D02*
X140Y1225D01*
X157Y1225D02*
X167Y1225D01*
X171Y1225D02*
X181Y1225D01*
X184Y1225D02*
X190Y1225D01*
X209Y1225D02*
X215Y1225D01*
X234Y1225D02*
X240Y1225D01*
X607Y1225D02*
X612Y1225D01*
X1804Y1225D02*
X1811Y1225D01*
X1Y1224D02*
X8Y1224D01*
X57Y1224D02*
X66Y1224D01*
X71Y1224D02*
X80Y1224D01*
X84Y1224D02*
X90Y1224D01*
X108Y1224D02*
X116Y1224D01*
X133Y1224D02*
X140Y1224D01*
X157Y1224D02*
X166Y1224D01*
X171Y1224D02*
X180Y1224D01*
X185Y1224D02*
X190Y1224D01*
X208Y1224D02*
X214Y1224D01*
X235Y1224D02*
X239Y1224D01*
X606Y1224D02*
X612Y1224D01*
X1804Y1224D02*
X1811Y1224D01*
X1Y1223D02*
X8Y1223D01*
X57Y1223D02*
X65Y1223D01*
X71Y1223D02*
X78Y1223D01*
X84Y1223D02*
X90Y1223D01*
X108Y1223D02*
X115Y1223D01*
X133Y1223D02*
X140Y1223D01*
X157Y1223D02*
X165Y1223D01*
X171Y1223D02*
X179Y1223D01*
X185Y1223D02*
X191Y1223D01*
X209Y1223D02*
X215Y1223D01*
X237Y1223D02*
X238Y1223D01*
X606Y1223D02*
X612Y1223D01*
X1804Y1223D02*
X1811Y1223D01*
X1Y1222D02*
X8Y1222D01*
X57Y1222D02*
X63Y1222D01*
X71Y1222D02*
X77Y1222D01*
X84Y1222D02*
X90Y1222D01*
X107Y1222D02*
X114Y1222D01*
X134Y1222D02*
X141Y1222D01*
X157Y1222D02*
X164Y1222D01*
X171Y1222D02*
X178Y1222D01*
X185Y1222D02*
X191Y1222D01*
X209Y1222D02*
X216Y1222D01*
X606Y1222D02*
X612Y1222D01*
X1804Y1222D02*
X1811Y1222D01*
X1Y1221D02*
X8Y1221D01*
X57Y1221D02*
X63Y1221D01*
X71Y1221D02*
X77Y1221D01*
X84Y1221D02*
X90Y1221D01*
X107Y1221D02*
X113Y1221D01*
X135Y1221D02*
X141Y1221D01*
X157Y1221D02*
X163Y1221D01*
X171Y1221D02*
X177Y1221D01*
X185Y1221D02*
X191Y1221D01*
X209Y1221D02*
X218Y1221D01*
X606Y1221D02*
X612Y1221D01*
X1804Y1221D02*
X1811Y1221D01*
X1Y1220D02*
X8Y1220D01*
X57Y1220D02*
X63Y1220D01*
X71Y1220D02*
X77Y1220D01*
X84Y1220D02*
X90Y1220D01*
X107Y1220D02*
X113Y1220D01*
X135Y1220D02*
X141Y1220D01*
X157Y1220D02*
X163Y1220D01*
X171Y1220D02*
X177Y1220D01*
X185Y1220D02*
X191Y1220D01*
X209Y1220D02*
X220Y1220D01*
X606Y1220D02*
X612Y1220D01*
X1804Y1220D02*
X1811Y1220D01*
X1Y1219D02*
X8Y1219D01*
X57Y1219D02*
X63Y1219D01*
X71Y1219D02*
X77Y1219D01*
X84Y1219D02*
X90Y1219D01*
X107Y1219D02*
X113Y1219D01*
X135Y1219D02*
X141Y1219D01*
X157Y1219D02*
X163Y1219D01*
X171Y1219D02*
X177Y1219D01*
X185Y1219D02*
X191Y1219D01*
X210Y1219D02*
X223Y1219D01*
X606Y1219D02*
X612Y1219D01*
X1804Y1219D02*
X1811Y1219D01*
X1Y1218D02*
X8Y1218D01*
X57Y1218D02*
X63Y1218D01*
X71Y1218D02*
X77Y1218D01*
X84Y1218D02*
X90Y1218D01*
X107Y1218D02*
X113Y1218D01*
X135Y1218D02*
X141Y1218D01*
X157Y1218D02*
X163Y1218D01*
X171Y1218D02*
X177Y1218D01*
X185Y1218D02*
X191Y1218D01*
X211Y1218D02*
X225Y1218D01*
X606Y1218D02*
X612Y1218D01*
X1804Y1218D02*
X1811Y1218D01*
X1Y1217D02*
X8Y1217D01*
X57Y1217D02*
X63Y1217D01*
X71Y1217D02*
X77Y1217D01*
X84Y1217D02*
X90Y1217D01*
X107Y1217D02*
X113Y1217D01*
X135Y1217D02*
X141Y1217D01*
X157Y1217D02*
X163Y1217D01*
X171Y1217D02*
X177Y1217D01*
X185Y1217D02*
X191Y1217D01*
X212Y1217D02*
X227Y1217D01*
X606Y1217D02*
X612Y1217D01*
X1804Y1217D02*
X1811Y1217D01*
X1Y1216D02*
X8Y1216D01*
X57Y1216D02*
X63Y1216D01*
X71Y1216D02*
X77Y1216D01*
X84Y1216D02*
X90Y1216D01*
X107Y1216D02*
X113Y1216D01*
X135Y1216D02*
X141Y1216D01*
X157Y1216D02*
X163Y1216D01*
X171Y1216D02*
X177Y1216D01*
X185Y1216D02*
X191Y1216D01*
X213Y1216D02*
X230Y1216D01*
X606Y1216D02*
X612Y1216D01*
X1804Y1216D02*
X1811Y1216D01*
X1Y1215D02*
X8Y1215D01*
X57Y1215D02*
X63Y1215D01*
X71Y1215D02*
X77Y1215D01*
X84Y1215D02*
X90Y1215D01*
X107Y1215D02*
X141Y1215D01*
X157Y1215D02*
X163Y1215D01*
X171Y1215D02*
X177Y1215D01*
X185Y1215D02*
X191Y1215D01*
X215Y1215D02*
X232Y1215D01*
X606Y1215D02*
X612Y1215D01*
X1804Y1215D02*
X1811Y1215D01*
X1Y1214D02*
X8Y1214D01*
X57Y1214D02*
X63Y1214D01*
X71Y1214D02*
X77Y1214D01*
X85Y1214D02*
X90Y1214D01*
X107Y1214D02*
X141Y1214D01*
X157Y1214D02*
X163Y1214D01*
X171Y1214D02*
X177Y1214D01*
X185Y1214D02*
X191Y1214D01*
X218Y1214D02*
X234Y1214D01*
X606Y1214D02*
X612Y1214D01*
X1804Y1214D02*
X1811Y1214D01*
X1Y1213D02*
X8Y1213D01*
X57Y1213D02*
X63Y1213D01*
X71Y1213D02*
X77Y1213D01*
X85Y1213D02*
X91Y1213D01*
X107Y1213D02*
X141Y1213D01*
X157Y1213D02*
X163Y1213D01*
X171Y1213D02*
X177Y1213D01*
X185Y1213D02*
X191Y1213D01*
X220Y1213D02*
X236Y1213D01*
X606Y1213D02*
X612Y1213D01*
X1804Y1213D02*
X1811Y1213D01*
X1Y1212D02*
X8Y1212D01*
X57Y1212D02*
X63Y1212D01*
X71Y1212D02*
X77Y1212D01*
X85Y1212D02*
X91Y1212D01*
X107Y1212D02*
X141Y1212D01*
X157Y1212D02*
X163Y1212D01*
X171Y1212D02*
X177Y1212D01*
X185Y1212D02*
X191Y1212D01*
X222Y1212D02*
X237Y1212D01*
X606Y1212D02*
X612Y1212D01*
X1804Y1212D02*
X1811Y1212D01*
X1Y1211D02*
X8Y1211D01*
X57Y1211D02*
X63Y1211D01*
X71Y1211D02*
X77Y1211D01*
X85Y1211D02*
X91Y1211D01*
X107Y1211D02*
X141Y1211D01*
X157Y1211D02*
X163Y1211D01*
X171Y1211D02*
X177Y1211D01*
X185Y1211D02*
X191Y1211D01*
X225Y1211D02*
X238Y1211D01*
X606Y1211D02*
X612Y1211D01*
X1804Y1211D02*
X1811Y1211D01*
X1Y1210D02*
X8Y1210D01*
X57Y1210D02*
X63Y1210D01*
X71Y1210D02*
X77Y1210D01*
X85Y1210D02*
X91Y1210D01*
X107Y1210D02*
X140Y1210D01*
X157Y1210D02*
X163Y1210D01*
X171Y1210D02*
X177Y1210D01*
X185Y1210D02*
X191Y1210D01*
X227Y1210D02*
X239Y1210D01*
X606Y1210D02*
X612Y1210D01*
X1804Y1210D02*
X1811Y1210D01*
X1Y1209D02*
X8Y1209D01*
X57Y1209D02*
X63Y1209D01*
X71Y1209D02*
X77Y1209D01*
X85Y1209D02*
X91Y1209D01*
X107Y1209D02*
X140Y1209D01*
X157Y1209D02*
X163Y1209D01*
X171Y1209D02*
X177Y1209D01*
X185Y1209D02*
X191Y1209D01*
X229Y1209D02*
X240Y1209D01*
X606Y1209D02*
X612Y1209D01*
X1496Y1209D02*
X1544Y1209D01*
X1804Y1209D02*
X1811Y1209D01*
X1Y1208D02*
X8Y1208D01*
X57Y1208D02*
X63Y1208D01*
X71Y1208D02*
X77Y1208D01*
X85Y1208D02*
X91Y1208D01*
X107Y1208D02*
X114Y1208D01*
X157Y1208D02*
X163Y1208D01*
X171Y1208D02*
X177Y1208D01*
X185Y1208D02*
X191Y1208D01*
X231Y1208D02*
X240Y1208D01*
X606Y1208D02*
X612Y1208D01*
X1495Y1208D02*
X1546Y1208D01*
X1804Y1208D02*
X1811Y1208D01*
X1Y1207D02*
X8Y1207D01*
X57Y1207D02*
X63Y1207D01*
X71Y1207D02*
X77Y1207D01*
X85Y1207D02*
X91Y1207D01*
X107Y1207D02*
X113Y1207D01*
X157Y1207D02*
X163Y1207D01*
X171Y1207D02*
X177Y1207D01*
X185Y1207D02*
X191Y1207D01*
X234Y1207D02*
X241Y1207D01*
X606Y1207D02*
X612Y1207D01*
X1494Y1207D02*
X1546Y1207D01*
X1804Y1207D02*
X1811Y1207D01*
X1Y1206D02*
X8Y1206D01*
X57Y1206D02*
X63Y1206D01*
X71Y1206D02*
X77Y1206D01*
X85Y1206D02*
X91Y1206D01*
X107Y1206D02*
X113Y1206D01*
X157Y1206D02*
X163Y1206D01*
X171Y1206D02*
X177Y1206D01*
X185Y1206D02*
X191Y1206D01*
X234Y1206D02*
X241Y1206D01*
X606Y1206D02*
X612Y1206D01*
X1494Y1206D02*
X1547Y1206D01*
X1804Y1206D02*
X1811Y1206D01*
X1Y1205D02*
X8Y1205D01*
X57Y1205D02*
X63Y1205D01*
X71Y1205D02*
X77Y1205D01*
X85Y1205D02*
X91Y1205D01*
X107Y1205D02*
X114Y1205D01*
X157Y1205D02*
X163Y1205D01*
X171Y1205D02*
X177Y1205D01*
X185Y1205D02*
X191Y1205D01*
X235Y1205D02*
X241Y1205D01*
X606Y1205D02*
X612Y1205D01*
X1494Y1205D02*
X1547Y1205D01*
X1804Y1205D02*
X1811Y1205D01*
X1Y1204D02*
X8Y1204D01*
X57Y1204D02*
X63Y1204D01*
X71Y1204D02*
X77Y1204D01*
X85Y1204D02*
X91Y1204D01*
X107Y1204D02*
X114Y1204D01*
X157Y1204D02*
X163Y1204D01*
X171Y1204D02*
X177Y1204D01*
X185Y1204D02*
X191Y1204D01*
X235Y1204D02*
X241Y1204D01*
X606Y1204D02*
X612Y1204D01*
X1494Y1204D02*
X1546Y1204D01*
X1804Y1204D02*
X1811Y1204D01*
X1Y1203D02*
X8Y1203D01*
X57Y1203D02*
X63Y1203D01*
X71Y1203D02*
X77Y1203D01*
X85Y1203D02*
X91Y1203D01*
X108Y1203D02*
X115Y1203D01*
X157Y1203D02*
X163Y1203D01*
X171Y1203D02*
X177Y1203D01*
X185Y1203D02*
X191Y1203D01*
X210Y1203D02*
X211Y1203D01*
X235Y1203D02*
X241Y1203D01*
X606Y1203D02*
X612Y1203D01*
X1495Y1203D02*
X1545Y1203D01*
X1804Y1203D02*
X1811Y1203D01*
X1Y1202D02*
X8Y1202D01*
X57Y1202D02*
X63Y1202D01*
X71Y1202D02*
X77Y1202D01*
X85Y1202D02*
X91Y1202D01*
X108Y1202D02*
X116Y1202D01*
X157Y1202D02*
X163Y1202D01*
X171Y1202D02*
X177Y1202D01*
X185Y1202D02*
X191Y1202D01*
X208Y1202D02*
X213Y1202D01*
X234Y1202D02*
X241Y1202D01*
X606Y1202D02*
X612Y1202D01*
X1498Y1202D02*
X1508Y1202D01*
X1518Y1202D02*
X1528Y1202D01*
X1804Y1202D02*
X1811Y1202D01*
X1Y1201D02*
X8Y1201D01*
X57Y1201D02*
X63Y1201D01*
X71Y1201D02*
X77Y1201D01*
X85Y1201D02*
X91Y1201D01*
X108Y1201D02*
X117Y1201D01*
X157Y1201D02*
X163Y1201D01*
X171Y1201D02*
X177Y1201D01*
X185Y1201D02*
X191Y1201D01*
X208Y1201D02*
X215Y1201D01*
X233Y1201D02*
X241Y1201D01*
X606Y1201D02*
X612Y1201D01*
X1497Y1201D02*
X1506Y1201D01*
X1520Y1201D02*
X1528Y1201D01*
X1804Y1201D02*
X1811Y1201D01*
X1Y1200D02*
X8Y1200D01*
X57Y1200D02*
X63Y1200D01*
X71Y1200D02*
X77Y1200D01*
X85Y1200D02*
X91Y1200D01*
X109Y1200D02*
X139Y1200D01*
X157Y1200D02*
X163Y1200D01*
X171Y1200D02*
X177Y1200D01*
X185Y1200D02*
X191Y1200D01*
X208Y1200D02*
X240Y1200D01*
X606Y1200D02*
X612Y1200D01*
X1496Y1200D02*
X1505Y1200D01*
X1521Y1200D02*
X1529Y1200D01*
X1804Y1200D02*
X1811Y1200D01*
X1Y1199D02*
X8Y1199D01*
X57Y1199D02*
X63Y1199D01*
X71Y1199D02*
X77Y1199D01*
X85Y1199D02*
X91Y1199D01*
X110Y1199D02*
X140Y1199D01*
X157Y1199D02*
X163Y1199D01*
X171Y1199D02*
X177Y1199D01*
X185Y1199D02*
X191Y1199D01*
X208Y1199D02*
X240Y1199D01*
X606Y1199D02*
X612Y1199D01*
X1496Y1199D02*
X1504Y1199D01*
X1522Y1199D02*
X1530Y1199D01*
X1804Y1199D02*
X1811Y1199D01*
X1Y1198D02*
X8Y1198D01*
X57Y1198D02*
X63Y1198D01*
X71Y1198D02*
X77Y1198D01*
X85Y1198D02*
X91Y1198D01*
X111Y1198D02*
X141Y1198D01*
X157Y1198D02*
X163Y1198D01*
X171Y1198D02*
X177Y1198D01*
X185Y1198D02*
X191Y1198D01*
X208Y1198D02*
X239Y1198D01*
X606Y1198D02*
X612Y1198D01*
X1495Y1198D02*
X1503Y1198D01*
X1523Y1198D02*
X1531Y1198D01*
X1804Y1198D02*
X1811Y1198D01*
X1Y1197D02*
X8Y1197D01*
X57Y1197D02*
X63Y1197D01*
X71Y1197D02*
X77Y1197D01*
X85Y1197D02*
X91Y1197D01*
X112Y1197D02*
X141Y1197D01*
X157Y1197D02*
X163Y1197D01*
X171Y1197D02*
X177Y1197D01*
X185Y1197D02*
X191Y1197D01*
X209Y1197D02*
X238Y1197D01*
X587Y1197D02*
X590Y1197D01*
X606Y1197D02*
X612Y1197D01*
X1495Y1197D02*
X1502Y1197D01*
X1523Y1197D02*
X1531Y1197D01*
X1804Y1197D02*
X1811Y1197D01*
X1Y1196D02*
X8Y1196D01*
X57Y1196D02*
X62Y1196D01*
X71Y1196D02*
X77Y1196D01*
X85Y1196D02*
X91Y1196D01*
X113Y1196D02*
X141Y1196D01*
X157Y1196D02*
X163Y1196D01*
X171Y1196D02*
X177Y1196D01*
X186Y1196D02*
X191Y1196D01*
X210Y1196D02*
X237Y1196D01*
X586Y1196D02*
X591Y1196D01*
X606Y1196D02*
X612Y1196D01*
X1494Y1196D02*
X1501Y1196D01*
X1524Y1196D02*
X1531Y1196D01*
X1804Y1196D02*
X1811Y1196D01*
X1Y1195D02*
X8Y1195D01*
X57Y1195D02*
X62Y1195D01*
X71Y1195D02*
X76Y1195D01*
X86Y1195D02*
X91Y1195D01*
X114Y1195D02*
X140Y1195D01*
X157Y1195D02*
X162Y1195D01*
X172Y1195D02*
X177Y1195D01*
X186Y1195D02*
X191Y1195D01*
X212Y1195D02*
X236Y1195D01*
X586Y1195D02*
X591Y1195D01*
X606Y1195D02*
X612Y1195D01*
X1494Y1195D02*
X1500Y1195D01*
X1525Y1195D02*
X1532Y1195D01*
X1804Y1195D02*
X1811Y1195D01*
X1Y1194D02*
X8Y1194D01*
X58Y1194D02*
X61Y1194D01*
X72Y1194D02*
X75Y1194D01*
X87Y1194D02*
X90Y1194D01*
X116Y1194D02*
X139Y1194D01*
X158Y1194D02*
X161Y1194D01*
X173Y1194D02*
X176Y1194D01*
X187Y1194D02*
X190Y1194D01*
X214Y1194D02*
X234Y1194D01*
X586Y1194D02*
X591Y1194D01*
X606Y1194D02*
X612Y1194D01*
X1494Y1194D02*
X1500Y1194D01*
X1526Y1194D02*
X1532Y1194D01*
X1804Y1194D02*
X1811Y1194D01*
X1Y1193D02*
X8Y1193D01*
X586Y1193D02*
X592Y1193D01*
X606Y1193D02*
X612Y1193D01*
X1494Y1193D02*
X1500Y1193D01*
X1526Y1193D02*
X1532Y1193D01*
X1804Y1193D02*
X1811Y1193D01*
X1Y1192D02*
X8Y1192D01*
X586Y1192D02*
X592Y1192D01*
X606Y1192D02*
X612Y1192D01*
X1494Y1192D02*
X1500Y1192D01*
X1526Y1192D02*
X1532Y1192D01*
X1804Y1192D02*
X1811Y1192D01*
X1Y1191D02*
X8Y1191D01*
X586Y1191D02*
X592Y1191D01*
X606Y1191D02*
X612Y1191D01*
X1494Y1191D02*
X1500Y1191D01*
X1526Y1191D02*
X1532Y1191D01*
X1804Y1191D02*
X1811Y1191D01*
X1Y1190D02*
X8Y1190D01*
X586Y1190D02*
X592Y1190D01*
X606Y1190D02*
X612Y1190D01*
X1494Y1190D02*
X1500Y1190D01*
X1526Y1190D02*
X1532Y1190D01*
X1804Y1190D02*
X1811Y1190D01*
X1Y1189D02*
X8Y1189D01*
X586Y1189D02*
X592Y1189D01*
X606Y1189D02*
X612Y1189D01*
X1494Y1189D02*
X1500Y1189D01*
X1526Y1189D02*
X1532Y1189D01*
X1804Y1189D02*
X1811Y1189D01*
X1Y1188D02*
X8Y1188D01*
X586Y1188D02*
X592Y1188D01*
X606Y1188D02*
X612Y1188D01*
X1494Y1188D02*
X1500Y1188D01*
X1526Y1188D02*
X1532Y1188D01*
X1804Y1188D02*
X1811Y1188D01*
X1Y1187D02*
X8Y1187D01*
X586Y1187D02*
X592Y1187D01*
X606Y1187D02*
X612Y1187D01*
X1494Y1187D02*
X1500Y1187D01*
X1526Y1187D02*
X1532Y1187D01*
X1804Y1187D02*
X1811Y1187D01*
X1Y1186D02*
X8Y1186D01*
X586Y1186D02*
X592Y1186D01*
X606Y1186D02*
X612Y1186D01*
X1494Y1186D02*
X1500Y1186D01*
X1526Y1186D02*
X1532Y1186D01*
X1804Y1186D02*
X1811Y1186D01*
X1Y1185D02*
X8Y1185D01*
X586Y1185D02*
X592Y1185D01*
X606Y1185D02*
X612Y1185D01*
X1494Y1185D02*
X1501Y1185D01*
X1525Y1185D02*
X1532Y1185D01*
X1804Y1185D02*
X1811Y1185D01*
X1Y1184D02*
X8Y1184D01*
X586Y1184D02*
X592Y1184D01*
X606Y1184D02*
X612Y1184D01*
X1494Y1184D02*
X1501Y1184D01*
X1524Y1184D02*
X1531Y1184D01*
X1804Y1184D02*
X1811Y1184D01*
X1Y1183D02*
X8Y1183D01*
X586Y1183D02*
X592Y1183D01*
X606Y1183D02*
X612Y1183D01*
X1495Y1183D02*
X1502Y1183D01*
X1523Y1183D02*
X1531Y1183D01*
X1804Y1183D02*
X1811Y1183D01*
X1Y1182D02*
X8Y1182D01*
X586Y1182D02*
X592Y1182D01*
X606Y1182D02*
X612Y1182D01*
X1495Y1182D02*
X1504Y1182D01*
X1522Y1182D02*
X1530Y1182D01*
X1804Y1182D02*
X1811Y1182D01*
X1Y1181D02*
X8Y1181D01*
X586Y1181D02*
X593Y1181D01*
X605Y1181D02*
X612Y1181D01*
X1496Y1181D02*
X1530Y1181D01*
X1804Y1181D02*
X1811Y1181D01*
X1Y1180D02*
X8Y1180D01*
X586Y1180D02*
X594Y1180D01*
X603Y1180D02*
X612Y1180D01*
X1497Y1180D02*
X1529Y1180D01*
X1804Y1180D02*
X1811Y1180D01*
X1Y1179D02*
X8Y1179D01*
X586Y1179D02*
X611Y1179D01*
X1498Y1179D02*
X1528Y1179D01*
X1804Y1179D02*
X1811Y1179D01*
X1Y1178D02*
X8Y1178D01*
X587Y1178D02*
X611Y1178D01*
X1499Y1178D02*
X1527Y1178D01*
X1804Y1178D02*
X1811Y1178D01*
X1Y1177D02*
X8Y1177D01*
X588Y1177D02*
X610Y1177D01*
X1500Y1177D02*
X1526Y1177D01*
X1804Y1177D02*
X1811Y1177D01*
X1Y1176D02*
X8Y1176D01*
X589Y1176D02*
X609Y1176D01*
X1501Y1176D02*
X1525Y1176D01*
X1804Y1176D02*
X1811Y1176D01*
X1Y1175D02*
X8Y1175D01*
X590Y1175D02*
X608Y1175D01*
X1503Y1175D02*
X1522Y1175D01*
X1804Y1175D02*
X1811Y1175D01*
X1Y1174D02*
X8Y1174D01*
X591Y1174D02*
X606Y1174D01*
X1804Y1174D02*
X1811Y1174D01*
X1Y1173D02*
X8Y1173D01*
X594Y1173D02*
X603Y1173D01*
X1804Y1173D02*
X1811Y1173D01*
X1Y1172D02*
X8Y1172D01*
X1804Y1172D02*
X1811Y1172D01*
X1Y1171D02*
X8Y1171D01*
X1804Y1171D02*
X1811Y1171D01*
X1Y1170D02*
X8Y1170D01*
X1804Y1170D02*
X1811Y1170D01*
X1Y1169D02*
X8Y1169D01*
X1804Y1169D02*
X1811Y1169D01*
X1Y1168D02*
X8Y1168D01*
X1804Y1168D02*
X1811Y1168D01*
X1Y1167D02*
X8Y1167D01*
X1804Y1167D02*
X1811Y1167D01*
X1Y1166D02*
X8Y1166D01*
X1804Y1166D02*
X1811Y1166D01*
X1Y1165D02*
X8Y1165D01*
X1804Y1165D02*
X1811Y1165D01*
X1Y1164D02*
X8Y1164D01*
X1804Y1164D02*
X1811Y1164D01*
X1Y1163D02*
X8Y1163D01*
X1804Y1163D02*
X1811Y1163D01*
X1Y1162D02*
X8Y1162D01*
X1804Y1162D02*
X1811Y1162D01*
X1Y1161D02*
X8Y1161D01*
X1804Y1161D02*
X1811Y1161D01*
X1Y1160D02*
X8Y1160D01*
X1804Y1160D02*
X1811Y1160D01*
X1Y1159D02*
X8Y1159D01*
X1804Y1159D02*
X1811Y1159D01*
X1Y1158D02*
X8Y1158D01*
X1495Y1158D02*
X1531Y1158D01*
X1804Y1158D02*
X1811Y1158D01*
X1Y1157D02*
X8Y1157D01*
X1494Y1157D02*
X1532Y1157D01*
X1804Y1157D02*
X1811Y1157D01*
X1Y1156D02*
X8Y1156D01*
X1494Y1156D02*
X1532Y1156D01*
X1804Y1156D02*
X1811Y1156D01*
X1Y1155D02*
X8Y1155D01*
X1494Y1155D02*
X1532Y1155D01*
X1804Y1155D02*
X1811Y1155D01*
X1Y1154D02*
X8Y1154D01*
X1494Y1154D02*
X1532Y1154D01*
X1804Y1154D02*
X1811Y1154D01*
X1Y1153D02*
X8Y1153D01*
X1495Y1153D02*
X1531Y1153D01*
X1804Y1153D02*
X1811Y1153D01*
X1Y1152D02*
X8Y1152D01*
X1497Y1152D02*
X1529Y1152D01*
X1804Y1152D02*
X1811Y1152D01*
X1Y1151D02*
X8Y1151D01*
X1517Y1151D02*
X1525Y1151D01*
X1804Y1151D02*
X1811Y1151D01*
X1Y1150D02*
X8Y1150D01*
X1518Y1150D02*
X1526Y1150D01*
X1804Y1150D02*
X1811Y1150D01*
X1Y1149D02*
X8Y1149D01*
X1519Y1149D02*
X1527Y1149D01*
X1804Y1149D02*
X1811Y1149D01*
X1Y1148D02*
X8Y1148D01*
X1519Y1148D02*
X1528Y1148D01*
X1804Y1148D02*
X1811Y1148D01*
X1Y1147D02*
X8Y1147D01*
X1520Y1147D02*
X1529Y1147D01*
X1804Y1147D02*
X1811Y1147D01*
X1Y1146D02*
X8Y1146D01*
X1521Y1146D02*
X1529Y1146D01*
X1804Y1146D02*
X1811Y1146D01*
X1Y1145D02*
X8Y1145D01*
X1522Y1145D02*
X1530Y1145D01*
X1804Y1145D02*
X1811Y1145D01*
X1Y1144D02*
X8Y1144D01*
X1523Y1144D02*
X1531Y1144D01*
X1804Y1144D02*
X1811Y1144D01*
X1Y1143D02*
X8Y1143D01*
X1524Y1143D02*
X1532Y1143D01*
X1804Y1143D02*
X1811Y1143D01*
X1Y1142D02*
X8Y1142D01*
X1525Y1142D02*
X1532Y1142D01*
X1804Y1142D02*
X1811Y1142D01*
X1Y1141D02*
X8Y1141D01*
X1525Y1141D02*
X1532Y1141D01*
X1804Y1141D02*
X1811Y1141D01*
X1Y1140D02*
X8Y1140D01*
X1526Y1140D02*
X1532Y1140D01*
X1804Y1140D02*
X1811Y1140D01*
X1Y1139D02*
X8Y1139D01*
X1526Y1139D02*
X1532Y1139D01*
X1804Y1139D02*
X1811Y1139D01*
X1Y1138D02*
X8Y1138D01*
X1526Y1138D02*
X1532Y1138D01*
X1804Y1138D02*
X1811Y1138D01*
X1Y1137D02*
X8Y1137D01*
X1526Y1137D02*
X1532Y1137D01*
X1804Y1137D02*
X1811Y1137D01*
X1Y1136D02*
X8Y1136D01*
X1526Y1136D02*
X1532Y1136D01*
X1804Y1136D02*
X1811Y1136D01*
X1Y1135D02*
X8Y1135D01*
X1526Y1135D02*
X1532Y1135D01*
X1804Y1135D02*
X1811Y1135D01*
X1Y1134D02*
X8Y1134D01*
X1526Y1134D02*
X1532Y1134D01*
X1804Y1134D02*
X1811Y1134D01*
X1Y1133D02*
X8Y1133D01*
X1525Y1133D02*
X1532Y1133D01*
X1804Y1133D02*
X1811Y1133D01*
X1Y1132D02*
X8Y1132D01*
X1524Y1132D02*
X1532Y1132D01*
X1804Y1132D02*
X1811Y1132D01*
X1Y1131D02*
X8Y1131D01*
X1519Y1131D02*
X1531Y1131D01*
X1804Y1131D02*
X1811Y1131D01*
X1Y1130D02*
X8Y1130D01*
X1518Y1130D02*
X1531Y1130D01*
X1804Y1130D02*
X1811Y1130D01*
X1Y1129D02*
X8Y1129D01*
X1517Y1129D02*
X1530Y1129D01*
X1804Y1129D02*
X1811Y1129D01*
X1Y1128D02*
X8Y1128D01*
X1517Y1128D02*
X1529Y1128D01*
X1804Y1128D02*
X1811Y1128D01*
X1Y1127D02*
X8Y1127D01*
X1517Y1127D02*
X1528Y1127D01*
X1804Y1127D02*
X1811Y1127D01*
X1Y1126D02*
X8Y1126D01*
X1518Y1126D02*
X1527Y1126D01*
X1804Y1126D02*
X1811Y1126D01*
X1Y1125D02*
X8Y1125D01*
X1519Y1125D02*
X1525Y1125D01*
X1804Y1125D02*
X1811Y1125D01*
X1Y1124D02*
X8Y1124D01*
X1804Y1124D02*
X1811Y1124D01*
X1Y1123D02*
X8Y1123D01*
X1804Y1123D02*
X1811Y1123D01*
X1Y1122D02*
X8Y1122D01*
X1804Y1122D02*
X1811Y1122D01*
X1Y1121D02*
X8Y1121D01*
X1804Y1121D02*
X1811Y1121D01*
X1Y1120D02*
X8Y1120D01*
X1804Y1120D02*
X1811Y1120D01*
X1Y1119D02*
X8Y1119D01*
X1804Y1119D02*
X1811Y1119D01*
X1Y1118D02*
X8Y1118D01*
X1804Y1118D02*
X1811Y1118D01*
X1Y1117D02*
X8Y1117D01*
X1804Y1117D02*
X1811Y1117D01*
X1Y1116D02*
X8Y1116D01*
X1804Y1116D02*
X1811Y1116D01*
X1Y1115D02*
X8Y1115D01*
X1804Y1115D02*
X1811Y1115D01*
X1Y1114D02*
X8Y1114D01*
X1804Y1114D02*
X1811Y1114D01*
X1Y1113D02*
X8Y1113D01*
X1804Y1113D02*
X1811Y1113D01*
X1Y1112D02*
X8Y1112D01*
X1804Y1112D02*
X1811Y1112D01*
X1Y1111D02*
X8Y1111D01*
X1804Y1111D02*
X1811Y1111D01*
X1Y1110D02*
X8Y1110D01*
X1804Y1110D02*
X1811Y1110D01*
X1Y1109D02*
X8Y1109D01*
X1804Y1109D02*
X1811Y1109D01*
X1Y1108D02*
X8Y1108D01*
X1502Y1108D02*
X1523Y1108D01*
X1804Y1108D02*
X1811Y1108D01*
X1Y1107D02*
X8Y1107D01*
X1500Y1107D02*
X1525Y1107D01*
X1804Y1107D02*
X1811Y1107D01*
X1Y1106D02*
X8Y1106D01*
X1499Y1106D02*
X1526Y1106D01*
X1804Y1106D02*
X1811Y1106D01*
X1Y1105D02*
X8Y1105D01*
X1498Y1105D02*
X1527Y1105D01*
X1804Y1105D02*
X1811Y1105D01*
X1Y1104D02*
X8Y1104D01*
X1497Y1104D02*
X1528Y1104D01*
X1804Y1104D02*
X1811Y1104D01*
X1Y1103D02*
X8Y1103D01*
X1496Y1103D02*
X1529Y1103D01*
X1804Y1103D02*
X1811Y1103D01*
X1Y1102D02*
X8Y1102D01*
X1496Y1102D02*
X1530Y1102D01*
X1804Y1102D02*
X1811Y1102D01*
X1Y1101D02*
X8Y1101D01*
X1495Y1101D02*
X1503Y1101D01*
X1508Y1101D02*
X1514Y1101D01*
X1522Y1101D02*
X1531Y1101D01*
X1804Y1101D02*
X1811Y1101D01*
X1Y1100D02*
X8Y1100D01*
X1494Y1100D02*
X1502Y1100D01*
X1508Y1100D02*
X1514Y1100D01*
X1524Y1100D02*
X1531Y1100D01*
X1804Y1100D02*
X1811Y1100D01*
X1Y1099D02*
X8Y1099D01*
X1494Y1099D02*
X1501Y1099D01*
X1508Y1099D02*
X1514Y1099D01*
X1524Y1099D02*
X1532Y1099D01*
X1804Y1099D02*
X1811Y1099D01*
X1Y1098D02*
X8Y1098D01*
X1494Y1098D02*
X1500Y1098D01*
X1508Y1098D02*
X1514Y1098D01*
X1525Y1098D02*
X1532Y1098D01*
X1804Y1098D02*
X1811Y1098D01*
X1Y1097D02*
X8Y1097D01*
X1494Y1097D02*
X1500Y1097D01*
X1508Y1097D02*
X1514Y1097D01*
X1526Y1097D02*
X1532Y1097D01*
X1804Y1097D02*
X1811Y1097D01*
X1Y1096D02*
X8Y1096D01*
X1494Y1096D02*
X1500Y1096D01*
X1508Y1096D02*
X1514Y1096D01*
X1526Y1096D02*
X1532Y1096D01*
X1804Y1096D02*
X1811Y1096D01*
X1Y1095D02*
X8Y1095D01*
X1494Y1095D02*
X1500Y1095D01*
X1508Y1095D02*
X1514Y1095D01*
X1526Y1095D02*
X1532Y1095D01*
X1804Y1095D02*
X1811Y1095D01*
X1Y1094D02*
X8Y1094D01*
X1494Y1094D02*
X1500Y1094D01*
X1508Y1094D02*
X1514Y1094D01*
X1526Y1094D02*
X1532Y1094D01*
X1804Y1094D02*
X1811Y1094D01*
X1Y1093D02*
X8Y1093D01*
X1494Y1093D02*
X1500Y1093D01*
X1508Y1093D02*
X1514Y1093D01*
X1526Y1093D02*
X1532Y1093D01*
X1804Y1093D02*
X1811Y1093D01*
X1Y1092D02*
X8Y1092D01*
X1494Y1092D02*
X1500Y1092D01*
X1508Y1092D02*
X1514Y1092D01*
X1526Y1092D02*
X1532Y1092D01*
X1804Y1092D02*
X1811Y1092D01*
X1Y1091D02*
X8Y1091D01*
X1494Y1091D02*
X1500Y1091D01*
X1508Y1091D02*
X1514Y1091D01*
X1526Y1091D02*
X1532Y1091D01*
X1804Y1091D02*
X1811Y1091D01*
X1Y1090D02*
X8Y1090D01*
X1494Y1090D02*
X1500Y1090D01*
X1508Y1090D02*
X1514Y1090D01*
X1526Y1090D02*
X1532Y1090D01*
X1804Y1090D02*
X1811Y1090D01*
X1Y1089D02*
X8Y1089D01*
X1494Y1089D02*
X1500Y1089D01*
X1508Y1089D02*
X1514Y1089D01*
X1526Y1089D02*
X1532Y1089D01*
X1804Y1089D02*
X1811Y1089D01*
X1Y1088D02*
X8Y1088D01*
X1494Y1088D02*
X1500Y1088D01*
X1508Y1088D02*
X1514Y1088D01*
X1526Y1088D02*
X1532Y1088D01*
X1804Y1088D02*
X1811Y1088D01*
X1Y1087D02*
X8Y1087D01*
X1494Y1087D02*
X1500Y1087D01*
X1508Y1087D02*
X1514Y1087D01*
X1526Y1087D02*
X1532Y1087D01*
X1804Y1087D02*
X1811Y1087D01*
X1Y1086D02*
X8Y1086D01*
X1494Y1086D02*
X1500Y1086D01*
X1508Y1086D02*
X1514Y1086D01*
X1526Y1086D02*
X1532Y1086D01*
X1804Y1086D02*
X1811Y1086D01*
X1Y1085D02*
X8Y1085D01*
X1494Y1085D02*
X1500Y1085D01*
X1508Y1085D02*
X1514Y1085D01*
X1525Y1085D02*
X1532Y1085D01*
X1804Y1085D02*
X1811Y1085D01*
X1Y1084D02*
X8Y1084D01*
X1494Y1084D02*
X1500Y1084D01*
X1508Y1084D02*
X1514Y1084D01*
X1525Y1084D02*
X1532Y1084D01*
X1804Y1084D02*
X1811Y1084D01*
X1Y1083D02*
X8Y1083D01*
X1494Y1083D02*
X1500Y1083D01*
X1508Y1083D02*
X1514Y1083D01*
X1524Y1083D02*
X1531Y1083D01*
X1804Y1083D02*
X1811Y1083D01*
X1Y1082D02*
X8Y1082D01*
X1494Y1082D02*
X1500Y1082D01*
X1508Y1082D02*
X1514Y1082D01*
X1523Y1082D02*
X1531Y1082D01*
X1804Y1082D02*
X1811Y1082D01*
X1Y1081D02*
X8Y1081D01*
X1494Y1081D02*
X1500Y1081D01*
X1508Y1081D02*
X1530Y1081D01*
X1804Y1081D02*
X1811Y1081D01*
X1Y1080D02*
X8Y1080D01*
X1494Y1080D02*
X1500Y1080D01*
X1508Y1080D02*
X1529Y1080D01*
X1804Y1080D02*
X1811Y1080D01*
X1Y1079D02*
X8Y1079D01*
X1494Y1079D02*
X1500Y1079D01*
X1508Y1079D02*
X1528Y1079D01*
X1804Y1079D02*
X1811Y1079D01*
X1Y1078D02*
X8Y1078D01*
X1494Y1078D02*
X1500Y1078D01*
X1508Y1078D02*
X1528Y1078D01*
X1804Y1078D02*
X1811Y1078D01*
X1Y1077D02*
X8Y1077D01*
X1494Y1077D02*
X1499Y1077D01*
X1508Y1077D02*
X1527Y1077D01*
X1804Y1077D02*
X1811Y1077D01*
X1Y1076D02*
X8Y1076D01*
X1494Y1076D02*
X1499Y1076D01*
X1509Y1076D02*
X1525Y1076D01*
X1804Y1076D02*
X1811Y1076D01*
X1Y1075D02*
X8Y1075D01*
X1495Y1075D02*
X1498Y1075D01*
X1510Y1075D02*
X1524Y1075D01*
X1804Y1075D02*
X1811Y1075D01*
X1Y1074D02*
X8Y1074D01*
X1804Y1074D02*
X1811Y1074D01*
X1Y1073D02*
X8Y1073D01*
X1804Y1073D02*
X1811Y1073D01*
X1Y1072D02*
X8Y1072D01*
X1804Y1072D02*
X1811Y1072D01*
X1Y1071D02*
X8Y1071D01*
X1804Y1071D02*
X1811Y1071D01*
X1Y1070D02*
X8Y1070D01*
X1804Y1070D02*
X1811Y1070D01*
X1Y1069D02*
X8Y1069D01*
X1804Y1069D02*
X1811Y1069D01*
X1Y1068D02*
X8Y1068D01*
X1804Y1068D02*
X1811Y1068D01*
X1Y1067D02*
X8Y1067D01*
X1804Y1067D02*
X1811Y1067D01*
X1Y1066D02*
X8Y1066D01*
X1804Y1066D02*
X1811Y1066D01*
X1Y1065D02*
X8Y1065D01*
X1804Y1065D02*
X1811Y1065D01*
X1Y1064D02*
X8Y1064D01*
X1804Y1064D02*
X1811Y1064D01*
X1Y1063D02*
X8Y1063D01*
X1804Y1063D02*
X1811Y1063D01*
X1Y1062D02*
X8Y1062D01*
X1804Y1062D02*
X1811Y1062D01*
X1Y1061D02*
X8Y1061D01*
X1804Y1061D02*
X1811Y1061D01*
X1Y1060D02*
X8Y1060D01*
X1804Y1060D02*
X1811Y1060D01*
X1Y1059D02*
X8Y1059D01*
X1804Y1059D02*
X1811Y1059D01*
X1Y1058D02*
X8Y1058D01*
X1501Y1058D02*
X1510Y1058D01*
X1804Y1058D02*
X1811Y1058D01*
X1Y1057D02*
X8Y1057D01*
X1499Y1057D02*
X1512Y1057D01*
X1804Y1057D02*
X1811Y1057D01*
X1Y1056D02*
X8Y1056D01*
X1497Y1056D02*
X1514Y1056D01*
X1804Y1056D02*
X1811Y1056D01*
X1Y1055D02*
X8Y1055D01*
X1496Y1055D02*
X1515Y1055D01*
X1804Y1055D02*
X1811Y1055D01*
X1Y1054D02*
X8Y1054D01*
X1495Y1054D02*
X1515Y1054D01*
X1804Y1054D02*
X1811Y1054D01*
X1Y1053D02*
X8Y1053D01*
X1495Y1053D02*
X1516Y1053D01*
X1804Y1053D02*
X1811Y1053D01*
X1Y1052D02*
X8Y1052D01*
X1494Y1052D02*
X1517Y1052D01*
X1804Y1052D02*
X1811Y1052D01*
X1Y1051D02*
X8Y1051D01*
X1494Y1051D02*
X1501Y1051D01*
X1510Y1051D02*
X1517Y1051D01*
X1528Y1051D02*
X1530Y1051D01*
X1804Y1051D02*
X1811Y1051D01*
X1Y1050D02*
X8Y1050D01*
X1494Y1050D02*
X1500Y1050D01*
X1511Y1050D02*
X1517Y1050D01*
X1527Y1050D02*
X1531Y1050D01*
X1804Y1050D02*
X1811Y1050D01*
X1Y1049D02*
X8Y1049D01*
X1494Y1049D02*
X1500Y1049D01*
X1511Y1049D02*
X1517Y1049D01*
X1526Y1049D02*
X1532Y1049D01*
X1804Y1049D02*
X1811Y1049D01*
X1Y1048D02*
X8Y1048D01*
X1494Y1048D02*
X1500Y1048D01*
X1511Y1048D02*
X1517Y1048D01*
X1526Y1048D02*
X1532Y1048D01*
X1804Y1048D02*
X1811Y1048D01*
X1Y1047D02*
X8Y1047D01*
X1494Y1047D02*
X1500Y1047D01*
X1511Y1047D02*
X1517Y1047D01*
X1526Y1047D02*
X1532Y1047D01*
X1804Y1047D02*
X1811Y1047D01*
X1Y1046D02*
X8Y1046D01*
X1494Y1046D02*
X1500Y1046D01*
X1511Y1046D02*
X1517Y1046D01*
X1526Y1046D02*
X1532Y1046D01*
X1804Y1046D02*
X1811Y1046D01*
X1Y1045D02*
X8Y1045D01*
X1494Y1045D02*
X1500Y1045D01*
X1511Y1045D02*
X1517Y1045D01*
X1526Y1045D02*
X1532Y1045D01*
X1804Y1045D02*
X1811Y1045D01*
X1Y1044D02*
X8Y1044D01*
X1494Y1044D02*
X1500Y1044D01*
X1511Y1044D02*
X1517Y1044D01*
X1526Y1044D02*
X1532Y1044D01*
X1804Y1044D02*
X1811Y1044D01*
X1Y1043D02*
X8Y1043D01*
X1494Y1043D02*
X1500Y1043D01*
X1511Y1043D02*
X1517Y1043D01*
X1526Y1043D02*
X1532Y1043D01*
X1804Y1043D02*
X1811Y1043D01*
X1Y1042D02*
X8Y1042D01*
X1494Y1042D02*
X1500Y1042D01*
X1511Y1042D02*
X1517Y1042D01*
X1526Y1042D02*
X1532Y1042D01*
X1804Y1042D02*
X1811Y1042D01*
X1Y1041D02*
X8Y1041D01*
X1494Y1041D02*
X1500Y1041D01*
X1511Y1041D02*
X1517Y1041D01*
X1526Y1041D02*
X1532Y1041D01*
X1804Y1041D02*
X1811Y1041D01*
X1Y1040D02*
X8Y1040D01*
X1494Y1040D02*
X1500Y1040D01*
X1511Y1040D02*
X1517Y1040D01*
X1526Y1040D02*
X1532Y1040D01*
X1804Y1040D02*
X1811Y1040D01*
X1Y1039D02*
X8Y1039D01*
X1494Y1039D02*
X1500Y1039D01*
X1511Y1039D02*
X1517Y1039D01*
X1526Y1039D02*
X1532Y1039D01*
X1804Y1039D02*
X1811Y1039D01*
X1Y1038D02*
X8Y1038D01*
X1494Y1038D02*
X1500Y1038D01*
X1511Y1038D02*
X1517Y1038D01*
X1526Y1038D02*
X1532Y1038D01*
X1804Y1038D02*
X1811Y1038D01*
X1Y1037D02*
X8Y1037D01*
X1494Y1037D02*
X1501Y1037D01*
X1511Y1037D02*
X1517Y1037D01*
X1526Y1037D02*
X1532Y1037D01*
X1804Y1037D02*
X1811Y1037D01*
X1Y1036D02*
X8Y1036D01*
X1494Y1036D02*
X1501Y1036D01*
X1511Y1036D02*
X1517Y1036D01*
X1526Y1036D02*
X1532Y1036D01*
X1804Y1036D02*
X1811Y1036D01*
X1Y1035D02*
X8Y1035D01*
X1495Y1035D02*
X1502Y1035D01*
X1511Y1035D02*
X1517Y1035D01*
X1526Y1035D02*
X1532Y1035D01*
X1804Y1035D02*
X1811Y1035D01*
X1Y1034D02*
X8Y1034D01*
X1495Y1034D02*
X1502Y1034D01*
X1511Y1034D02*
X1517Y1034D01*
X1526Y1034D02*
X1532Y1034D01*
X1804Y1034D02*
X1811Y1034D01*
X1Y1033D02*
X8Y1033D01*
X1496Y1033D02*
X1503Y1033D01*
X1511Y1033D02*
X1517Y1033D01*
X1525Y1033D02*
X1532Y1033D01*
X1804Y1033D02*
X1811Y1033D01*
X1Y1032D02*
X8Y1032D01*
X1496Y1032D02*
X1504Y1032D01*
X1510Y1032D02*
X1517Y1032D01*
X1523Y1032D02*
X1531Y1032D01*
X1804Y1032D02*
X1811Y1032D01*
X1Y1031D02*
X8Y1031D01*
X1497Y1031D02*
X1531Y1031D01*
X1804Y1031D02*
X1811Y1031D01*
X1Y1030D02*
X8Y1030D01*
X1495Y1030D02*
X1531Y1030D01*
X1804Y1030D02*
X1811Y1030D01*
X1Y1029D02*
X8Y1029D01*
X1494Y1029D02*
X1530Y1029D01*
X1804Y1029D02*
X1811Y1029D01*
X1Y1028D02*
X8Y1028D01*
X1494Y1028D02*
X1529Y1028D01*
X1804Y1028D02*
X1811Y1028D01*
X1Y1027D02*
X8Y1027D01*
X1494Y1027D02*
X1528Y1027D01*
X1804Y1027D02*
X1811Y1027D01*
X1Y1026D02*
X8Y1026D01*
X1494Y1026D02*
X1526Y1026D01*
X1804Y1026D02*
X1811Y1026D01*
X1Y1025D02*
X8Y1025D01*
X1495Y1025D02*
X1523Y1025D01*
X1804Y1025D02*
X1811Y1025D01*
X1Y1024D02*
X8Y1024D01*
X1497Y1024D02*
X1498Y1024D01*
X1804Y1024D02*
X1811Y1024D01*
X1Y1023D02*
X8Y1023D01*
X1804Y1023D02*
X1811Y1023D01*
X1Y1022D02*
X8Y1022D01*
X1804Y1022D02*
X1811Y1022D01*
X1Y1021D02*
X8Y1021D01*
X1804Y1021D02*
X1811Y1021D01*
X1Y1020D02*
X8Y1020D01*
X1804Y1020D02*
X1811Y1020D01*
X1Y1019D02*
X8Y1019D01*
X1804Y1019D02*
X1811Y1019D01*
X1Y1018D02*
X8Y1018D01*
X1804Y1018D02*
X1811Y1018D01*
X1Y1017D02*
X8Y1017D01*
X1804Y1017D02*
X1811Y1017D01*
X1Y1016D02*
X8Y1016D01*
X1804Y1016D02*
X1811Y1016D01*
X1Y1015D02*
X8Y1015D01*
X1804Y1015D02*
X1811Y1015D01*
X1Y1014D02*
X8Y1014D01*
X1804Y1014D02*
X1811Y1014D01*
X1Y1013D02*
X8Y1013D01*
X1804Y1013D02*
X1811Y1013D01*
X1Y1012D02*
X8Y1012D01*
X1804Y1012D02*
X1811Y1012D01*
X1Y1011D02*
X8Y1011D01*
X1804Y1011D02*
X1811Y1011D01*
X1Y1010D02*
X8Y1010D01*
X1804Y1010D02*
X1811Y1010D01*
X1Y1009D02*
X8Y1009D01*
X1804Y1009D02*
X1811Y1009D01*
X1Y1008D02*
X8Y1008D01*
X1496Y1008D02*
X1545Y1008D01*
X1804Y1008D02*
X1811Y1008D01*
X1Y1007D02*
X8Y1007D01*
X1494Y1007D02*
X1546Y1007D01*
X1804Y1007D02*
X1811Y1007D01*
X1Y1006D02*
X8Y1006D01*
X1494Y1006D02*
X1546Y1006D01*
X1804Y1006D02*
X1811Y1006D01*
X1Y1005D02*
X8Y1005D01*
X1494Y1005D02*
X1547Y1005D01*
X1804Y1005D02*
X1811Y1005D01*
X1Y1004D02*
X8Y1004D01*
X1494Y1004D02*
X1547Y1004D01*
X1804Y1004D02*
X1811Y1004D01*
X1Y1003D02*
X8Y1003D01*
X1494Y1003D02*
X1546Y1003D01*
X1804Y1003D02*
X1811Y1003D01*
X1Y1002D02*
X8Y1002D01*
X1495Y1002D02*
X1545Y1002D01*
X1804Y1002D02*
X1811Y1002D01*
X1Y1001D02*
X8Y1001D01*
X1507Y1001D02*
X1516Y1001D01*
X1804Y1001D02*
X1811Y1001D01*
X1Y1000D02*
X8Y1000D01*
X1508Y1000D02*
X1517Y1000D01*
X1804Y1000D02*
X1811Y1000D01*
X1Y999D02*
X8Y999D01*
X1509Y999D02*
X1518Y999D01*
X1804Y999D02*
X1811Y999D01*
X1Y998D02*
X8Y998D01*
X1510Y998D02*
X1518Y998D01*
X1804Y998D02*
X1811Y998D01*
X1Y997D02*
X8Y997D01*
X1509Y997D02*
X1519Y997D01*
X1804Y997D02*
X1811Y997D01*
X1Y996D02*
X8Y996D01*
X1508Y996D02*
X1520Y996D01*
X1804Y996D02*
X1811Y996D01*
X1Y995D02*
X8Y995D01*
X1508Y995D02*
X1521Y995D01*
X1804Y995D02*
X1811Y995D01*
X1Y994D02*
X8Y994D01*
X1507Y994D02*
X1522Y994D01*
X1804Y994D02*
X1811Y994D01*
X1Y993D02*
X8Y993D01*
X1506Y993D02*
X1523Y993D01*
X1804Y993D02*
X1811Y993D01*
X1Y992D02*
X8Y992D01*
X1505Y992D02*
X1513Y992D01*
X1515Y992D02*
X1523Y992D01*
X1804Y992D02*
X1811Y992D01*
X1Y991D02*
X8Y991D01*
X1504Y991D02*
X1512Y991D01*
X1516Y991D02*
X1524Y991D01*
X1804Y991D02*
X1811Y991D01*
X1Y990D02*
X8Y990D01*
X1503Y990D02*
X1512Y990D01*
X1517Y990D02*
X1525Y990D01*
X1804Y990D02*
X1811Y990D01*
X1Y989D02*
X8Y989D01*
X1503Y989D02*
X1511Y989D01*
X1518Y989D02*
X1526Y989D01*
X1804Y989D02*
X1811Y989D01*
X1Y988D02*
X8Y988D01*
X1502Y988D02*
X1510Y988D01*
X1519Y988D02*
X1527Y988D01*
X1804Y988D02*
X1811Y988D01*
X1Y987D02*
X8Y987D01*
X1501Y987D02*
X1509Y987D01*
X1519Y987D02*
X1528Y987D01*
X1804Y987D02*
X1811Y987D01*
X1Y986D02*
X8Y986D01*
X1500Y986D02*
X1508Y986D01*
X1520Y986D02*
X1529Y986D01*
X1804Y986D02*
X1811Y986D01*
X1Y985D02*
X8Y985D01*
X1499Y985D02*
X1507Y985D01*
X1521Y985D02*
X1529Y985D01*
X1804Y985D02*
X1811Y985D01*
X1Y984D02*
X8Y984D01*
X1498Y984D02*
X1506Y984D01*
X1522Y984D02*
X1530Y984D01*
X1804Y984D02*
X1811Y984D01*
X1Y983D02*
X8Y983D01*
X1497Y983D02*
X1506Y983D01*
X1523Y983D02*
X1531Y983D01*
X1804Y983D02*
X1811Y983D01*
X1Y982D02*
X8Y982D01*
X1497Y982D02*
X1505Y982D01*
X1524Y982D02*
X1532Y982D01*
X1804Y982D02*
X1811Y982D01*
X1Y981D02*
X8Y981D01*
X1496Y981D02*
X1504Y981D01*
X1525Y981D02*
X1532Y981D01*
X1804Y981D02*
X1811Y981D01*
X1Y980D02*
X8Y980D01*
X1495Y980D02*
X1503Y980D01*
X1525Y980D02*
X1532Y980D01*
X1804Y980D02*
X1811Y980D01*
X1Y979D02*
X8Y979D01*
X1494Y979D02*
X1502Y979D01*
X1526Y979D02*
X1531Y979D01*
X1804Y979D02*
X1811Y979D01*
X1Y978D02*
X8Y978D01*
X1494Y978D02*
X1501Y978D01*
X1527Y978D02*
X1531Y978D01*
X1804Y978D02*
X1811Y978D01*
X1Y977D02*
X8Y977D01*
X1494Y977D02*
X1500Y977D01*
X1804Y977D02*
X1811Y977D01*
X1Y976D02*
X8Y976D01*
X1494Y976D02*
X1500Y976D01*
X1804Y976D02*
X1811Y976D01*
X1Y975D02*
X8Y975D01*
X1494Y975D02*
X1499Y975D01*
X1804Y975D02*
X1811Y975D01*
X1Y974D02*
X8Y974D01*
X1496Y974D02*
X1497Y974D01*
X1804Y974D02*
X1811Y974D01*
X1Y973D02*
X8Y973D01*
X1804Y973D02*
X1811Y973D01*
X1Y972D02*
X8Y972D01*
X1804Y972D02*
X1811Y972D01*
X1Y971D02*
X8Y971D01*
X1804Y971D02*
X1811Y971D01*
X1Y970D02*
X8Y970D01*
X1804Y970D02*
X1811Y970D01*
X1Y969D02*
X8Y969D01*
X1804Y969D02*
X1811Y969D01*
X1Y968D02*
X8Y968D01*
X1804Y968D02*
X1811Y968D01*
X1Y967D02*
X8Y967D01*
X1804Y967D02*
X1811Y967D01*
X1Y966D02*
X8Y966D01*
X1804Y966D02*
X1811Y966D01*
X1Y965D02*
X8Y965D01*
X1804Y965D02*
X1811Y965D01*
X1Y964D02*
X8Y964D01*
X1804Y964D02*
X1811Y964D01*
X1Y963D02*
X8Y963D01*
X1751Y963D02*
X1752Y963D01*
X1804Y963D02*
X1811Y963D01*
X1Y962D02*
X8Y962D01*
X1750Y962D02*
X1753Y962D01*
X1804Y962D02*
X1811Y962D01*
X1Y961D02*
X8Y961D01*
X1749Y961D02*
X1754Y961D01*
X1804Y961D02*
X1811Y961D01*
X1Y960D02*
X8Y960D01*
X1748Y960D02*
X1754Y960D01*
X1804Y960D02*
X1811Y960D01*
X1Y959D02*
X8Y959D01*
X1747Y959D02*
X1753Y959D01*
X1804Y959D02*
X1811Y959D01*
X1Y958D02*
X8Y958D01*
X1505Y958D02*
X1520Y958D01*
X1746Y958D02*
X1752Y958D01*
X1804Y958D02*
X1811Y958D01*
X1Y957D02*
X8Y957D01*
X1501Y957D02*
X1524Y957D01*
X1745Y957D02*
X1751Y957D01*
X1804Y957D02*
X1811Y957D01*
X1Y956D02*
X8Y956D01*
X1500Y956D02*
X1526Y956D01*
X1744Y956D02*
X1750Y956D01*
X1804Y956D02*
X1811Y956D01*
X1Y955D02*
X8Y955D01*
X1499Y955D02*
X1527Y955D01*
X1743Y955D02*
X1749Y955D01*
X1804Y955D02*
X1811Y955D01*
X1Y954D02*
X8Y954D01*
X1498Y954D02*
X1528Y954D01*
X1742Y954D02*
X1748Y954D01*
X1804Y954D02*
X1811Y954D01*
X1Y953D02*
X8Y953D01*
X1497Y953D02*
X1529Y953D01*
X1741Y953D02*
X1747Y953D01*
X1804Y953D02*
X1811Y953D01*
X1Y952D02*
X8Y952D01*
X1496Y952D02*
X1529Y952D01*
X1740Y952D02*
X1746Y952D01*
X1804Y952D02*
X1811Y952D01*
X1Y951D02*
X8Y951D01*
X1495Y951D02*
X1505Y951D01*
X1521Y951D02*
X1530Y951D01*
X1739Y951D02*
X1745Y951D01*
X1804Y951D02*
X1811Y951D01*
X1Y950D02*
X8Y950D01*
X1495Y950D02*
X1503Y950D01*
X1523Y950D02*
X1531Y950D01*
X1738Y950D02*
X1744Y950D01*
X1804Y950D02*
X1811Y950D01*
X1Y949D02*
X8Y949D01*
X1494Y949D02*
X1502Y949D01*
X1524Y949D02*
X1531Y949D01*
X1737Y949D02*
X1743Y949D01*
X1804Y949D02*
X1811Y949D01*
X1Y948D02*
X8Y948D01*
X1494Y948D02*
X1501Y948D01*
X1525Y948D02*
X1532Y948D01*
X1737Y948D02*
X1742Y948D01*
X1804Y948D02*
X1811Y948D01*
X1Y947D02*
X8Y947D01*
X1494Y947D02*
X1500Y947D01*
X1525Y947D02*
X1532Y947D01*
X1736Y947D02*
X1741Y947D01*
X1804Y947D02*
X1811Y947D01*
X1Y946D02*
X8Y946D01*
X1494Y946D02*
X1500Y946D01*
X1526Y946D02*
X1532Y946D01*
X1735Y946D02*
X1740Y946D01*
X1804Y946D02*
X1811Y946D01*
X1Y945D02*
X8Y945D01*
X1494Y945D02*
X1500Y945D01*
X1526Y945D02*
X1532Y945D01*
X1734Y945D02*
X1739Y945D01*
X1804Y945D02*
X1811Y945D01*
X1Y944D02*
X8Y944D01*
X1494Y944D02*
X1500Y944D01*
X1526Y944D02*
X1532Y944D01*
X1733Y944D02*
X1738Y944D01*
X1804Y944D02*
X1811Y944D01*
X1Y943D02*
X8Y943D01*
X1494Y943D02*
X1500Y943D01*
X1526Y943D02*
X1532Y943D01*
X1731Y943D02*
X1737Y943D01*
X1804Y943D02*
X1811Y943D01*
X1Y942D02*
X8Y942D01*
X1494Y942D02*
X1500Y942D01*
X1526Y942D02*
X1532Y942D01*
X1730Y942D02*
X1736Y942D01*
X1804Y942D02*
X1811Y942D01*
X1Y941D02*
X8Y941D01*
X1494Y941D02*
X1500Y941D01*
X1526Y941D02*
X1532Y941D01*
X1729Y941D02*
X1735Y941D01*
X1804Y941D02*
X1811Y941D01*
X1Y940D02*
X8Y940D01*
X1494Y940D02*
X1500Y940D01*
X1526Y940D02*
X1532Y940D01*
X1728Y940D02*
X1734Y940D01*
X1804Y940D02*
X1811Y940D01*
X1Y939D02*
X8Y939D01*
X1494Y939D02*
X1500Y939D01*
X1526Y939D02*
X1532Y939D01*
X1727Y939D02*
X1733Y939D01*
X1804Y939D02*
X1811Y939D01*
X1Y938D02*
X8Y938D01*
X1494Y938D02*
X1500Y938D01*
X1526Y938D02*
X1532Y938D01*
X1726Y938D02*
X1732Y938D01*
X1804Y938D02*
X1811Y938D01*
X1Y937D02*
X8Y937D01*
X1494Y937D02*
X1500Y937D01*
X1526Y937D02*
X1532Y937D01*
X1725Y937D02*
X1731Y937D01*
X1804Y937D02*
X1811Y937D01*
X1Y936D02*
X8Y936D01*
X1494Y936D02*
X1500Y936D01*
X1526Y936D02*
X1532Y936D01*
X1724Y936D02*
X1730Y936D01*
X1804Y936D02*
X1811Y936D01*
X1Y935D02*
X8Y935D01*
X1494Y935D02*
X1500Y935D01*
X1526Y935D02*
X1532Y935D01*
X1723Y935D02*
X1729Y935D01*
X1804Y935D02*
X1811Y935D01*
X1Y934D02*
X8Y934D01*
X1494Y934D02*
X1501Y934D01*
X1525Y934D02*
X1532Y934D01*
X1722Y934D02*
X1728Y934D01*
X1804Y934D02*
X1811Y934D01*
X1Y933D02*
X8Y933D01*
X1494Y933D02*
X1501Y933D01*
X1524Y933D02*
X1531Y933D01*
X1721Y933D02*
X1727Y933D01*
X1804Y933D02*
X1811Y933D01*
X1Y932D02*
X8Y932D01*
X1495Y932D02*
X1502Y932D01*
X1523Y932D02*
X1531Y932D01*
X1720Y932D02*
X1726Y932D01*
X1804Y932D02*
X1811Y932D01*
X1Y931D02*
X8Y931D01*
X1495Y931D02*
X1504Y931D01*
X1522Y931D02*
X1530Y931D01*
X1719Y931D02*
X1725Y931D01*
X1804Y931D02*
X1811Y931D01*
X1Y930D02*
X8Y930D01*
X1496Y930D02*
X1530Y930D01*
X1718Y930D02*
X1724Y930D01*
X1804Y930D02*
X1811Y930D01*
X1Y929D02*
X8Y929D01*
X1497Y929D02*
X1529Y929D01*
X1717Y929D02*
X1723Y929D01*
X1804Y929D02*
X1811Y929D01*
X1Y928D02*
X8Y928D01*
X1498Y928D02*
X1528Y928D01*
X1718Y928D02*
X1722Y928D01*
X1804Y928D02*
X1811Y928D01*
X1Y927D02*
X8Y927D01*
X1499Y927D02*
X1527Y927D01*
X1719Y927D02*
X1721Y927D01*
X1804Y927D02*
X1811Y927D01*
X1Y926D02*
X8Y926D01*
X1500Y926D02*
X1526Y926D01*
X1720Y926D02*
X1720Y926D01*
X1804Y926D02*
X1811Y926D01*
X1Y925D02*
X8Y925D01*
X1501Y925D02*
X1525Y925D01*
X1804Y925D02*
X1811Y925D01*
X1Y924D02*
X8Y924D01*
X1503Y924D02*
X1523Y924D01*
X1804Y924D02*
X1811Y924D01*
X1Y923D02*
X8Y923D01*
X1804Y923D02*
X1811Y923D01*
X1Y922D02*
X8Y922D01*
X1804Y922D02*
X1811Y922D01*
X1Y921D02*
X8Y921D01*
X1804Y921D02*
X1811Y921D01*
X1Y920D02*
X8Y920D01*
X1804Y920D02*
X1811Y920D01*
X1Y919D02*
X8Y919D01*
X1804Y919D02*
X1811Y919D01*
X1Y918D02*
X8Y918D01*
X1804Y918D02*
X1811Y918D01*
X1Y917D02*
X8Y917D01*
X1804Y917D02*
X1811Y917D01*
X1Y916D02*
X8Y916D01*
X1804Y916D02*
X1811Y916D01*
X1Y915D02*
X8Y915D01*
X1804Y915D02*
X1811Y915D01*
X1Y914D02*
X8Y914D01*
X1804Y914D02*
X1811Y914D01*
X1Y913D02*
X8Y913D01*
X1804Y913D02*
X1811Y913D01*
X1Y912D02*
X8Y912D01*
X1804Y912D02*
X1811Y912D01*
X1Y911D02*
X8Y911D01*
X1804Y911D02*
X1811Y911D01*
X1Y910D02*
X8Y910D01*
X1804Y910D02*
X1811Y910D01*
X1Y909D02*
X8Y909D01*
X1804Y909D02*
X1811Y909D01*
X1Y908D02*
X8Y908D01*
X1804Y908D02*
X1811Y908D01*
X1Y907D02*
X8Y907D01*
X1503Y907D02*
X1531Y907D01*
X1804Y907D02*
X1811Y907D01*
X1Y906D02*
X8Y906D01*
X1499Y906D02*
X1532Y906D01*
X1804Y906D02*
X1811Y906D01*
X1Y905D02*
X8Y905D01*
X1498Y905D02*
X1532Y905D01*
X1804Y905D02*
X1811Y905D01*
X1Y904D02*
X8Y904D01*
X1497Y904D02*
X1532Y904D01*
X1804Y904D02*
X1811Y904D01*
X1Y903D02*
X8Y903D01*
X1496Y903D02*
X1532Y903D01*
X1804Y903D02*
X1811Y903D01*
X1Y902D02*
X8Y902D01*
X1495Y902D02*
X1531Y902D01*
X1804Y902D02*
X1811Y902D01*
X1Y901D02*
X8Y901D01*
X1495Y901D02*
X1529Y901D01*
X1804Y901D02*
X1811Y901D01*
X1Y900D02*
X8Y900D01*
X1494Y900D02*
X1503Y900D01*
X1804Y900D02*
X1811Y900D01*
X1Y899D02*
X8Y899D01*
X1494Y899D02*
X1501Y899D01*
X1804Y899D02*
X1811Y899D01*
X1Y898D02*
X8Y898D01*
X1494Y898D02*
X1500Y898D01*
X1804Y898D02*
X1811Y898D01*
X1Y897D02*
X8Y897D01*
X1494Y897D02*
X1500Y897D01*
X1804Y897D02*
X1811Y897D01*
X1Y896D02*
X8Y896D01*
X1494Y896D02*
X1500Y896D01*
X1804Y896D02*
X1811Y896D01*
X1Y895D02*
X8Y895D01*
X1494Y895D02*
X1500Y895D01*
X1804Y895D02*
X1811Y895D01*
X1Y894D02*
X8Y894D01*
X1494Y894D02*
X1500Y894D01*
X1804Y894D02*
X1811Y894D01*
X1Y893D02*
X8Y893D01*
X1494Y893D02*
X1500Y893D01*
X1804Y893D02*
X1811Y893D01*
X1Y892D02*
X8Y892D01*
X1494Y892D02*
X1500Y892D01*
X1804Y892D02*
X1811Y892D01*
X1Y891D02*
X8Y891D01*
X1494Y891D02*
X1500Y891D01*
X1804Y891D02*
X1811Y891D01*
X1Y890D02*
X8Y890D01*
X1494Y890D02*
X1501Y890D01*
X1804Y890D02*
X1811Y890D01*
X1Y889D02*
X8Y889D01*
X1494Y889D02*
X1501Y889D01*
X1804Y889D02*
X1811Y889D01*
X1Y888D02*
X8Y888D01*
X1495Y888D02*
X1502Y888D01*
X1804Y888D02*
X1811Y888D01*
X1Y887D02*
X8Y887D01*
X1495Y887D02*
X1503Y887D01*
X1804Y887D02*
X1811Y887D01*
X1Y886D02*
X8Y886D01*
X1496Y886D02*
X1503Y886D01*
X1804Y886D02*
X1811Y886D01*
X1Y885D02*
X8Y885D01*
X1497Y885D02*
X1504Y885D01*
X1804Y885D02*
X1811Y885D01*
X1Y884D02*
X8Y884D01*
X1497Y884D02*
X1504Y884D01*
X1804Y884D02*
X1811Y884D01*
X1Y883D02*
X8Y883D01*
X1498Y883D02*
X1505Y883D01*
X1804Y883D02*
X1811Y883D01*
X1Y882D02*
X8Y882D01*
X1498Y882D02*
X1506Y882D01*
X1804Y882D02*
X1811Y882D01*
X1Y881D02*
X8Y881D01*
X1499Y881D02*
X1506Y881D01*
X1804Y881D02*
X1811Y881D01*
X1Y880D02*
X8Y880D01*
X1496Y880D02*
X1530Y880D01*
X1804Y880D02*
X1811Y880D01*
X1Y879D02*
X8Y879D01*
X1494Y879D02*
X1531Y879D01*
X1804Y879D02*
X1811Y879D01*
X1Y878D02*
X8Y878D01*
X1494Y878D02*
X1532Y878D01*
X1804Y878D02*
X1811Y878D01*
X1Y877D02*
X8Y877D01*
X1494Y877D02*
X1532Y877D01*
X1804Y877D02*
X1811Y877D01*
X1Y876D02*
X8Y876D01*
X1494Y876D02*
X1532Y876D01*
X1804Y876D02*
X1811Y876D01*
X1Y875D02*
X8Y875D01*
X1494Y875D02*
X1531Y875D01*
X1804Y875D02*
X1811Y875D01*
X1Y874D02*
X8Y874D01*
X1495Y874D02*
X1530Y874D01*
X1804Y874D02*
X1811Y874D01*
X1Y873D02*
X8Y873D01*
X1804Y873D02*
X1811Y873D01*
X1Y872D02*
X8Y872D01*
X1804Y872D02*
X1811Y872D01*
X1Y871D02*
X8Y871D01*
X1804Y871D02*
X1811Y871D01*
X1Y870D02*
X8Y870D01*
X1804Y870D02*
X1811Y870D01*
X1Y869D02*
X8Y869D01*
X1804Y869D02*
X1811Y869D01*
X1Y868D02*
X8Y868D01*
X1804Y868D02*
X1811Y868D01*
X1Y867D02*
X8Y867D01*
X1804Y867D02*
X1811Y867D01*
X1Y866D02*
X8Y866D01*
X1804Y866D02*
X1811Y866D01*
X1Y865D02*
X8Y865D01*
X1804Y865D02*
X1811Y865D01*
X1Y864D02*
X8Y864D01*
X1804Y864D02*
X1811Y864D01*
X1Y863D02*
X8Y863D01*
X1804Y863D02*
X1811Y863D01*
X1Y862D02*
X8Y862D01*
X1804Y862D02*
X1811Y862D01*
X1Y861D02*
X8Y861D01*
X1804Y861D02*
X1811Y861D01*
X1Y860D02*
X8Y860D01*
X1804Y860D02*
X1811Y860D01*
X1Y859D02*
X8Y859D01*
X1804Y859D02*
X1811Y859D01*
X1Y858D02*
X8Y858D01*
X1804Y858D02*
X1811Y858D01*
X1Y857D02*
X8Y857D01*
X1527Y857D02*
X1531Y857D01*
X1804Y857D02*
X1811Y857D01*
X1Y856D02*
X8Y856D01*
X1527Y856D02*
X1531Y856D01*
X1804Y856D02*
X1811Y856D01*
X1Y855D02*
X8Y855D01*
X1526Y855D02*
X1532Y855D01*
X1804Y855D02*
X1811Y855D01*
X1Y854D02*
X8Y854D01*
X1526Y854D02*
X1532Y854D01*
X1804Y854D02*
X1811Y854D01*
X1Y853D02*
X8Y853D01*
X1526Y853D02*
X1532Y853D01*
X1804Y853D02*
X1811Y853D01*
X1Y852D02*
X8Y852D01*
X1526Y852D02*
X1532Y852D01*
X1804Y852D02*
X1811Y852D01*
X1Y851D02*
X8Y851D01*
X1526Y851D02*
X1532Y851D01*
X1804Y851D02*
X1811Y851D01*
X1Y850D02*
X8Y850D01*
X1500Y850D02*
X1542Y850D01*
X1804Y850D02*
X1811Y850D01*
X1Y849D02*
X8Y849D01*
X1498Y849D02*
X1543Y849D01*
X1804Y849D02*
X1811Y849D01*
X1Y848D02*
X8Y848D01*
X1497Y848D02*
X1544Y848D01*
X1804Y848D02*
X1811Y848D01*
X1Y847D02*
X8Y847D01*
X1496Y847D02*
X1544Y847D01*
X1804Y847D02*
X1811Y847D01*
X1Y846D02*
X8Y846D01*
X1495Y846D02*
X1543Y846D01*
X1804Y846D02*
X1811Y846D01*
X1Y845D02*
X8Y845D01*
X1495Y845D02*
X1543Y845D01*
X1804Y845D02*
X1811Y845D01*
X1Y844D02*
X8Y844D01*
X1494Y844D02*
X1541Y844D01*
X1804Y844D02*
X1811Y844D01*
X1Y843D02*
X8Y843D01*
X1494Y843D02*
X1501Y843D01*
X1526Y843D02*
X1532Y843D01*
X1804Y843D02*
X1811Y843D01*
X1Y842D02*
X8Y842D01*
X1494Y842D02*
X1500Y842D01*
X1526Y842D02*
X1532Y842D01*
X1804Y842D02*
X1811Y842D01*
X1Y841D02*
X8Y841D01*
X1494Y841D02*
X1500Y841D01*
X1526Y841D02*
X1532Y841D01*
X1804Y841D02*
X1811Y841D01*
X1Y840D02*
X8Y840D01*
X1494Y840D02*
X1500Y840D01*
X1526Y840D02*
X1532Y840D01*
X1804Y840D02*
X1811Y840D01*
X1Y839D02*
X8Y839D01*
X1494Y839D02*
X1500Y839D01*
X1526Y839D02*
X1532Y839D01*
X1804Y839D02*
X1811Y839D01*
X1Y838D02*
X8Y838D01*
X1494Y838D02*
X1500Y838D01*
X1526Y838D02*
X1532Y838D01*
X1804Y838D02*
X1811Y838D01*
X1Y837D02*
X8Y837D01*
X1494Y837D02*
X1500Y837D01*
X1526Y837D02*
X1532Y837D01*
X1804Y837D02*
X1811Y837D01*
X1Y836D02*
X8Y836D01*
X1494Y836D02*
X1500Y836D01*
X1526Y836D02*
X1532Y836D01*
X1804Y836D02*
X1811Y836D01*
X1Y835D02*
X8Y835D01*
X1494Y835D02*
X1500Y835D01*
X1526Y835D02*
X1532Y835D01*
X1804Y835D02*
X1811Y835D01*
X1Y834D02*
X8Y834D01*
X1494Y834D02*
X1500Y834D01*
X1526Y834D02*
X1532Y834D01*
X1804Y834D02*
X1811Y834D01*
X1Y833D02*
X8Y833D01*
X1494Y833D02*
X1500Y833D01*
X1526Y833D02*
X1532Y833D01*
X1804Y833D02*
X1811Y833D01*
X1Y832D02*
X8Y832D01*
X1494Y832D02*
X1500Y832D01*
X1526Y832D02*
X1532Y832D01*
X1804Y832D02*
X1811Y832D01*
X1Y831D02*
X8Y831D01*
X1494Y831D02*
X1501Y831D01*
X1526Y831D02*
X1532Y831D01*
X1804Y831D02*
X1811Y831D01*
X1Y830D02*
X8Y830D01*
X1494Y830D02*
X1503Y830D01*
X1526Y830D02*
X1532Y830D01*
X1804Y830D02*
X1811Y830D01*
X1Y829D02*
X8Y829D01*
X1495Y829D02*
X1504Y829D01*
X1526Y829D02*
X1532Y829D01*
X1804Y829D02*
X1811Y829D01*
X1Y828D02*
X8Y828D01*
X1495Y828D02*
X1505Y828D01*
X1527Y828D02*
X1531Y828D01*
X1804Y828D02*
X1811Y828D01*
X1Y827D02*
X8Y827D01*
X1496Y827D02*
X1505Y827D01*
X1528Y827D02*
X1530Y827D01*
X1804Y827D02*
X1811Y827D01*
X1Y826D02*
X8Y826D01*
X1497Y826D02*
X1505Y826D01*
X1804Y826D02*
X1811Y826D01*
X1Y825D02*
X8Y825D01*
X1498Y825D02*
X1505Y825D01*
X1804Y825D02*
X1811Y825D01*
X1Y824D02*
X8Y824D01*
X1500Y824D02*
X1504Y824D01*
X1804Y824D02*
X1811Y824D01*
X1Y823D02*
X8Y823D01*
X1804Y823D02*
X1811Y823D01*
X1Y822D02*
X8Y822D01*
X1804Y822D02*
X1811Y822D01*
X1Y821D02*
X8Y821D01*
X1804Y821D02*
X1811Y821D01*
X1Y820D02*
X8Y820D01*
X1804Y820D02*
X1811Y820D01*
X1Y819D02*
X8Y819D01*
X1804Y819D02*
X1811Y819D01*
X1Y818D02*
X8Y818D01*
X1804Y818D02*
X1811Y818D01*
X1Y817D02*
X8Y817D01*
X1804Y817D02*
X1811Y817D01*
X1Y816D02*
X8Y816D01*
X1804Y816D02*
X1811Y816D01*
X1Y815D02*
X8Y815D01*
X1804Y815D02*
X1811Y815D01*
X1Y814D02*
X8Y814D01*
X1804Y814D02*
X1811Y814D01*
X1Y813D02*
X8Y813D01*
X1804Y813D02*
X1811Y813D01*
X1Y812D02*
X8Y812D01*
X1804Y812D02*
X1811Y812D01*
X1Y811D02*
X8Y811D01*
X1804Y811D02*
X1811Y811D01*
X1Y810D02*
X8Y810D01*
X1804Y810D02*
X1811Y810D01*
X1Y809D02*
X8Y809D01*
X1804Y809D02*
X1811Y809D01*
X1Y808D02*
X8Y808D01*
X1804Y808D02*
X1811Y808D01*
X1Y807D02*
X8Y807D01*
X1804Y807D02*
X1811Y807D01*
X1Y806D02*
X8Y806D01*
X1804Y806D02*
X1811Y806D01*
X1Y805D02*
X8Y805D01*
X1804Y805D02*
X1811Y805D01*
X1Y804D02*
X8Y804D01*
X1804Y804D02*
X1811Y804D01*
X1Y803D02*
X8Y803D01*
X1804Y803D02*
X1811Y803D01*
X1Y802D02*
X8Y802D01*
X1804Y802D02*
X1811Y802D01*
X1Y801D02*
X8Y801D01*
X1804Y801D02*
X1811Y801D01*
X1Y800D02*
X8Y800D01*
X1804Y800D02*
X1811Y800D01*
X1Y799D02*
X8Y799D01*
X1804Y799D02*
X1811Y799D01*
X1Y798D02*
X8Y798D01*
X1804Y798D02*
X1811Y798D01*
X1Y797D02*
X8Y797D01*
X1804Y797D02*
X1811Y797D01*
X1Y796D02*
X8Y796D01*
X1804Y796D02*
X1811Y796D01*
X1Y795D02*
X8Y795D01*
X1804Y795D02*
X1811Y795D01*
X1Y794D02*
X8Y794D01*
X1804Y794D02*
X1811Y794D01*
X1Y793D02*
X8Y793D01*
X1804Y793D02*
X1811Y793D01*
X1Y792D02*
X8Y792D01*
X1804Y792D02*
X1811Y792D01*
X1Y791D02*
X8Y791D01*
X1804Y791D02*
X1811Y791D01*
X1Y790D02*
X8Y790D01*
X1804Y790D02*
X1811Y790D01*
X1Y789D02*
X8Y789D01*
X1804Y789D02*
X1811Y789D01*
X1Y788D02*
X8Y788D01*
X1804Y788D02*
X1811Y788D01*
X1Y787D02*
X8Y787D01*
X1804Y787D02*
X1811Y787D01*
X1Y786D02*
X8Y786D01*
X1804Y786D02*
X1811Y786D01*
X1Y785D02*
X8Y785D01*
X1804Y785D02*
X1811Y785D01*
X1Y784D02*
X8Y784D01*
X1804Y784D02*
X1811Y784D01*
X1Y783D02*
X8Y783D01*
X1804Y783D02*
X1811Y783D01*
X1Y782D02*
X8Y782D01*
X1804Y782D02*
X1811Y782D01*
X1Y781D02*
X8Y781D01*
X1804Y781D02*
X1811Y781D01*
X1Y780D02*
X8Y780D01*
X1804Y780D02*
X1811Y780D01*
X1Y779D02*
X8Y779D01*
X1804Y779D02*
X1811Y779D01*
X1Y778D02*
X8Y778D01*
X1804Y778D02*
X1811Y778D01*
X1Y777D02*
X8Y777D01*
X1804Y777D02*
X1811Y777D01*
X1Y776D02*
X8Y776D01*
X1804Y776D02*
X1811Y776D01*
X1Y775D02*
X8Y775D01*
X1804Y775D02*
X1811Y775D01*
X1Y774D02*
X8Y774D01*
X1804Y774D02*
X1811Y774D01*
X1Y773D02*
X8Y773D01*
X1804Y773D02*
X1811Y773D01*
X1Y772D02*
X8Y772D01*
X1804Y772D02*
X1811Y772D01*
X1Y771D02*
X8Y771D01*
X1804Y771D02*
X1811Y771D01*
X1Y770D02*
X8Y770D01*
X1804Y770D02*
X1811Y770D01*
X1Y769D02*
X8Y769D01*
X1804Y769D02*
X1811Y769D01*
X1Y768D02*
X8Y768D01*
X1804Y768D02*
X1811Y768D01*
X1Y767D02*
X8Y767D01*
X1804Y767D02*
X1811Y767D01*
X1Y766D02*
X8Y766D01*
X1804Y766D02*
X1811Y766D01*
X1Y765D02*
X8Y765D01*
X1804Y765D02*
X1811Y765D01*
X1Y764D02*
X8Y764D01*
X1804Y764D02*
X1811Y764D01*
X1Y763D02*
X8Y763D01*
X1804Y763D02*
X1811Y763D01*
X1Y762D02*
X8Y762D01*
X1804Y762D02*
X1811Y762D01*
X1Y761D02*
X8Y761D01*
X1804Y761D02*
X1811Y761D01*
X1Y760D02*
X8Y760D01*
X1804Y760D02*
X1811Y760D01*
X1Y759D02*
X8Y759D01*
X1804Y759D02*
X1811Y759D01*
X1Y758D02*
X8Y758D01*
X1804Y758D02*
X1811Y758D01*
X1Y757D02*
X8Y757D01*
X1804Y757D02*
X1811Y757D01*
X1Y756D02*
X8Y756D01*
X1804Y756D02*
X1811Y756D01*
X1Y755D02*
X8Y755D01*
X1804Y755D02*
X1811Y755D01*
X1Y754D02*
X8Y754D01*
X1804Y754D02*
X1811Y754D01*
X1Y753D02*
X8Y753D01*
X1804Y753D02*
X1811Y753D01*
X1Y752D02*
X8Y752D01*
X1804Y752D02*
X1811Y752D01*
X1Y751D02*
X8Y751D01*
X1804Y751D02*
X1811Y751D01*
X1Y750D02*
X8Y750D01*
X1804Y750D02*
X1811Y750D01*
X1Y749D02*
X8Y749D01*
X1804Y749D02*
X1811Y749D01*
X1Y748D02*
X8Y748D01*
X1804Y748D02*
X1811Y748D01*
X1Y747D02*
X8Y747D01*
X1804Y747D02*
X1811Y747D01*
X1Y746D02*
X8Y746D01*
X1804Y746D02*
X1811Y746D01*
X1Y745D02*
X8Y745D01*
X1804Y745D02*
X1811Y745D01*
X1Y744D02*
X8Y744D01*
X1804Y744D02*
X1811Y744D01*
X1Y743D02*
X8Y743D01*
X1804Y743D02*
X1811Y743D01*
X1Y742D02*
X8Y742D01*
X1804Y742D02*
X1811Y742D01*
X1Y741D02*
X8Y741D01*
X1804Y741D02*
X1811Y741D01*
X1Y740D02*
X8Y740D01*
X1804Y740D02*
X1811Y740D01*
X1Y739D02*
X8Y739D01*
X1804Y739D02*
X1811Y739D01*
X1Y738D02*
X8Y738D01*
X1804Y738D02*
X1811Y738D01*
X1Y737D02*
X8Y737D01*
X1804Y737D02*
X1811Y737D01*
X1Y736D02*
X8Y736D01*
X1804Y736D02*
X1811Y736D01*
X1Y735D02*
X8Y735D01*
X1804Y735D02*
X1811Y735D01*
X1Y734D02*
X8Y734D01*
X1804Y734D02*
X1811Y734D01*
X1Y733D02*
X8Y733D01*
X1804Y733D02*
X1811Y733D01*
X1Y732D02*
X8Y732D01*
X1804Y732D02*
X1811Y732D01*
X1Y731D02*
X8Y731D01*
X1804Y731D02*
X1811Y731D01*
X1Y730D02*
X8Y730D01*
X1804Y730D02*
X1811Y730D01*
X1Y729D02*
X8Y729D01*
X1804Y729D02*
X1811Y729D01*
X1Y728D02*
X8Y728D01*
X1804Y728D02*
X1811Y728D01*
X1Y727D02*
X8Y727D01*
X1804Y727D02*
X1811Y727D01*
X1Y726D02*
X8Y726D01*
X1804Y726D02*
X1811Y726D01*
X1Y725D02*
X8Y725D01*
X1804Y725D02*
X1811Y725D01*
X1Y724D02*
X8Y724D01*
X1804Y724D02*
X1811Y724D01*
X1Y723D02*
X8Y723D01*
X1804Y723D02*
X1811Y723D01*
X1Y722D02*
X8Y722D01*
X1804Y722D02*
X1811Y722D01*
X1Y721D02*
X8Y721D01*
X1804Y721D02*
X1811Y721D01*
X1Y720D02*
X8Y720D01*
X1804Y720D02*
X1811Y720D01*
X1Y719D02*
X8Y719D01*
X1804Y719D02*
X1811Y719D01*
X1Y718D02*
X8Y718D01*
X1804Y718D02*
X1811Y718D01*
X1Y717D02*
X8Y717D01*
X1804Y717D02*
X1811Y717D01*
X1Y716D02*
X8Y716D01*
X1804Y716D02*
X1811Y716D01*
X1Y715D02*
X8Y715D01*
X1804Y715D02*
X1811Y715D01*
X1Y714D02*
X8Y714D01*
X1804Y714D02*
X1811Y714D01*
X1Y713D02*
X8Y713D01*
X1804Y713D02*
X1811Y713D01*
X1Y712D02*
X8Y712D01*
X1804Y712D02*
X1811Y712D01*
X1Y711D02*
X8Y711D01*
X1804Y711D02*
X1811Y711D01*
X1Y710D02*
X8Y710D01*
X1804Y710D02*
X1811Y710D01*
X1Y709D02*
X8Y709D01*
X1804Y709D02*
X1811Y709D01*
X1Y708D02*
X8Y708D01*
X1804Y708D02*
X1811Y708D01*
X1Y707D02*
X8Y707D01*
X1804Y707D02*
X1811Y707D01*
X1Y706D02*
X8Y706D01*
X1804Y706D02*
X1811Y706D01*
X1Y705D02*
X8Y705D01*
X1804Y705D02*
X1811Y705D01*
X1Y704D02*
X8Y704D01*
X1804Y704D02*
X1811Y704D01*
X1Y703D02*
X8Y703D01*
X1804Y703D02*
X1811Y703D01*
X1Y702D02*
X8Y702D01*
X1804Y702D02*
X1811Y702D01*
X1Y701D02*
X8Y701D01*
X1804Y701D02*
X1811Y701D01*
X1Y700D02*
X8Y700D01*
X1804Y700D02*
X1811Y700D01*
X1Y699D02*
X8Y699D01*
X1804Y699D02*
X1811Y699D01*
X1Y698D02*
X8Y698D01*
X1804Y698D02*
X1811Y698D01*
X1Y697D02*
X8Y697D01*
X1804Y697D02*
X1811Y697D01*
X1Y696D02*
X8Y696D01*
X407Y696D02*
X429Y696D01*
X454Y696D02*
X481Y696D01*
X1804Y696D02*
X1811Y696D01*
X1Y695D02*
X8Y695D01*
X405Y695D02*
X431Y695D01*
X453Y695D02*
X483Y695D01*
X1804Y695D02*
X1811Y695D01*
X1Y694D02*
X8Y694D01*
X404Y694D02*
X432Y694D01*
X452Y694D02*
X484Y694D01*
X1804Y694D02*
X1811Y694D01*
X1Y693D02*
X8Y693D01*
X403Y693D02*
X433Y693D01*
X452Y693D02*
X484Y693D01*
X1804Y693D02*
X1811Y693D01*
X1Y692D02*
X8Y692D01*
X402Y692D02*
X434Y692D01*
X452Y692D02*
X485Y692D01*
X1804Y692D02*
X1811Y692D01*
X1Y691D02*
X8Y691D01*
X402Y691D02*
X434Y691D01*
X453Y691D02*
X485Y691D01*
X1804Y691D02*
X1811Y691D01*
X1Y690D02*
X8Y690D01*
X402Y690D02*
X435Y690D01*
X454Y690D02*
X485Y690D01*
X1804Y690D02*
X1811Y690D01*
X1Y689D02*
X8Y689D01*
X402Y689D02*
X408Y689D01*
X428Y689D02*
X435Y689D01*
X479Y689D02*
X485Y689D01*
X1804Y689D02*
X1811Y689D01*
X1Y688D02*
X8Y688D01*
X402Y688D02*
X408Y688D01*
X429Y688D02*
X435Y688D01*
X479Y688D02*
X485Y688D01*
X1804Y688D02*
X1811Y688D01*
X1Y687D02*
X8Y687D01*
X402Y687D02*
X409Y687D01*
X429Y687D02*
X435Y687D01*
X479Y687D02*
X485Y687D01*
X1804Y687D02*
X1811Y687D01*
X1Y686D02*
X8Y686D01*
X402Y686D02*
X410Y686D01*
X430Y686D02*
X435Y686D01*
X479Y686D02*
X485Y686D01*
X1804Y686D02*
X1811Y686D01*
X1Y685D02*
X8Y685D01*
X403Y685D02*
X410Y685D01*
X430Y685D02*
X434Y685D01*
X479Y685D02*
X485Y685D01*
X1804Y685D02*
X1811Y685D01*
X1Y684D02*
X8Y684D01*
X403Y684D02*
X411Y684D01*
X431Y684D02*
X433Y684D01*
X479Y684D02*
X485Y684D01*
X1804Y684D02*
X1811Y684D01*
X1Y683D02*
X8Y683D01*
X404Y683D02*
X412Y683D01*
X479Y683D02*
X485Y683D01*
X1804Y683D02*
X1811Y683D01*
X1Y682D02*
X8Y682D01*
X405Y682D02*
X413Y682D01*
X479Y682D02*
X485Y682D01*
X1804Y682D02*
X1811Y682D01*
X1Y681D02*
X8Y681D01*
X405Y681D02*
X413Y681D01*
X479Y681D02*
X485Y681D01*
X1804Y681D02*
X1811Y681D01*
X1Y680D02*
X8Y680D01*
X406Y680D02*
X414Y680D01*
X479Y680D02*
X485Y680D01*
X1804Y680D02*
X1811Y680D01*
X1Y679D02*
X8Y679D01*
X407Y679D02*
X415Y679D01*
X479Y679D02*
X485Y679D01*
X1804Y679D02*
X1811Y679D01*
X1Y678D02*
X8Y678D01*
X408Y678D02*
X416Y678D01*
X479Y678D02*
X485Y678D01*
X1804Y678D02*
X1811Y678D01*
X1Y677D02*
X8Y677D01*
X409Y677D02*
X417Y677D01*
X479Y677D02*
X485Y677D01*
X1804Y677D02*
X1811Y677D01*
X1Y676D02*
X8Y676D01*
X409Y676D02*
X417Y676D01*
X479Y676D02*
X485Y676D01*
X1804Y676D02*
X1811Y676D01*
X1Y675D02*
X8Y675D01*
X410Y675D02*
X418Y675D01*
X479Y675D02*
X485Y675D01*
X1804Y675D02*
X1811Y675D01*
X1Y674D02*
X8Y674D01*
X411Y674D02*
X419Y674D01*
X478Y674D02*
X485Y674D01*
X1804Y674D02*
X1811Y674D01*
X1Y673D02*
X8Y673D01*
X412Y673D02*
X420Y673D01*
X462Y673D02*
X485Y673D01*
X1804Y673D02*
X1811Y673D01*
X1Y672D02*
X8Y672D01*
X412Y672D02*
X420Y672D01*
X460Y672D02*
X484Y672D01*
X1804Y672D02*
X1811Y672D01*
X1Y671D02*
X8Y671D01*
X413Y671D02*
X421Y671D01*
X459Y671D02*
X484Y671D01*
X1804Y671D02*
X1811Y671D01*
X1Y670D02*
X8Y670D01*
X414Y670D02*
X422Y670D01*
X459Y670D02*
X483Y670D01*
X1804Y670D02*
X1811Y670D01*
X1Y669D02*
X8Y669D01*
X415Y669D02*
X423Y669D01*
X459Y669D02*
X483Y669D01*
X1804Y669D02*
X1811Y669D01*
X1Y668D02*
X8Y668D01*
X416Y668D02*
X424Y668D01*
X459Y668D02*
X484Y668D01*
X1804Y668D02*
X1811Y668D01*
X1Y667D02*
X8Y667D01*
X416Y667D02*
X424Y667D01*
X460Y667D02*
X484Y667D01*
X1804Y667D02*
X1811Y667D01*
X1Y666D02*
X8Y666D01*
X417Y666D02*
X425Y666D01*
X462Y666D02*
X485Y666D01*
X1804Y666D02*
X1811Y666D01*
X1Y665D02*
X8Y665D01*
X418Y665D02*
X426Y665D01*
X478Y665D02*
X485Y665D01*
X1804Y665D02*
X1811Y665D01*
X1Y664D02*
X8Y664D01*
X419Y664D02*
X427Y664D01*
X479Y664D02*
X485Y664D01*
X1804Y664D02*
X1811Y664D01*
X1Y663D02*
X8Y663D01*
X419Y663D02*
X427Y663D01*
X479Y663D02*
X485Y663D01*
X1804Y663D02*
X1811Y663D01*
X1Y662D02*
X8Y662D01*
X420Y662D02*
X428Y662D01*
X479Y662D02*
X485Y662D01*
X1804Y662D02*
X1811Y662D01*
X1Y661D02*
X8Y661D01*
X421Y661D02*
X429Y661D01*
X479Y661D02*
X485Y661D01*
X1804Y661D02*
X1811Y661D01*
X1Y660D02*
X8Y660D01*
X422Y660D02*
X430Y660D01*
X479Y660D02*
X485Y660D01*
X1804Y660D02*
X1811Y660D01*
X1Y659D02*
X8Y659D01*
X423Y659D02*
X431Y659D01*
X479Y659D02*
X485Y659D01*
X1804Y659D02*
X1811Y659D01*
X1Y658D02*
X8Y658D01*
X423Y658D02*
X431Y658D01*
X479Y658D02*
X485Y658D01*
X1804Y658D02*
X1811Y658D01*
X1Y657D02*
X8Y657D01*
X424Y657D02*
X432Y657D01*
X479Y657D02*
X485Y657D01*
X1804Y657D02*
X1811Y657D01*
X1Y656D02*
X8Y656D01*
X425Y656D02*
X433Y656D01*
X479Y656D02*
X485Y656D01*
X1804Y656D02*
X1811Y656D01*
X1Y655D02*
X8Y655D01*
X404Y655D02*
X405Y655D01*
X426Y655D02*
X434Y655D01*
X479Y655D02*
X485Y655D01*
X1804Y655D02*
X1811Y655D01*
X1Y654D02*
X8Y654D01*
X403Y654D02*
X407Y654D01*
X426Y654D02*
X434Y654D01*
X479Y654D02*
X485Y654D01*
X1804Y654D02*
X1811Y654D01*
X1Y653D02*
X8Y653D01*
X402Y653D02*
X407Y653D01*
X427Y653D02*
X435Y653D01*
X479Y653D02*
X485Y653D01*
X1804Y653D02*
X1811Y653D01*
X1Y652D02*
X8Y652D01*
X402Y652D02*
X408Y652D01*
X428Y652D02*
X435Y652D01*
X479Y652D02*
X485Y652D01*
X1804Y652D02*
X1811Y652D01*
X1Y651D02*
X8Y651D01*
X402Y651D02*
X408Y651D01*
X429Y651D02*
X435Y651D01*
X479Y651D02*
X485Y651D01*
X1804Y651D02*
X1811Y651D01*
X1Y650D02*
X8Y650D01*
X402Y650D02*
X409Y650D01*
X429Y650D02*
X435Y650D01*
X479Y650D02*
X485Y650D01*
X1804Y650D02*
X1811Y650D01*
X1Y649D02*
X8Y649D01*
X402Y649D02*
X435Y649D01*
X454Y649D02*
X485Y649D01*
X1804Y649D02*
X1811Y649D01*
X1Y648D02*
X8Y648D01*
X403Y648D02*
X435Y648D01*
X453Y648D02*
X485Y648D01*
X1804Y648D02*
X1811Y648D01*
X1Y647D02*
X8Y647D01*
X403Y647D02*
X435Y647D01*
X452Y647D02*
X485Y647D01*
X1804Y647D02*
X1811Y647D01*
X1Y646D02*
X8Y646D01*
X404Y646D02*
X434Y646D01*
X452Y646D02*
X485Y646D01*
X1804Y646D02*
X1811Y646D01*
X1Y645D02*
X8Y645D01*
X405Y645D02*
X433Y645D01*
X452Y645D02*
X484Y645D01*
X1804Y645D02*
X1811Y645D01*
X1Y644D02*
X8Y644D01*
X406Y644D02*
X432Y644D01*
X453Y644D02*
X483Y644D01*
X1804Y644D02*
X1811Y644D01*
X1Y643D02*
X8Y643D01*
X408Y643D02*
X430Y643D01*
X454Y643D02*
X481Y643D01*
X1804Y643D02*
X1811Y643D01*
X1Y642D02*
X8Y642D01*
X1804Y642D02*
X1811Y642D01*
X1Y641D02*
X8Y641D01*
X1804Y641D02*
X1811Y641D01*
X1Y640D02*
X8Y640D01*
X1804Y640D02*
X1811Y640D01*
X1Y639D02*
X8Y639D01*
X1804Y639D02*
X1811Y639D01*
X1Y638D02*
X8Y638D01*
X1804Y638D02*
X1811Y638D01*
X1Y637D02*
X8Y637D01*
X1804Y637D02*
X1811Y637D01*
X1Y636D02*
X8Y636D01*
X1804Y636D02*
X1811Y636D01*
X1Y635D02*
X8Y635D01*
X1804Y635D02*
X1811Y635D01*
X1Y634D02*
X8Y634D01*
X1804Y634D02*
X1811Y634D01*
X1Y633D02*
X8Y633D01*
X1804Y633D02*
X1811Y633D01*
X1Y632D02*
X8Y632D01*
X1804Y632D02*
X1811Y632D01*
X1Y631D02*
X8Y631D01*
X1804Y631D02*
X1811Y631D01*
X1Y630D02*
X8Y630D01*
X1804Y630D02*
X1811Y630D01*
X1Y629D02*
X8Y629D01*
X1804Y629D02*
X1811Y629D01*
X1Y628D02*
X8Y628D01*
X1804Y628D02*
X1811Y628D01*
X1Y627D02*
X8Y627D01*
X1804Y627D02*
X1811Y627D01*
X1Y626D02*
X8Y626D01*
X1804Y626D02*
X1811Y626D01*
X1Y625D02*
X8Y625D01*
X1804Y625D02*
X1811Y625D01*
X1Y624D02*
X8Y624D01*
X1804Y624D02*
X1811Y624D01*
X1Y623D02*
X8Y623D01*
X1804Y623D02*
X1811Y623D01*
X1Y622D02*
X8Y622D01*
X1804Y622D02*
X1811Y622D01*
X1Y621D02*
X8Y621D01*
X1804Y621D02*
X1811Y621D01*
X1Y620D02*
X8Y620D01*
X1804Y620D02*
X1811Y620D01*
X1Y619D02*
X8Y619D01*
X1804Y619D02*
X1811Y619D01*
X1Y618D02*
X8Y618D01*
X1804Y618D02*
X1811Y618D01*
X1Y617D02*
X8Y617D01*
X1804Y617D02*
X1811Y617D01*
X1Y616D02*
X8Y616D01*
X1804Y616D02*
X1811Y616D01*
X1Y615D02*
X8Y615D01*
X1804Y615D02*
X1811Y615D01*
X1Y614D02*
X8Y614D01*
X1804Y614D02*
X1811Y614D01*
X1Y613D02*
X8Y613D01*
X1804Y613D02*
X1811Y613D01*
X1Y612D02*
X8Y612D01*
X1804Y612D02*
X1811Y612D01*
X1Y611D02*
X8Y611D01*
X1804Y611D02*
X1811Y611D01*
X1Y610D02*
X8Y610D01*
X1804Y610D02*
X1811Y610D01*
X1Y609D02*
X8Y609D01*
X1804Y609D02*
X1811Y609D01*
X1Y608D02*
X8Y608D01*
X1804Y608D02*
X1811Y608D01*
X1Y607D02*
X8Y607D01*
X1804Y607D02*
X1811Y607D01*
X1Y606D02*
X8Y606D01*
X1804Y606D02*
X1811Y606D01*
X1Y605D02*
X8Y605D01*
X1804Y605D02*
X1811Y605D01*
X1Y604D02*
X8Y604D01*
X1804Y604D02*
X1811Y604D01*
X1Y603D02*
X8Y603D01*
X1804Y603D02*
X1811Y603D01*
X1Y602D02*
X8Y602D01*
X1804Y602D02*
X1811Y602D01*
X1Y601D02*
X8Y601D01*
X1804Y601D02*
X1811Y601D01*
X1Y600D02*
X8Y600D01*
X1804Y600D02*
X1811Y600D01*
X1Y599D02*
X8Y599D01*
X1804Y599D02*
X1811Y599D01*
X1Y598D02*
X8Y598D01*
X1804Y598D02*
X1811Y598D01*
X1Y597D02*
X8Y597D01*
X1804Y597D02*
X1811Y597D01*
X1Y596D02*
X8Y596D01*
X1804Y596D02*
X1811Y596D01*
X1Y595D02*
X8Y595D01*
X1804Y595D02*
X1811Y595D01*
X1Y594D02*
X8Y594D01*
X1804Y594D02*
X1811Y594D01*
X1Y593D02*
X8Y593D01*
X1804Y593D02*
X1811Y593D01*
X1Y592D02*
X8Y592D01*
X1804Y592D02*
X1811Y592D01*
X1Y591D02*
X8Y591D01*
X1804Y591D02*
X1811Y591D01*
X1Y590D02*
X8Y590D01*
X1804Y590D02*
X1811Y590D01*
X1Y589D02*
X8Y589D01*
X1804Y589D02*
X1811Y589D01*
X1Y588D02*
X8Y588D01*
X1804Y588D02*
X1811Y588D01*
X1Y587D02*
X8Y587D01*
X1804Y587D02*
X1811Y587D01*
X1Y586D02*
X8Y586D01*
X1804Y586D02*
X1811Y586D01*
X1Y585D02*
X8Y585D01*
X1804Y585D02*
X1811Y585D01*
X1Y584D02*
X8Y584D01*
X1804Y584D02*
X1811Y584D01*
X1Y583D02*
X8Y583D01*
X1804Y583D02*
X1811Y583D01*
X1Y582D02*
X8Y582D01*
X1804Y582D02*
X1811Y582D01*
X1Y581D02*
X8Y581D01*
X1804Y581D02*
X1811Y581D01*
X1Y580D02*
X8Y580D01*
X1804Y580D02*
X1811Y580D01*
X1Y579D02*
X8Y579D01*
X1804Y579D02*
X1811Y579D01*
X1Y578D02*
X8Y578D01*
X1804Y578D02*
X1811Y578D01*
X1Y577D02*
X8Y577D01*
X1804Y577D02*
X1811Y577D01*
X1Y576D02*
X8Y576D01*
X1804Y576D02*
X1811Y576D01*
X1Y575D02*
X8Y575D01*
X1804Y575D02*
X1811Y575D01*
X1Y574D02*
X8Y574D01*
X1804Y574D02*
X1811Y574D01*
X1Y573D02*
X8Y573D01*
X1804Y573D02*
X1811Y573D01*
X1Y572D02*
X8Y572D01*
X1804Y572D02*
X1811Y572D01*
X1Y571D02*
X8Y571D01*
X1804Y571D02*
X1811Y571D01*
X1Y570D02*
X8Y570D01*
X1804Y570D02*
X1811Y570D01*
X1Y569D02*
X8Y569D01*
X1804Y569D02*
X1811Y569D01*
X1Y568D02*
X8Y568D01*
X1804Y568D02*
X1811Y568D01*
X1Y567D02*
X8Y567D01*
X1804Y567D02*
X1811Y567D01*
X1Y566D02*
X8Y566D01*
X1804Y566D02*
X1811Y566D01*
X1Y565D02*
X8Y565D01*
X1804Y565D02*
X1811Y565D01*
X1Y564D02*
X8Y564D01*
X1804Y564D02*
X1811Y564D01*
X1Y563D02*
X8Y563D01*
X851Y563D02*
X852Y563D01*
X1351Y563D02*
X1352Y563D01*
X1451Y563D02*
X1452Y563D01*
X1751Y563D02*
X1752Y563D01*
X1804Y563D02*
X1811Y563D01*
X1Y562D02*
X8Y562D01*
X850Y562D02*
X853Y562D01*
X1350Y562D02*
X1353Y562D01*
X1450Y562D02*
X1453Y562D01*
X1750Y562D02*
X1753Y562D01*
X1804Y562D02*
X1811Y562D01*
X1Y561D02*
X8Y561D01*
X849Y561D02*
X854Y561D01*
X1349Y561D02*
X1354Y561D01*
X1449Y561D02*
X1454Y561D01*
X1749Y561D02*
X1754Y561D01*
X1804Y561D02*
X1811Y561D01*
X1Y560D02*
X8Y560D01*
X848Y560D02*
X855Y560D01*
X1348Y560D02*
X1354Y560D01*
X1448Y560D02*
X1454Y560D01*
X1748Y560D02*
X1754Y560D01*
X1804Y560D02*
X1811Y560D01*
X1Y559D02*
X8Y559D01*
X847Y559D02*
X854Y559D01*
X1347Y559D02*
X1353Y559D01*
X1447Y559D02*
X1453Y559D01*
X1747Y559D02*
X1753Y559D01*
X1804Y559D02*
X1811Y559D01*
X1Y558D02*
X8Y558D01*
X846Y558D02*
X853Y558D01*
X1346Y558D02*
X1352Y558D01*
X1446Y558D02*
X1452Y558D01*
X1746Y558D02*
X1752Y558D01*
X1804Y558D02*
X1811Y558D01*
X1Y557D02*
X8Y557D01*
X845Y557D02*
X852Y557D01*
X1345Y557D02*
X1351Y557D01*
X1445Y557D02*
X1451Y557D01*
X1745Y557D02*
X1751Y557D01*
X1804Y557D02*
X1811Y557D01*
X1Y556D02*
X8Y556D01*
X844Y556D02*
X851Y556D01*
X1344Y556D02*
X1350Y556D01*
X1444Y556D02*
X1450Y556D01*
X1744Y556D02*
X1750Y556D01*
X1804Y556D02*
X1811Y556D01*
X1Y555D02*
X8Y555D01*
X843Y555D02*
X850Y555D01*
X1343Y555D02*
X1349Y555D01*
X1443Y555D02*
X1449Y555D01*
X1743Y555D02*
X1749Y555D01*
X1804Y555D02*
X1811Y555D01*
X1Y554D02*
X8Y554D01*
X842Y554D02*
X849Y554D01*
X1342Y554D02*
X1348Y554D01*
X1442Y554D02*
X1448Y554D01*
X1742Y554D02*
X1748Y554D01*
X1804Y554D02*
X1811Y554D01*
X1Y553D02*
X8Y553D01*
X841Y553D02*
X848Y553D01*
X1341Y553D02*
X1347Y553D01*
X1441Y553D02*
X1447Y553D01*
X1741Y553D02*
X1747Y553D01*
X1804Y553D02*
X1811Y553D01*
X1Y552D02*
X8Y552D01*
X840Y552D02*
X847Y552D01*
X1340Y552D02*
X1346Y552D01*
X1440Y552D02*
X1446Y552D01*
X1740Y552D02*
X1746Y552D01*
X1804Y552D02*
X1811Y552D01*
X1Y551D02*
X8Y551D01*
X839Y551D02*
X846Y551D01*
X1339Y551D02*
X1345Y551D01*
X1439Y551D02*
X1445Y551D01*
X1739Y551D02*
X1745Y551D01*
X1804Y551D02*
X1811Y551D01*
X1Y550D02*
X8Y550D01*
X839Y550D02*
X845Y550D01*
X1338Y550D02*
X1344Y550D01*
X1438Y550D02*
X1444Y550D01*
X1738Y550D02*
X1744Y550D01*
X1804Y550D02*
X1811Y550D01*
X1Y549D02*
X8Y549D01*
X838Y549D02*
X844Y549D01*
X1338Y549D02*
X1343Y549D01*
X1438Y549D02*
X1443Y549D01*
X1737Y549D02*
X1743Y549D01*
X1804Y549D02*
X1811Y549D01*
X1Y548D02*
X8Y548D01*
X837Y548D02*
X843Y548D01*
X1337Y548D02*
X1342Y548D01*
X1437Y548D02*
X1442Y548D01*
X1737Y548D02*
X1742Y548D01*
X1804Y548D02*
X1811Y548D01*
X1Y547D02*
X8Y547D01*
X836Y547D02*
X842Y547D01*
X1336Y547D02*
X1341Y547D01*
X1436Y547D02*
X1441Y547D01*
X1736Y547D02*
X1741Y547D01*
X1804Y547D02*
X1811Y547D01*
X1Y546D02*
X8Y546D01*
X835Y546D02*
X841Y546D01*
X1335Y546D02*
X1340Y546D01*
X1435Y546D02*
X1440Y546D01*
X1735Y546D02*
X1740Y546D01*
X1804Y546D02*
X1811Y546D01*
X1Y545D02*
X8Y545D01*
X834Y545D02*
X840Y545D01*
X1334Y545D02*
X1339Y545D01*
X1434Y545D02*
X1439Y545D01*
X1734Y545D02*
X1739Y545D01*
X1804Y545D02*
X1811Y545D01*
X1Y544D02*
X8Y544D01*
X833Y544D02*
X839Y544D01*
X1333Y544D02*
X1338Y544D01*
X1433Y544D02*
X1438Y544D01*
X1733Y544D02*
X1738Y544D01*
X1804Y544D02*
X1811Y544D01*
X1Y543D02*
X8Y543D01*
X832Y543D02*
X838Y543D01*
X1332Y543D02*
X1337Y543D01*
X1432Y543D02*
X1437Y543D01*
X1731Y543D02*
X1737Y543D01*
X1804Y543D02*
X1811Y543D01*
X1Y542D02*
X8Y542D01*
X830Y542D02*
X837Y542D01*
X1330Y542D02*
X1336Y542D01*
X1430Y542D02*
X1436Y542D01*
X1730Y542D02*
X1736Y542D01*
X1804Y542D02*
X1811Y542D01*
X1Y541D02*
X8Y541D01*
X829Y541D02*
X836Y541D01*
X1329Y541D02*
X1335Y541D01*
X1429Y541D02*
X1435Y541D01*
X1729Y541D02*
X1735Y541D01*
X1804Y541D02*
X1811Y541D01*
X1Y540D02*
X8Y540D01*
X828Y540D02*
X835Y540D01*
X1328Y540D02*
X1334Y540D01*
X1428Y540D02*
X1434Y540D01*
X1728Y540D02*
X1734Y540D01*
X1804Y540D02*
X1811Y540D01*
X1Y539D02*
X8Y539D01*
X827Y539D02*
X834Y539D01*
X1327Y539D02*
X1333Y539D01*
X1427Y539D02*
X1433Y539D01*
X1727Y539D02*
X1733Y539D01*
X1804Y539D02*
X1811Y539D01*
X1Y538D02*
X8Y538D01*
X826Y538D02*
X833Y538D01*
X1326Y538D02*
X1332Y538D01*
X1426Y538D02*
X1432Y538D01*
X1726Y538D02*
X1732Y538D01*
X1804Y538D02*
X1811Y538D01*
X1Y537D02*
X8Y537D01*
X825Y537D02*
X832Y537D01*
X1325Y537D02*
X1331Y537D01*
X1425Y537D02*
X1431Y537D01*
X1725Y537D02*
X1731Y537D01*
X1804Y537D02*
X1811Y537D01*
X1Y536D02*
X8Y536D01*
X824Y536D02*
X831Y536D01*
X1324Y536D02*
X1330Y536D01*
X1424Y536D02*
X1430Y536D01*
X1724Y536D02*
X1730Y536D01*
X1804Y536D02*
X1811Y536D01*
X1Y535D02*
X8Y535D01*
X823Y535D02*
X830Y535D01*
X1323Y535D02*
X1329Y535D01*
X1423Y535D02*
X1429Y535D01*
X1723Y535D02*
X1729Y535D01*
X1804Y535D02*
X1811Y535D01*
X1Y534D02*
X8Y534D01*
X822Y534D02*
X829Y534D01*
X1322Y534D02*
X1328Y534D01*
X1422Y534D02*
X1428Y534D01*
X1722Y534D02*
X1728Y534D01*
X1804Y534D02*
X1811Y534D01*
X1Y533D02*
X8Y533D01*
X821Y533D02*
X828Y533D01*
X1321Y533D02*
X1327Y533D01*
X1421Y533D02*
X1427Y533D01*
X1721Y533D02*
X1727Y533D01*
X1804Y533D02*
X1811Y533D01*
X1Y532D02*
X8Y532D01*
X820Y532D02*
X827Y532D01*
X1320Y532D02*
X1326Y532D01*
X1420Y532D02*
X1426Y532D01*
X1720Y532D02*
X1726Y532D01*
X1804Y532D02*
X1811Y532D01*
X1Y531D02*
X8Y531D01*
X819Y531D02*
X826Y531D01*
X1319Y531D02*
X1325Y531D01*
X1419Y531D02*
X1425Y531D01*
X1719Y531D02*
X1725Y531D01*
X1804Y531D02*
X1811Y531D01*
X1Y530D02*
X8Y530D01*
X818Y530D02*
X825Y530D01*
X1318Y530D02*
X1324Y530D01*
X1418Y530D02*
X1424Y530D01*
X1718Y530D02*
X1724Y530D01*
X1804Y530D02*
X1811Y530D01*
X1Y529D02*
X8Y529D01*
X818Y529D02*
X824Y529D01*
X1317Y529D02*
X1323Y529D01*
X1417Y529D02*
X1423Y529D01*
X1717Y529D02*
X1723Y529D01*
X1804Y529D02*
X1811Y529D01*
X1Y528D02*
X8Y528D01*
X818Y528D02*
X823Y528D01*
X1318Y528D02*
X1322Y528D01*
X1418Y528D02*
X1422Y528D01*
X1718Y528D02*
X1722Y528D01*
X1804Y528D02*
X1811Y528D01*
X1Y527D02*
X8Y527D01*
X819Y527D02*
X822Y527D01*
X1319Y527D02*
X1321Y527D01*
X1419Y527D02*
X1421Y527D01*
X1719Y527D02*
X1721Y527D01*
X1804Y527D02*
X1811Y527D01*
X1Y526D02*
X8Y526D01*
X820Y526D02*
X821Y526D01*
X1320Y526D02*
X1320Y526D01*
X1420Y526D02*
X1420Y526D01*
X1720Y526D02*
X1720Y526D01*
X1804Y526D02*
X1811Y526D01*
X1Y525D02*
X8Y525D01*
X1804Y525D02*
X1811Y525D01*
X1Y524D02*
X8Y524D01*
X1804Y524D02*
X1811Y524D01*
X1Y523D02*
X8Y523D01*
X1804Y523D02*
X1811Y523D01*
X1Y522D02*
X8Y522D01*
X1804Y522D02*
X1811Y522D01*
X1Y521D02*
X8Y521D01*
X1804Y521D02*
X1811Y521D01*
X1Y520D02*
X8Y520D01*
X1804Y520D02*
X1811Y520D01*
X1Y519D02*
X8Y519D01*
X1804Y519D02*
X1811Y519D01*
X1Y518D02*
X8Y518D01*
X1804Y518D02*
X1811Y518D01*
X1Y517D02*
X8Y517D01*
X1804Y517D02*
X1811Y517D01*
X1Y516D02*
X8Y516D01*
X1804Y516D02*
X1811Y516D01*
X1Y515D02*
X8Y515D01*
X1804Y515D02*
X1811Y515D01*
X1Y514D02*
X8Y514D01*
X1804Y514D02*
X1811Y514D01*
X1Y513D02*
X8Y513D01*
X1804Y513D02*
X1811Y513D01*
X1Y512D02*
X8Y512D01*
X1804Y512D02*
X1811Y512D01*
X1Y511D02*
X8Y511D01*
X1804Y511D02*
X1811Y511D01*
X1Y510D02*
X8Y510D01*
X1804Y510D02*
X1811Y510D01*
X1Y509D02*
X8Y509D01*
X1804Y509D02*
X1811Y509D01*
X1Y508D02*
X8Y508D01*
X1804Y508D02*
X1811Y508D01*
X1Y507D02*
X8Y507D01*
X1804Y507D02*
X1811Y507D01*
X1Y506D02*
X8Y506D01*
X1804Y506D02*
X1811Y506D01*
X1Y505D02*
X8Y505D01*
X1804Y505D02*
X1811Y505D01*
X1Y504D02*
X8Y504D01*
X623Y504D02*
X625Y504D01*
X670Y504D02*
X672Y504D01*
X1804Y504D02*
X1811Y504D01*
X1Y503D02*
X8Y503D01*
X622Y503D02*
X626Y503D01*
X669Y503D02*
X673Y503D01*
X1804Y503D02*
X1811Y503D01*
X1Y502D02*
X8Y502D01*
X621Y502D02*
X627Y502D01*
X668Y502D02*
X674Y502D01*
X1804Y502D02*
X1811Y502D01*
X1Y501D02*
X8Y501D01*
X621Y501D02*
X627Y501D01*
X668Y501D02*
X674Y501D01*
X1804Y501D02*
X1811Y501D01*
X1Y500D02*
X8Y500D01*
X621Y500D02*
X627Y500D01*
X668Y500D02*
X674Y500D01*
X1804Y500D02*
X1811Y500D01*
X1Y499D02*
X8Y499D01*
X621Y499D02*
X627Y499D01*
X668Y499D02*
X674Y499D01*
X1804Y499D02*
X1811Y499D01*
X1Y498D02*
X8Y498D01*
X621Y498D02*
X627Y498D01*
X668Y498D02*
X674Y498D01*
X1804Y498D02*
X1811Y498D01*
X1Y497D02*
X8Y497D01*
X621Y497D02*
X627Y497D01*
X668Y497D02*
X674Y497D01*
X1804Y497D02*
X1811Y497D01*
X1Y496D02*
X8Y496D01*
X621Y496D02*
X627Y496D01*
X668Y496D02*
X674Y496D01*
X1804Y496D02*
X1811Y496D01*
X1Y495D02*
X8Y495D01*
X621Y495D02*
X627Y495D01*
X668Y495D02*
X674Y495D01*
X1804Y495D02*
X1811Y495D01*
X1Y494D02*
X8Y494D01*
X621Y494D02*
X627Y494D01*
X668Y494D02*
X674Y494D01*
X1804Y494D02*
X1811Y494D01*
X1Y493D02*
X8Y493D01*
X621Y493D02*
X627Y493D01*
X668Y493D02*
X674Y493D01*
X1804Y493D02*
X1811Y493D01*
X1Y492D02*
X8Y492D01*
X621Y492D02*
X627Y492D01*
X668Y492D02*
X674Y492D01*
X1804Y492D02*
X1811Y492D01*
X1Y491D02*
X8Y491D01*
X621Y491D02*
X627Y491D01*
X668Y491D02*
X674Y491D01*
X1804Y491D02*
X1811Y491D01*
X1Y490D02*
X8Y490D01*
X621Y490D02*
X674Y490D01*
X1804Y490D02*
X1811Y490D01*
X1Y489D02*
X8Y489D01*
X621Y489D02*
X674Y489D01*
X1804Y489D02*
X1811Y489D01*
X1Y488D02*
X8Y488D01*
X621Y488D02*
X674Y488D01*
X1804Y488D02*
X1811Y488D01*
X1Y487D02*
X8Y487D01*
X621Y487D02*
X674Y487D01*
X1804Y487D02*
X1811Y487D01*
X1Y486D02*
X8Y486D01*
X621Y486D02*
X674Y486D01*
X1804Y486D02*
X1811Y486D01*
X1Y485D02*
X8Y485D01*
X621Y485D02*
X674Y485D01*
X1804Y485D02*
X1811Y485D01*
X1Y484D02*
X8Y484D01*
X621Y484D02*
X674Y484D01*
X1804Y484D02*
X1811Y484D01*
X1Y483D02*
X8Y483D01*
X621Y483D02*
X627Y483D01*
X1804Y483D02*
X1811Y483D01*
X1Y482D02*
X8Y482D01*
X621Y482D02*
X627Y482D01*
X1804Y482D02*
X1811Y482D01*
X1Y481D02*
X8Y481D01*
X621Y481D02*
X627Y481D01*
X1804Y481D02*
X1811Y481D01*
X1Y480D02*
X8Y480D01*
X621Y480D02*
X627Y480D01*
X1804Y480D02*
X1811Y480D01*
X1Y479D02*
X8Y479D01*
X621Y479D02*
X627Y479D01*
X1804Y479D02*
X1811Y479D01*
X1Y478D02*
X8Y478D01*
X621Y478D02*
X627Y478D01*
X1804Y478D02*
X1811Y478D01*
X1Y477D02*
X8Y477D01*
X621Y477D02*
X627Y477D01*
X1804Y477D02*
X1811Y477D01*
X1Y476D02*
X8Y476D01*
X621Y476D02*
X643Y476D01*
X1804Y476D02*
X1811Y476D01*
X1Y475D02*
X8Y475D01*
X621Y475D02*
X644Y475D01*
X1804Y475D02*
X1811Y475D01*
X1Y474D02*
X8Y474D01*
X621Y474D02*
X645Y474D01*
X1804Y474D02*
X1811Y474D01*
X1Y473D02*
X8Y473D01*
X621Y473D02*
X645Y473D01*
X1804Y473D02*
X1811Y473D01*
X1Y472D02*
X8Y472D01*
X621Y472D02*
X644Y472D01*
X1804Y472D02*
X1811Y472D01*
X1Y471D02*
X8Y471D01*
X622Y471D02*
X644Y471D01*
X1804Y471D02*
X1811Y471D01*
X1Y470D02*
X8Y470D01*
X623Y470D02*
X642Y470D01*
X1804Y470D02*
X1811Y470D01*
X1Y469D02*
X8Y469D01*
X1804Y469D02*
X1811Y469D01*
X1Y468D02*
X8Y468D01*
X1804Y468D02*
X1811Y468D01*
X1Y467D02*
X8Y467D01*
X1804Y467D02*
X1811Y467D01*
X1Y466D02*
X8Y466D01*
X1804Y466D02*
X1811Y466D01*
X1Y465D02*
X8Y465D01*
X1804Y465D02*
X1811Y465D01*
X1Y464D02*
X8Y464D01*
X1804Y464D02*
X1811Y464D01*
X1Y463D02*
X8Y463D01*
X1804Y463D02*
X1811Y463D01*
X1Y462D02*
X8Y462D01*
X1804Y462D02*
X1811Y462D01*
X1Y461D02*
X8Y461D01*
X1804Y461D02*
X1811Y461D01*
X1Y460D02*
X8Y460D01*
X1804Y460D02*
X1811Y460D01*
X1Y459D02*
X8Y459D01*
X1804Y459D02*
X1811Y459D01*
X1Y458D02*
X8Y458D01*
X1804Y458D02*
X1811Y458D01*
X1Y457D02*
X8Y457D01*
X1804Y457D02*
X1811Y457D01*
X1Y456D02*
X8Y456D01*
X1804Y456D02*
X1811Y456D01*
X1Y455D02*
X8Y455D01*
X1804Y455D02*
X1811Y455D01*
X1Y454D02*
X8Y454D01*
X626Y454D02*
X669Y454D01*
X1804Y454D02*
X1811Y454D01*
X1Y453D02*
X8Y453D01*
X624Y453D02*
X671Y453D01*
X1804Y453D02*
X1811Y453D01*
X1Y452D02*
X8Y452D01*
X623Y452D02*
X672Y452D01*
X1804Y452D02*
X1811Y452D01*
X1Y451D02*
X8Y451D01*
X622Y451D02*
X673Y451D01*
X1804Y451D02*
X1811Y451D01*
X1Y450D02*
X8Y450D01*
X622Y450D02*
X673Y450D01*
X1804Y450D02*
X1811Y450D01*
X1Y449D02*
X8Y449D01*
X621Y449D02*
X674Y449D01*
X1804Y449D02*
X1811Y449D01*
X1Y448D02*
X8Y448D01*
X621Y448D02*
X674Y448D01*
X1804Y448D02*
X1811Y448D01*
X1Y447D02*
X8Y447D01*
X621Y447D02*
X627Y447D01*
X668Y447D02*
X674Y447D01*
X1804Y447D02*
X1811Y447D01*
X1Y446D02*
X8Y446D01*
X621Y446D02*
X627Y446D01*
X668Y446D02*
X674Y446D01*
X1804Y446D02*
X1811Y446D01*
X1Y445D02*
X8Y445D01*
X621Y445D02*
X627Y445D01*
X668Y445D02*
X674Y445D01*
X1804Y445D02*
X1811Y445D01*
X1Y444D02*
X8Y444D01*
X621Y444D02*
X627Y444D01*
X668Y444D02*
X674Y444D01*
X1804Y444D02*
X1811Y444D01*
X1Y443D02*
X8Y443D01*
X621Y443D02*
X627Y443D01*
X668Y443D02*
X674Y443D01*
X1804Y443D02*
X1811Y443D01*
X1Y442D02*
X8Y442D01*
X621Y442D02*
X627Y442D01*
X668Y442D02*
X674Y442D01*
X1804Y442D02*
X1811Y442D01*
X1Y441D02*
X8Y441D01*
X621Y441D02*
X627Y441D01*
X668Y441D02*
X674Y441D01*
X1804Y441D02*
X1811Y441D01*
X1Y440D02*
X8Y440D01*
X621Y440D02*
X627Y440D01*
X668Y440D02*
X674Y440D01*
X1804Y440D02*
X1811Y440D01*
X1Y439D02*
X8Y439D01*
X621Y439D02*
X627Y439D01*
X668Y439D02*
X674Y439D01*
X1804Y439D02*
X1811Y439D01*
X1Y438D02*
X8Y438D01*
X621Y438D02*
X627Y438D01*
X668Y438D02*
X674Y438D01*
X1804Y438D02*
X1811Y438D01*
X1Y437D02*
X8Y437D01*
X621Y437D02*
X627Y437D01*
X668Y437D02*
X674Y437D01*
X1804Y437D02*
X1811Y437D01*
X1Y436D02*
X8Y436D01*
X621Y436D02*
X627Y436D01*
X668Y436D02*
X674Y436D01*
X1804Y436D02*
X1811Y436D01*
X1Y435D02*
X8Y435D01*
X621Y435D02*
X627Y435D01*
X668Y435D02*
X674Y435D01*
X1804Y435D02*
X1811Y435D01*
X1Y434D02*
X8Y434D01*
X621Y434D02*
X627Y434D01*
X668Y434D02*
X674Y434D01*
X1804Y434D02*
X1811Y434D01*
X1Y433D02*
X8Y433D01*
X621Y433D02*
X627Y433D01*
X668Y433D02*
X674Y433D01*
X1804Y433D02*
X1811Y433D01*
X1Y432D02*
X8Y432D01*
X621Y432D02*
X627Y432D01*
X668Y432D02*
X674Y432D01*
X1804Y432D02*
X1811Y432D01*
X1Y431D02*
X8Y431D01*
X621Y431D02*
X627Y431D01*
X668Y431D02*
X674Y431D01*
X1804Y431D02*
X1811Y431D01*
X1Y430D02*
X8Y430D01*
X621Y430D02*
X627Y430D01*
X668Y430D02*
X674Y430D01*
X1804Y430D02*
X1811Y430D01*
X1Y429D02*
X8Y429D01*
X621Y429D02*
X627Y429D01*
X668Y429D02*
X674Y429D01*
X1804Y429D02*
X1811Y429D01*
X1Y428D02*
X8Y428D01*
X621Y428D02*
X627Y428D01*
X668Y428D02*
X674Y428D01*
X1804Y428D02*
X1811Y428D01*
X1Y427D02*
X8Y427D01*
X621Y427D02*
X627Y427D01*
X668Y427D02*
X674Y427D01*
X1804Y427D02*
X1811Y427D01*
X1Y426D02*
X8Y426D01*
X464Y426D02*
X544Y426D01*
X621Y426D02*
X674Y426D01*
X1804Y426D02*
X1811Y426D01*
X1Y425D02*
X8Y425D01*
X464Y425D02*
X544Y425D01*
X621Y425D02*
X674Y425D01*
X1804Y425D02*
X1811Y425D01*
X1Y424D02*
X8Y424D01*
X464Y424D02*
X544Y424D01*
X622Y424D02*
X674Y424D01*
X1804Y424D02*
X1811Y424D01*
X1Y423D02*
X8Y423D01*
X460Y423D02*
X549Y423D01*
X622Y423D02*
X673Y423D01*
X1804Y423D02*
X1811Y423D01*
X1Y422D02*
X8Y422D01*
X459Y422D02*
X549Y422D01*
X623Y422D02*
X672Y422D01*
X1804Y422D02*
X1811Y422D01*
X1Y421D02*
X8Y421D01*
X459Y421D02*
X549Y421D01*
X624Y421D02*
X671Y421D01*
X1804Y421D02*
X1811Y421D01*
X1Y420D02*
X8Y420D01*
X459Y420D02*
X549Y420D01*
X626Y420D02*
X669Y420D01*
X1804Y420D02*
X1811Y420D01*
X1Y419D02*
X8Y419D01*
X459Y419D02*
X549Y419D01*
X1804Y419D02*
X1811Y419D01*
X1Y418D02*
X8Y418D01*
X459Y418D02*
X468Y418D01*
X540Y418D02*
X549Y418D01*
X1804Y418D02*
X1811Y418D01*
X1Y417D02*
X8Y417D01*
X459Y417D02*
X468Y417D01*
X540Y417D02*
X549Y417D01*
X1804Y417D02*
X1811Y417D01*
X1Y416D02*
X8Y416D01*
X459Y416D02*
X468Y416D01*
X540Y416D02*
X549Y416D01*
X1804Y416D02*
X1811Y416D01*
X1Y415D02*
X8Y415D01*
X459Y415D02*
X468Y415D01*
X540Y415D02*
X549Y415D01*
X1804Y415D02*
X1811Y415D01*
X1Y414D02*
X8Y414D01*
X459Y414D02*
X468Y414D01*
X540Y414D02*
X549Y414D01*
X1804Y414D02*
X1811Y414D01*
X1Y413D02*
X8Y413D01*
X459Y413D02*
X468Y413D01*
X540Y413D02*
X549Y413D01*
X1804Y413D02*
X1811Y413D01*
X1Y412D02*
X8Y412D01*
X459Y412D02*
X468Y412D01*
X540Y412D02*
X549Y412D01*
X1804Y412D02*
X1811Y412D01*
X1Y411D02*
X8Y411D01*
X459Y411D02*
X468Y411D01*
X540Y411D02*
X549Y411D01*
X1804Y411D02*
X1811Y411D01*
X1Y410D02*
X8Y410D01*
X459Y410D02*
X468Y410D01*
X540Y410D02*
X549Y410D01*
X1804Y410D02*
X1811Y410D01*
X1Y409D02*
X8Y409D01*
X459Y409D02*
X468Y409D01*
X540Y409D02*
X549Y409D01*
X1804Y409D02*
X1811Y409D01*
X1Y408D02*
X8Y408D01*
X459Y408D02*
X468Y408D01*
X540Y408D02*
X549Y408D01*
X1804Y408D02*
X1811Y408D01*
X1Y407D02*
X8Y407D01*
X459Y407D02*
X468Y407D01*
X540Y407D02*
X549Y407D01*
X1804Y407D02*
X1811Y407D01*
X1Y406D02*
X8Y406D01*
X459Y406D02*
X468Y406D01*
X540Y406D02*
X549Y406D01*
X1804Y406D02*
X1811Y406D01*
X1Y405D02*
X8Y405D01*
X459Y405D02*
X468Y405D01*
X540Y405D02*
X549Y405D01*
X1804Y405D02*
X1811Y405D01*
X1Y404D02*
X8Y404D01*
X459Y404D02*
X468Y404D01*
X540Y404D02*
X549Y404D01*
X1804Y404D02*
X1811Y404D01*
X1Y403D02*
X8Y403D01*
X459Y403D02*
X468Y403D01*
X540Y403D02*
X549Y403D01*
X622Y403D02*
X673Y403D01*
X1804Y403D02*
X1811Y403D01*
X1Y402D02*
X8Y402D01*
X459Y402D02*
X468Y402D01*
X540Y402D02*
X549Y402D01*
X621Y402D02*
X674Y402D01*
X1590Y402D02*
X1618Y402D01*
X1690Y402D02*
X1718Y402D01*
X1740Y402D02*
X1743Y402D01*
X1768Y402D02*
X1771Y402D01*
X1804Y402D02*
X1811Y402D01*
X1Y401D02*
X8Y401D01*
X459Y401D02*
X468Y401D01*
X540Y401D02*
X549Y401D01*
X621Y401D02*
X674Y401D01*
X1589Y401D02*
X1619Y401D01*
X1689Y401D02*
X1720Y401D01*
X1739Y401D02*
X1744Y401D01*
X1767Y401D02*
X1772Y401D01*
X1804Y401D02*
X1811Y401D01*
X1Y400D02*
X8Y400D01*
X459Y400D02*
X468Y400D01*
X540Y400D02*
X549Y400D01*
X621Y400D02*
X674Y400D01*
X1588Y400D02*
X1620Y400D01*
X1689Y400D02*
X1720Y400D01*
X1739Y400D02*
X1745Y400D01*
X1766Y400D02*
X1772Y400D01*
X1804Y400D02*
X1811Y400D01*
X1Y399D02*
X8Y399D01*
X459Y399D02*
X468Y399D01*
X540Y399D02*
X549Y399D01*
X621Y399D02*
X674Y399D01*
X1588Y399D02*
X1621Y399D01*
X1689Y399D02*
X1721Y399D01*
X1739Y399D02*
X1745Y399D01*
X1766Y399D02*
X1772Y399D01*
X1804Y399D02*
X1811Y399D01*
X1Y398D02*
X8Y398D01*
X459Y398D02*
X468Y398D01*
X540Y398D02*
X549Y398D01*
X622Y398D02*
X673Y398D01*
X1588Y398D02*
X1621Y398D01*
X1689Y398D02*
X1722Y398D01*
X1739Y398D02*
X1745Y398D01*
X1766Y398D02*
X1772Y398D01*
X1804Y398D02*
X1811Y398D01*
X1Y397D02*
X8Y397D01*
X459Y397D02*
X468Y397D01*
X540Y397D02*
X549Y397D01*
X624Y397D02*
X671Y397D01*
X1589Y397D02*
X1622Y397D01*
X1689Y397D02*
X1722Y397D01*
X1739Y397D02*
X1745Y397D01*
X1766Y397D02*
X1772Y397D01*
X1804Y397D02*
X1811Y397D01*
X1Y396D02*
X8Y396D01*
X459Y396D02*
X468Y396D01*
X540Y396D02*
X549Y396D01*
X635Y396D02*
X644Y396D01*
X1590Y396D02*
X1622Y396D01*
X1691Y396D02*
X1722Y396D01*
X1739Y396D02*
X1745Y396D01*
X1766Y396D02*
X1772Y396D01*
X1804Y396D02*
X1811Y396D01*
X1Y395D02*
X8Y395D01*
X459Y395D02*
X468Y395D01*
X540Y395D02*
X549Y395D01*
X636Y395D02*
X645Y395D01*
X1616Y395D02*
X1622Y395D01*
X1716Y395D02*
X1722Y395D01*
X1739Y395D02*
X1745Y395D01*
X1766Y395D02*
X1772Y395D01*
X1804Y395D02*
X1811Y395D01*
X1Y394D02*
X8Y394D01*
X459Y394D02*
X468Y394D01*
X540Y394D02*
X549Y394D01*
X637Y394D02*
X645Y394D01*
X1616Y394D02*
X1622Y394D01*
X1716Y394D02*
X1722Y394D01*
X1739Y394D02*
X1745Y394D01*
X1766Y394D02*
X1772Y394D01*
X1804Y394D02*
X1811Y394D01*
X1Y393D02*
X8Y393D01*
X459Y393D02*
X468Y393D01*
X540Y393D02*
X549Y393D01*
X637Y393D02*
X646Y393D01*
X1616Y393D02*
X1622Y393D01*
X1716Y393D02*
X1722Y393D01*
X1739Y393D02*
X1745Y393D01*
X1766Y393D02*
X1772Y393D01*
X1804Y393D02*
X1811Y393D01*
X1Y392D02*
X8Y392D01*
X459Y392D02*
X468Y392D01*
X540Y392D02*
X549Y392D01*
X636Y392D02*
X647Y392D01*
X1616Y392D02*
X1622Y392D01*
X1716Y392D02*
X1722Y392D01*
X1739Y392D02*
X1745Y392D01*
X1766Y392D02*
X1772Y392D01*
X1804Y392D02*
X1811Y392D01*
X1Y391D02*
X8Y391D01*
X459Y391D02*
X468Y391D01*
X540Y391D02*
X549Y391D01*
X635Y391D02*
X648Y391D01*
X1616Y391D02*
X1622Y391D01*
X1716Y391D02*
X1722Y391D01*
X1739Y391D02*
X1745Y391D01*
X1766Y391D02*
X1772Y391D01*
X1804Y391D02*
X1811Y391D01*
X1Y390D02*
X8Y390D01*
X459Y390D02*
X468Y390D01*
X540Y390D02*
X549Y390D01*
X634Y390D02*
X649Y390D01*
X1616Y390D02*
X1622Y390D01*
X1716Y390D02*
X1722Y390D01*
X1739Y390D02*
X1745Y390D01*
X1766Y390D02*
X1772Y390D01*
X1804Y390D02*
X1811Y390D01*
X1Y389D02*
X8Y389D01*
X459Y389D02*
X468Y389D01*
X540Y389D02*
X549Y389D01*
X634Y389D02*
X650Y389D01*
X1616Y389D02*
X1622Y389D01*
X1716Y389D02*
X1722Y389D01*
X1739Y389D02*
X1745Y389D01*
X1766Y389D02*
X1772Y389D01*
X1804Y389D02*
X1811Y389D01*
X1Y388D02*
X8Y388D01*
X459Y388D02*
X468Y388D01*
X540Y388D02*
X549Y388D01*
X633Y388D02*
X651Y388D01*
X1616Y388D02*
X1622Y388D01*
X1716Y388D02*
X1722Y388D01*
X1739Y388D02*
X1745Y388D01*
X1766Y388D02*
X1772Y388D01*
X1804Y388D02*
X1811Y388D01*
X1Y387D02*
X8Y387D01*
X459Y387D02*
X468Y387D01*
X540Y387D02*
X549Y387D01*
X632Y387D02*
X640Y387D01*
X643Y387D02*
X651Y387D01*
X1616Y387D02*
X1622Y387D01*
X1716Y387D02*
X1722Y387D01*
X1739Y387D02*
X1745Y387D01*
X1766Y387D02*
X1772Y387D01*
X1804Y387D02*
X1811Y387D01*
X1Y386D02*
X8Y386D01*
X459Y386D02*
X468Y386D01*
X540Y386D02*
X549Y386D01*
X631Y386D02*
X639Y386D01*
X644Y386D02*
X652Y386D01*
X1616Y386D02*
X1622Y386D01*
X1716Y386D02*
X1722Y386D01*
X1739Y386D02*
X1745Y386D01*
X1765Y386D02*
X1772Y386D01*
X1804Y386D02*
X1811Y386D01*
X1Y385D02*
X8Y385D01*
X459Y385D02*
X468Y385D01*
X540Y385D02*
X549Y385D01*
X630Y385D02*
X638Y385D01*
X645Y385D02*
X653Y385D01*
X1616Y385D02*
X1622Y385D01*
X1716Y385D02*
X1722Y385D01*
X1739Y385D02*
X1746Y385D01*
X1765Y385D02*
X1772Y385D01*
X1804Y385D02*
X1811Y385D01*
X1Y384D02*
X8Y384D01*
X459Y384D02*
X468Y384D01*
X540Y384D02*
X549Y384D01*
X629Y384D02*
X638Y384D01*
X646Y384D02*
X654Y384D01*
X1616Y384D02*
X1622Y384D01*
X1716Y384D02*
X1722Y384D01*
X1740Y384D02*
X1746Y384D01*
X1765Y384D02*
X1771Y384D01*
X1804Y384D02*
X1811Y384D01*
X1Y383D02*
X8Y383D01*
X459Y383D02*
X468Y383D01*
X540Y383D02*
X549Y383D01*
X628Y383D02*
X637Y383D01*
X647Y383D02*
X655Y383D01*
X1616Y383D02*
X1622Y383D01*
X1716Y383D02*
X1722Y383D01*
X1740Y383D02*
X1747Y383D01*
X1764Y383D02*
X1771Y383D01*
X1804Y383D02*
X1811Y383D01*
X1Y382D02*
X8Y382D01*
X459Y382D02*
X468Y382D01*
X540Y382D02*
X549Y382D01*
X628Y382D02*
X636Y382D01*
X647Y382D02*
X656Y382D01*
X1616Y382D02*
X1622Y382D01*
X1716Y382D02*
X1722Y382D01*
X1740Y382D02*
X1747Y382D01*
X1764Y382D02*
X1770Y382D01*
X1804Y382D02*
X1811Y382D01*
X1Y381D02*
X8Y381D01*
X459Y381D02*
X468Y381D01*
X540Y381D02*
X549Y381D01*
X627Y381D02*
X635Y381D01*
X648Y381D02*
X657Y381D01*
X1615Y381D02*
X1622Y381D01*
X1715Y381D02*
X1722Y381D01*
X1741Y381D02*
X1747Y381D01*
X1763Y381D02*
X1770Y381D01*
X1804Y381D02*
X1811Y381D01*
X1Y380D02*
X8Y380D01*
X459Y380D02*
X468Y380D01*
X540Y380D02*
X549Y380D01*
X626Y380D02*
X634Y380D01*
X649Y380D02*
X657Y380D01*
X1614Y380D02*
X1621Y380D01*
X1715Y380D02*
X1722Y380D01*
X1741Y380D02*
X1748Y380D01*
X1763Y380D02*
X1770Y380D01*
X1804Y380D02*
X1811Y380D01*
X1Y379D02*
X8Y379D01*
X459Y379D02*
X468Y379D01*
X540Y379D02*
X549Y379D01*
X625Y379D02*
X633Y379D01*
X650Y379D02*
X658Y379D01*
X1597Y379D02*
X1621Y379D01*
X1698Y379D02*
X1721Y379D01*
X1742Y379D02*
X1748Y379D01*
X1763Y379D02*
X1769Y379D01*
X1804Y379D02*
X1811Y379D01*
X1Y378D02*
X8Y378D01*
X459Y378D02*
X468Y378D01*
X540Y378D02*
X549Y378D01*
X624Y378D02*
X632Y378D01*
X651Y378D02*
X659Y378D01*
X1596Y378D02*
X1621Y378D01*
X1696Y378D02*
X1721Y378D01*
X1742Y378D02*
X1749Y378D01*
X1762Y378D02*
X1769Y378D01*
X1804Y378D02*
X1811Y378D01*
X1Y377D02*
X8Y377D01*
X459Y377D02*
X468Y377D01*
X540Y377D02*
X549Y377D01*
X623Y377D02*
X632Y377D01*
X652Y377D02*
X659Y377D01*
X1595Y377D02*
X1620Y377D01*
X1696Y377D02*
X1720Y377D01*
X1742Y377D02*
X1749Y377D01*
X1762Y377D02*
X1768Y377D01*
X1804Y377D02*
X1811Y377D01*
X1Y376D02*
X8Y376D01*
X459Y376D02*
X468Y376D01*
X540Y376D02*
X549Y376D01*
X622Y376D02*
X631Y376D01*
X653Y376D02*
X659Y376D01*
X1595Y376D02*
X1619Y376D01*
X1695Y376D02*
X1720Y376D01*
X1743Y376D02*
X1749Y376D01*
X1761Y376D02*
X1768Y376D01*
X1804Y376D02*
X1811Y376D01*
X1Y375D02*
X8Y375D01*
X459Y375D02*
X468Y375D01*
X540Y375D02*
X549Y375D01*
X622Y375D02*
X630Y375D01*
X653Y375D02*
X659Y375D01*
X1595Y375D02*
X1619Y375D01*
X1695Y375D02*
X1720Y375D01*
X1743Y375D02*
X1750Y375D01*
X1761Y375D02*
X1768Y375D01*
X1804Y375D02*
X1811Y375D01*
X1Y374D02*
X8Y374D01*
X459Y374D02*
X468Y374D01*
X540Y374D02*
X549Y374D01*
X621Y374D02*
X629Y374D01*
X654Y374D02*
X658Y374D01*
X1595Y374D02*
X1620Y374D01*
X1696Y374D02*
X1721Y374D01*
X1744Y374D02*
X1750Y374D01*
X1761Y374D02*
X1767Y374D01*
X1804Y374D02*
X1811Y374D01*
X1Y373D02*
X8Y373D01*
X459Y373D02*
X468Y373D01*
X540Y373D02*
X549Y373D01*
X621Y373D02*
X628Y373D01*
X656Y373D02*
X657Y373D01*
X1596Y373D02*
X1621Y373D01*
X1697Y373D02*
X1721Y373D01*
X1744Y373D02*
X1751Y373D01*
X1760Y373D02*
X1767Y373D01*
X1804Y373D02*
X1811Y373D01*
X1Y372D02*
X8Y372D01*
X459Y372D02*
X468Y372D01*
X540Y372D02*
X549Y372D01*
X621Y372D02*
X627Y372D01*
X1613Y372D02*
X1621Y372D01*
X1713Y372D02*
X1721Y372D01*
X1744Y372D02*
X1751Y372D01*
X1760Y372D02*
X1766Y372D01*
X1804Y372D02*
X1811Y372D01*
X1Y371D02*
X8Y371D01*
X459Y371D02*
X468Y371D01*
X540Y371D02*
X549Y371D01*
X622Y371D02*
X626Y371D01*
X1615Y371D02*
X1621Y371D01*
X1715Y371D02*
X1722Y371D01*
X1745Y371D02*
X1751Y371D01*
X1760Y371D02*
X1766Y371D01*
X1804Y371D02*
X1811Y371D01*
X1Y370D02*
X8Y370D01*
X459Y370D02*
X468Y370D01*
X540Y370D02*
X549Y370D01*
X623Y370D02*
X625Y370D01*
X1615Y370D02*
X1622Y370D01*
X1651Y370D02*
X1659Y370D01*
X1716Y370D02*
X1722Y370D01*
X1745Y370D02*
X1752Y370D01*
X1759Y370D02*
X1766Y370D01*
X1804Y370D02*
X1811Y370D01*
X1Y369D02*
X8Y369D01*
X459Y369D02*
X468Y369D01*
X540Y369D02*
X549Y369D01*
X1616Y369D02*
X1622Y369D01*
X1649Y369D02*
X1661Y369D01*
X1716Y369D02*
X1722Y369D01*
X1746Y369D02*
X1752Y369D01*
X1759Y369D02*
X1765Y369D01*
X1804Y369D02*
X1811Y369D01*
X1Y368D02*
X8Y368D01*
X459Y368D02*
X468Y368D01*
X540Y368D02*
X549Y368D01*
X1616Y368D02*
X1622Y368D01*
X1649Y368D02*
X1661Y368D01*
X1716Y368D02*
X1722Y368D01*
X1746Y368D02*
X1753Y368D01*
X1758Y368D02*
X1765Y368D01*
X1804Y368D02*
X1811Y368D01*
X1Y367D02*
X8Y367D01*
X459Y367D02*
X468Y367D01*
X540Y367D02*
X549Y367D01*
X1616Y367D02*
X1622Y367D01*
X1649Y367D02*
X1661Y367D01*
X1716Y367D02*
X1722Y367D01*
X1746Y367D02*
X1753Y367D01*
X1758Y367D02*
X1765Y367D01*
X1804Y367D02*
X1811Y367D01*
X1Y366D02*
X8Y366D01*
X459Y366D02*
X468Y366D01*
X540Y366D02*
X549Y366D01*
X1616Y366D02*
X1622Y366D01*
X1649Y366D02*
X1662Y366D01*
X1716Y366D02*
X1722Y366D01*
X1747Y366D02*
X1753Y366D01*
X1758Y366D02*
X1764Y366D01*
X1804Y366D02*
X1811Y366D01*
X1Y365D02*
X8Y365D01*
X459Y365D02*
X468Y365D01*
X540Y365D02*
X549Y365D01*
X1616Y365D02*
X1622Y365D01*
X1649Y365D02*
X1662Y365D01*
X1716Y365D02*
X1722Y365D01*
X1747Y365D02*
X1754Y365D01*
X1757Y365D02*
X1764Y365D01*
X1804Y365D02*
X1811Y365D01*
X1Y364D02*
X8Y364D01*
X459Y364D02*
X468Y364D01*
X540Y364D02*
X549Y364D01*
X1616Y364D02*
X1622Y364D01*
X1649Y364D02*
X1662Y364D01*
X1716Y364D02*
X1722Y364D01*
X1747Y364D02*
X1754Y364D01*
X1757Y364D02*
X1763Y364D01*
X1804Y364D02*
X1811Y364D01*
X1Y363D02*
X8Y363D01*
X459Y363D02*
X468Y363D01*
X540Y363D02*
X549Y363D01*
X1616Y363D02*
X1622Y363D01*
X1649Y363D02*
X1662Y363D01*
X1716Y363D02*
X1722Y363D01*
X1748Y363D02*
X1754Y363D01*
X1756Y363D02*
X1763Y363D01*
X1804Y363D02*
X1811Y363D01*
X1Y362D02*
X8Y362D01*
X459Y362D02*
X468Y362D01*
X540Y362D02*
X549Y362D01*
X1616Y362D02*
X1622Y362D01*
X1649Y362D02*
X1662Y362D01*
X1716Y362D02*
X1722Y362D01*
X1748Y362D02*
X1763Y362D01*
X1804Y362D02*
X1811Y362D01*
X1Y361D02*
X8Y361D01*
X459Y361D02*
X468Y361D01*
X540Y361D02*
X549Y361D01*
X1616Y361D02*
X1622Y361D01*
X1649Y361D02*
X1662Y361D01*
X1716Y361D02*
X1722Y361D01*
X1749Y361D02*
X1762Y361D01*
X1804Y361D02*
X1811Y361D01*
X1Y360D02*
X8Y360D01*
X459Y360D02*
X468Y360D01*
X540Y360D02*
X549Y360D01*
X1616Y360D02*
X1622Y360D01*
X1649Y360D02*
X1661Y360D01*
X1716Y360D02*
X1722Y360D01*
X1749Y360D02*
X1762Y360D01*
X1804Y360D02*
X1811Y360D01*
X1Y359D02*
X8Y359D01*
X459Y359D02*
X468Y359D01*
X540Y359D02*
X549Y359D01*
X1616Y359D02*
X1622Y359D01*
X1649Y359D02*
X1661Y359D01*
X1716Y359D02*
X1722Y359D01*
X1749Y359D02*
X1761Y359D01*
X1804Y359D02*
X1811Y359D01*
X1Y358D02*
X8Y358D01*
X459Y358D02*
X468Y358D01*
X540Y358D02*
X549Y358D01*
X1616Y358D02*
X1622Y358D01*
X1650Y358D02*
X1660Y358D01*
X1716Y358D02*
X1722Y358D01*
X1750Y358D02*
X1761Y358D01*
X1804Y358D02*
X1811Y358D01*
X1Y357D02*
X8Y357D01*
X459Y357D02*
X468Y357D01*
X540Y357D02*
X549Y357D01*
X1616Y357D02*
X1622Y357D01*
X1716Y357D02*
X1722Y357D01*
X1750Y357D02*
X1761Y357D01*
X1804Y357D02*
X1811Y357D01*
X1Y356D02*
X8Y356D01*
X459Y356D02*
X468Y356D01*
X540Y356D02*
X549Y356D01*
X1616Y356D02*
X1622Y356D01*
X1716Y356D02*
X1722Y356D01*
X1751Y356D02*
X1760Y356D01*
X1804Y356D02*
X1811Y356D01*
X1Y355D02*
X8Y355D01*
X459Y355D02*
X468Y355D01*
X540Y355D02*
X549Y355D01*
X1590Y355D02*
X1622Y355D01*
X1690Y355D02*
X1722Y355D01*
X1751Y355D02*
X1760Y355D01*
X1804Y355D02*
X1811Y355D01*
X1Y354D02*
X8Y354D01*
X459Y354D02*
X468Y354D01*
X540Y354D02*
X549Y354D01*
X1589Y354D02*
X1621Y354D01*
X1689Y354D02*
X1722Y354D01*
X1751Y354D02*
X1759Y354D01*
X1804Y354D02*
X1811Y354D01*
X1Y353D02*
X8Y353D01*
X459Y353D02*
X468Y353D01*
X540Y353D02*
X549Y353D01*
X1588Y353D02*
X1621Y353D01*
X1689Y353D02*
X1722Y353D01*
X1752Y353D02*
X1759Y353D01*
X1804Y353D02*
X1811Y353D01*
X1Y352D02*
X8Y352D01*
X459Y352D02*
X468Y352D01*
X540Y352D02*
X549Y352D01*
X1588Y352D02*
X1621Y352D01*
X1689Y352D02*
X1721Y352D01*
X1752Y352D02*
X1759Y352D01*
X1804Y352D02*
X1811Y352D01*
X1Y351D02*
X8Y351D01*
X459Y351D02*
X468Y351D01*
X540Y351D02*
X549Y351D01*
X1588Y351D02*
X1620Y351D01*
X1689Y351D02*
X1720Y351D01*
X1753Y351D02*
X1758Y351D01*
X1804Y351D02*
X1811Y351D01*
X1Y350D02*
X8Y350D01*
X459Y350D02*
X468Y350D01*
X540Y350D02*
X549Y350D01*
X1589Y350D02*
X1619Y350D01*
X1689Y350D02*
X1719Y350D01*
X1753Y350D02*
X1758Y350D01*
X1804Y350D02*
X1811Y350D01*
X1Y349D02*
X8Y349D01*
X459Y349D02*
X468Y349D01*
X540Y349D02*
X549Y349D01*
X1590Y349D02*
X1617Y349D01*
X1690Y349D02*
X1717Y349D01*
X1754Y349D02*
X1757Y349D01*
X1804Y349D02*
X1811Y349D01*
X1Y348D02*
X8Y348D01*
X459Y348D02*
X468Y348D01*
X540Y348D02*
X549Y348D01*
X1804Y348D02*
X1811Y348D01*
X1Y347D02*
X8Y347D01*
X459Y347D02*
X468Y347D01*
X540Y347D02*
X549Y347D01*
X1804Y347D02*
X1811Y347D01*
X1Y346D02*
X8Y346D01*
X459Y346D02*
X468Y346D01*
X540Y346D02*
X549Y346D01*
X1804Y346D02*
X1811Y346D01*
X1Y345D02*
X8Y345D01*
X459Y345D02*
X468Y345D01*
X540Y345D02*
X549Y345D01*
X1804Y345D02*
X1811Y345D01*
X1Y344D02*
X8Y344D01*
X459Y344D02*
X468Y344D01*
X540Y344D02*
X549Y344D01*
X1804Y344D02*
X1811Y344D01*
X1Y343D02*
X8Y343D01*
X459Y343D02*
X468Y343D01*
X540Y343D02*
X549Y343D01*
X1804Y343D02*
X1811Y343D01*
X1Y342D02*
X8Y342D01*
X459Y342D02*
X468Y342D01*
X540Y342D02*
X549Y342D01*
X1804Y342D02*
X1811Y342D01*
X1Y341D02*
X8Y341D01*
X459Y341D02*
X468Y341D01*
X540Y341D02*
X549Y341D01*
X1804Y341D02*
X1811Y341D01*
X1Y340D02*
X8Y340D01*
X459Y340D02*
X468Y340D01*
X540Y340D02*
X549Y340D01*
X1804Y340D02*
X1811Y340D01*
X1Y339D02*
X8Y339D01*
X459Y339D02*
X468Y339D01*
X540Y339D02*
X549Y339D01*
X1804Y339D02*
X1811Y339D01*
X1Y338D02*
X8Y338D01*
X459Y338D02*
X468Y338D01*
X540Y338D02*
X549Y338D01*
X1804Y338D02*
X1811Y338D01*
X1Y337D02*
X8Y337D01*
X459Y337D02*
X468Y337D01*
X540Y337D02*
X549Y337D01*
X1804Y337D02*
X1811Y337D01*
X1Y336D02*
X8Y336D01*
X459Y336D02*
X468Y336D01*
X540Y336D02*
X549Y336D01*
X1804Y336D02*
X1811Y336D01*
X1Y335D02*
X8Y335D01*
X459Y335D02*
X468Y335D01*
X540Y335D02*
X549Y335D01*
X1804Y335D02*
X1811Y335D01*
X1Y334D02*
X8Y334D01*
X459Y334D02*
X468Y334D01*
X540Y334D02*
X549Y334D01*
X1804Y334D02*
X1811Y334D01*
X1Y333D02*
X8Y333D01*
X459Y333D02*
X468Y333D01*
X540Y333D02*
X549Y333D01*
X1804Y333D02*
X1811Y333D01*
X1Y332D02*
X8Y332D01*
X459Y332D02*
X468Y332D01*
X540Y332D02*
X549Y332D01*
X1804Y332D02*
X1811Y332D01*
X1Y331D02*
X8Y331D01*
X459Y331D02*
X468Y331D01*
X540Y331D02*
X549Y331D01*
X1804Y331D02*
X1811Y331D01*
X1Y330D02*
X8Y330D01*
X459Y330D02*
X468Y330D01*
X540Y330D02*
X549Y330D01*
X1804Y330D02*
X1811Y330D01*
X1Y329D02*
X8Y329D01*
X459Y329D02*
X468Y329D01*
X540Y329D02*
X549Y329D01*
X1804Y329D02*
X1811Y329D01*
X1Y328D02*
X8Y328D01*
X459Y328D02*
X468Y328D01*
X540Y328D02*
X549Y328D01*
X1804Y328D02*
X1811Y328D01*
X1Y327D02*
X8Y327D01*
X459Y327D02*
X468Y327D01*
X540Y327D02*
X549Y327D01*
X1804Y327D02*
X1811Y327D01*
X1Y326D02*
X8Y326D01*
X459Y326D02*
X468Y326D01*
X540Y326D02*
X549Y326D01*
X1804Y326D02*
X1811Y326D01*
X1Y325D02*
X8Y325D01*
X459Y325D02*
X468Y325D01*
X540Y325D02*
X549Y325D01*
X1804Y325D02*
X1811Y325D01*
X1Y324D02*
X8Y324D01*
X459Y324D02*
X468Y324D01*
X540Y324D02*
X549Y324D01*
X1804Y324D02*
X1811Y324D01*
X1Y323D02*
X8Y323D01*
X459Y323D02*
X468Y323D01*
X540Y323D02*
X549Y323D01*
X1804Y323D02*
X1811Y323D01*
X1Y322D02*
X8Y322D01*
X459Y322D02*
X468Y322D01*
X540Y322D02*
X549Y322D01*
X1804Y322D02*
X1811Y322D01*
X1Y321D02*
X8Y321D01*
X459Y321D02*
X468Y321D01*
X540Y321D02*
X549Y321D01*
X1804Y321D02*
X1811Y321D01*
X1Y320D02*
X8Y320D01*
X459Y320D02*
X468Y320D01*
X540Y320D02*
X549Y320D01*
X1804Y320D02*
X1811Y320D01*
X1Y319D02*
X8Y319D01*
X459Y319D02*
X468Y319D01*
X540Y319D02*
X549Y319D01*
X1804Y319D02*
X1811Y319D01*
X1Y318D02*
X8Y318D01*
X459Y318D02*
X468Y318D01*
X540Y318D02*
X549Y318D01*
X1804Y318D02*
X1811Y318D01*
X1Y317D02*
X8Y317D01*
X459Y317D02*
X468Y317D01*
X540Y317D02*
X549Y317D01*
X1804Y317D02*
X1811Y317D01*
X1Y316D02*
X8Y316D01*
X459Y316D02*
X468Y316D01*
X540Y316D02*
X549Y316D01*
X1804Y316D02*
X1811Y316D01*
X1Y315D02*
X8Y315D01*
X459Y315D02*
X468Y315D01*
X540Y315D02*
X549Y315D01*
X1804Y315D02*
X1811Y315D01*
X1Y314D02*
X8Y314D01*
X459Y314D02*
X468Y314D01*
X540Y314D02*
X549Y314D01*
X1804Y314D02*
X1811Y314D01*
X1Y313D02*
X8Y313D01*
X459Y313D02*
X468Y313D01*
X540Y313D02*
X549Y313D01*
X1804Y313D02*
X1811Y313D01*
X1Y312D02*
X8Y312D01*
X459Y312D02*
X468Y312D01*
X540Y312D02*
X549Y312D01*
X1804Y312D02*
X1811Y312D01*
X1Y311D02*
X8Y311D01*
X459Y311D02*
X468Y311D01*
X540Y311D02*
X549Y311D01*
X1804Y311D02*
X1811Y311D01*
X1Y310D02*
X8Y310D01*
X459Y310D02*
X468Y310D01*
X540Y310D02*
X549Y310D01*
X1804Y310D02*
X1811Y310D01*
X1Y309D02*
X8Y309D01*
X459Y309D02*
X468Y309D01*
X540Y309D02*
X549Y309D01*
X1804Y309D02*
X1811Y309D01*
X1Y308D02*
X8Y308D01*
X459Y308D02*
X468Y308D01*
X540Y308D02*
X549Y308D01*
X1804Y308D02*
X1811Y308D01*
X1Y307D02*
X8Y307D01*
X459Y307D02*
X468Y307D01*
X540Y307D02*
X549Y307D01*
X1804Y307D02*
X1811Y307D01*
X1Y306D02*
X8Y306D01*
X459Y306D02*
X468Y306D01*
X540Y306D02*
X549Y306D01*
X1804Y306D02*
X1811Y306D01*
X1Y305D02*
X8Y305D01*
X459Y305D02*
X468Y305D01*
X540Y305D02*
X549Y305D01*
X1804Y305D02*
X1811Y305D01*
X1Y304D02*
X8Y304D01*
X459Y304D02*
X468Y304D01*
X540Y304D02*
X549Y304D01*
X1804Y304D02*
X1811Y304D01*
X1Y303D02*
X8Y303D01*
X459Y303D02*
X468Y303D01*
X540Y303D02*
X549Y303D01*
X630Y303D02*
X650Y303D01*
X1804Y303D02*
X1811Y303D01*
X1Y302D02*
X8Y302D01*
X459Y302D02*
X468Y302D01*
X540Y302D02*
X549Y302D01*
X628Y302D02*
X652Y302D01*
X1804Y302D02*
X1811Y302D01*
X1Y301D02*
X8Y301D01*
X459Y301D02*
X468Y301D01*
X540Y301D02*
X549Y301D01*
X627Y301D02*
X654Y301D01*
X1804Y301D02*
X1811Y301D01*
X1Y300D02*
X8Y300D01*
X459Y300D02*
X468Y300D01*
X540Y300D02*
X549Y300D01*
X626Y300D02*
X655Y300D01*
X1804Y300D02*
X1811Y300D01*
X1Y299D02*
X8Y299D01*
X459Y299D02*
X468Y299D01*
X540Y299D02*
X549Y299D01*
X625Y299D02*
X655Y299D01*
X1804Y299D02*
X1811Y299D01*
X1Y298D02*
X8Y298D01*
X459Y298D02*
X468Y298D01*
X540Y298D02*
X549Y298D01*
X624Y298D02*
X656Y298D01*
X1804Y298D02*
X1811Y298D01*
X1Y297D02*
X8Y297D01*
X459Y297D02*
X468Y297D01*
X540Y297D02*
X549Y297D01*
X623Y297D02*
X657Y297D01*
X1804Y297D02*
X1811Y297D01*
X1Y296D02*
X8Y296D01*
X459Y296D02*
X468Y296D01*
X540Y296D02*
X549Y296D01*
X623Y296D02*
X631Y296D01*
X650Y296D02*
X658Y296D01*
X1804Y296D02*
X1811Y296D01*
X1Y295D02*
X8Y295D01*
X459Y295D02*
X468Y295D01*
X540Y295D02*
X549Y295D01*
X622Y295D02*
X630Y295D01*
X651Y295D02*
X658Y295D01*
X1804Y295D02*
X1811Y295D01*
X1Y294D02*
X8Y294D01*
X459Y294D02*
X468Y294D01*
X540Y294D02*
X549Y294D01*
X622Y294D02*
X629Y294D01*
X652Y294D02*
X659Y294D01*
X1804Y294D02*
X1811Y294D01*
X1Y293D02*
X8Y293D01*
X459Y293D02*
X468Y293D01*
X540Y293D02*
X549Y293D01*
X621Y293D02*
X628Y293D01*
X652Y293D02*
X659Y293D01*
X1804Y293D02*
X1811Y293D01*
X1Y292D02*
X8Y292D01*
X459Y292D02*
X468Y292D01*
X540Y292D02*
X549Y292D01*
X621Y292D02*
X627Y292D01*
X653Y292D02*
X659Y292D01*
X1804Y292D02*
X1811Y292D01*
X1Y291D02*
X8Y291D01*
X459Y291D02*
X468Y291D01*
X540Y291D02*
X549Y291D01*
X621Y291D02*
X627Y291D01*
X653Y291D02*
X659Y291D01*
X1804Y291D02*
X1811Y291D01*
X1Y290D02*
X8Y290D01*
X459Y290D02*
X468Y290D01*
X540Y290D02*
X549Y290D01*
X621Y290D02*
X627Y290D01*
X653Y290D02*
X659Y290D01*
X1804Y290D02*
X1811Y290D01*
X1Y289D02*
X8Y289D01*
X459Y289D02*
X468Y289D01*
X540Y289D02*
X549Y289D01*
X621Y289D02*
X627Y289D01*
X653Y289D02*
X659Y289D01*
X1804Y289D02*
X1811Y289D01*
X1Y288D02*
X8Y288D01*
X459Y288D02*
X468Y288D01*
X540Y288D02*
X549Y288D01*
X621Y288D02*
X627Y288D01*
X653Y288D02*
X659Y288D01*
X1804Y288D02*
X1811Y288D01*
X1Y287D02*
X8Y287D01*
X459Y287D02*
X468Y287D01*
X540Y287D02*
X549Y287D01*
X621Y287D02*
X627Y287D01*
X653Y287D02*
X659Y287D01*
X1804Y287D02*
X1811Y287D01*
X1Y286D02*
X8Y286D01*
X459Y286D02*
X468Y286D01*
X540Y286D02*
X549Y286D01*
X621Y286D02*
X627Y286D01*
X653Y286D02*
X659Y286D01*
X1804Y286D02*
X1811Y286D01*
X1Y285D02*
X8Y285D01*
X459Y285D02*
X468Y285D01*
X540Y285D02*
X549Y285D01*
X621Y285D02*
X627Y285D01*
X653Y285D02*
X659Y285D01*
X1804Y285D02*
X1811Y285D01*
X1Y284D02*
X8Y284D01*
X459Y284D02*
X468Y284D01*
X540Y284D02*
X549Y284D01*
X621Y284D02*
X627Y284D01*
X653Y284D02*
X659Y284D01*
X1804Y284D02*
X1811Y284D01*
X1Y283D02*
X8Y283D01*
X459Y283D02*
X468Y283D01*
X540Y283D02*
X549Y283D01*
X621Y283D02*
X627Y283D01*
X653Y283D02*
X659Y283D01*
X1804Y283D02*
X1811Y283D01*
X1Y282D02*
X8Y282D01*
X459Y282D02*
X468Y282D01*
X540Y282D02*
X549Y282D01*
X621Y282D02*
X627Y282D01*
X653Y282D02*
X659Y282D01*
X1804Y282D02*
X1811Y282D01*
X1Y281D02*
X8Y281D01*
X459Y281D02*
X468Y281D01*
X540Y281D02*
X549Y281D01*
X621Y281D02*
X627Y281D01*
X653Y281D02*
X659Y281D01*
X1804Y281D02*
X1811Y281D01*
X1Y280D02*
X8Y280D01*
X459Y280D02*
X468Y280D01*
X540Y280D02*
X549Y280D01*
X621Y280D02*
X628Y280D01*
X653Y280D02*
X659Y280D01*
X1804Y280D02*
X1811Y280D01*
X1Y279D02*
X8Y279D01*
X459Y279D02*
X468Y279D01*
X540Y279D02*
X549Y279D01*
X621Y279D02*
X628Y279D01*
X652Y279D02*
X659Y279D01*
X1804Y279D02*
X1811Y279D01*
X1Y278D02*
X8Y278D01*
X459Y278D02*
X468Y278D01*
X540Y278D02*
X549Y278D01*
X622Y278D02*
X629Y278D01*
X651Y278D02*
X659Y278D01*
X1804Y278D02*
X1811Y278D01*
X1Y277D02*
X8Y277D01*
X459Y277D02*
X468Y277D01*
X540Y277D02*
X549Y277D01*
X622Y277D02*
X630Y277D01*
X650Y277D02*
X658Y277D01*
X1804Y277D02*
X1811Y277D01*
X1Y276D02*
X8Y276D01*
X459Y276D02*
X468Y276D01*
X540Y276D02*
X549Y276D01*
X623Y276D02*
X633Y276D01*
X648Y276D02*
X657Y276D01*
X1804Y276D02*
X1811Y276D01*
X1Y275D02*
X8Y275D01*
X459Y275D02*
X468Y275D01*
X540Y275D02*
X549Y275D01*
X624Y275D02*
X657Y275D01*
X1804Y275D02*
X1811Y275D01*
X1Y274D02*
X8Y274D01*
X459Y274D02*
X468Y274D01*
X540Y274D02*
X549Y274D01*
X624Y274D02*
X656Y274D01*
X1804Y274D02*
X1811Y274D01*
X1Y273D02*
X8Y273D01*
X459Y273D02*
X468Y273D01*
X540Y273D02*
X549Y273D01*
X625Y273D02*
X655Y273D01*
X1804Y273D02*
X1811Y273D01*
X1Y272D02*
X8Y272D01*
X459Y272D02*
X468Y272D01*
X540Y272D02*
X549Y272D01*
X626Y272D02*
X654Y272D01*
X1804Y272D02*
X1811Y272D01*
X1Y271D02*
X8Y271D01*
X459Y271D02*
X468Y271D01*
X540Y271D02*
X549Y271D01*
X628Y271D02*
X653Y271D01*
X1804Y271D02*
X1811Y271D01*
X1Y270D02*
X8Y270D01*
X459Y270D02*
X468Y270D01*
X540Y270D02*
X549Y270D01*
X629Y270D02*
X651Y270D01*
X1804Y270D02*
X1811Y270D01*
X1Y269D02*
X8Y269D01*
X459Y269D02*
X468Y269D01*
X540Y269D02*
X549Y269D01*
X633Y269D02*
X647Y269D01*
X1804Y269D02*
X1811Y269D01*
X1Y268D02*
X8Y268D01*
X459Y268D02*
X468Y268D01*
X540Y268D02*
X549Y268D01*
X1804Y268D02*
X1811Y268D01*
X1Y267D02*
X8Y267D01*
X459Y267D02*
X468Y267D01*
X540Y267D02*
X549Y267D01*
X1804Y267D02*
X1811Y267D01*
X1Y266D02*
X8Y266D01*
X459Y266D02*
X468Y266D01*
X540Y266D02*
X549Y266D01*
X1804Y266D02*
X1811Y266D01*
X1Y265D02*
X8Y265D01*
X459Y265D02*
X468Y265D01*
X540Y265D02*
X549Y265D01*
X1804Y265D02*
X1811Y265D01*
X1Y264D02*
X8Y264D01*
X459Y264D02*
X468Y264D01*
X540Y264D02*
X549Y264D01*
X1804Y264D02*
X1811Y264D01*
X1Y263D02*
X8Y263D01*
X459Y263D02*
X468Y263D01*
X540Y263D02*
X549Y263D01*
X1804Y263D02*
X1811Y263D01*
X1Y262D02*
X8Y262D01*
X459Y262D02*
X468Y262D01*
X540Y262D02*
X549Y262D01*
X1804Y262D02*
X1811Y262D01*
X1Y261D02*
X8Y261D01*
X459Y261D02*
X468Y261D01*
X540Y261D02*
X549Y261D01*
X1804Y261D02*
X1811Y261D01*
X1Y260D02*
X8Y260D01*
X459Y260D02*
X468Y260D01*
X540Y260D02*
X549Y260D01*
X1804Y260D02*
X1811Y260D01*
X1Y259D02*
X8Y259D01*
X459Y259D02*
X468Y259D01*
X540Y259D02*
X549Y259D01*
X1804Y259D02*
X1811Y259D01*
X1Y258D02*
X8Y258D01*
X459Y258D02*
X468Y258D01*
X540Y258D02*
X549Y258D01*
X1804Y258D02*
X1811Y258D01*
X1Y257D02*
X8Y257D01*
X459Y257D02*
X468Y257D01*
X540Y257D02*
X549Y257D01*
X1804Y257D02*
X1811Y257D01*
X1Y256D02*
X8Y256D01*
X459Y256D02*
X468Y256D01*
X540Y256D02*
X549Y256D01*
X1804Y256D02*
X1811Y256D01*
X1Y255D02*
X8Y255D01*
X459Y255D02*
X468Y255D01*
X540Y255D02*
X549Y255D01*
X1804Y255D02*
X1811Y255D01*
X1Y254D02*
X8Y254D01*
X459Y254D02*
X468Y254D01*
X540Y254D02*
X549Y254D01*
X1804Y254D02*
X1811Y254D01*
X1Y253D02*
X8Y253D01*
X459Y253D02*
X468Y253D01*
X540Y253D02*
X549Y253D01*
X623Y253D02*
X672Y253D01*
X1804Y253D02*
X1811Y253D01*
X1Y252D02*
X8Y252D01*
X459Y252D02*
X468Y252D01*
X540Y252D02*
X549Y252D01*
X622Y252D02*
X673Y252D01*
X1804Y252D02*
X1811Y252D01*
X1Y251D02*
X8Y251D01*
X459Y251D02*
X468Y251D01*
X540Y251D02*
X549Y251D01*
X621Y251D02*
X674Y251D01*
X1804Y251D02*
X1811Y251D01*
X1Y250D02*
X8Y250D01*
X459Y250D02*
X468Y250D01*
X540Y250D02*
X549Y250D01*
X621Y250D02*
X674Y250D01*
X1804Y250D02*
X1811Y250D01*
X1Y249D02*
X8Y249D01*
X459Y249D02*
X468Y249D01*
X540Y249D02*
X549Y249D01*
X621Y249D02*
X674Y249D01*
X1804Y249D02*
X1811Y249D01*
X1Y248D02*
X8Y248D01*
X459Y248D02*
X468Y248D01*
X540Y248D02*
X549Y248D01*
X622Y248D02*
X674Y248D01*
X1804Y248D02*
X1811Y248D01*
X1Y247D02*
X8Y247D01*
X459Y247D02*
X468Y247D01*
X540Y247D02*
X549Y247D01*
X623Y247D02*
X673Y247D01*
X1804Y247D02*
X1811Y247D01*
X1Y246D02*
X8Y246D01*
X459Y246D02*
X468Y246D01*
X540Y246D02*
X549Y246D01*
X646Y246D02*
X654Y246D01*
X1804Y246D02*
X1811Y246D01*
X1Y245D02*
X8Y245D01*
X459Y245D02*
X468Y245D01*
X540Y245D02*
X549Y245D01*
X647Y245D02*
X654Y245D01*
X1804Y245D02*
X1811Y245D01*
X1Y244D02*
X8Y244D01*
X459Y244D02*
X468Y244D01*
X540Y244D02*
X549Y244D01*
X648Y244D02*
X655Y244D01*
X1804Y244D02*
X1811Y244D01*
X1Y243D02*
X8Y243D01*
X459Y243D02*
X468Y243D01*
X540Y243D02*
X549Y243D01*
X648Y243D02*
X656Y243D01*
X1804Y243D02*
X1811Y243D01*
X1Y242D02*
X8Y242D01*
X459Y242D02*
X468Y242D01*
X540Y242D02*
X549Y242D01*
X649Y242D02*
X656Y242D01*
X1804Y242D02*
X1811Y242D01*
X1Y241D02*
X8Y241D01*
X459Y241D02*
X468Y241D01*
X540Y241D02*
X549Y241D01*
X650Y241D02*
X657Y241D01*
X1804Y241D02*
X1811Y241D01*
X1Y240D02*
X8Y240D01*
X459Y240D02*
X468Y240D01*
X540Y240D02*
X549Y240D01*
X650Y240D02*
X658Y240D01*
X1804Y240D02*
X1811Y240D01*
X1Y239D02*
X8Y239D01*
X459Y239D02*
X468Y239D01*
X540Y239D02*
X549Y239D01*
X651Y239D02*
X658Y239D01*
X1804Y239D02*
X1811Y239D01*
X1Y238D02*
X8Y238D01*
X459Y238D02*
X468Y238D01*
X540Y238D02*
X549Y238D01*
X651Y238D02*
X659Y238D01*
X1804Y238D02*
X1811Y238D01*
X1Y237D02*
X8Y237D01*
X459Y237D02*
X468Y237D01*
X540Y237D02*
X549Y237D01*
X652Y237D02*
X659Y237D01*
X1804Y237D02*
X1811Y237D01*
X1Y236D02*
X8Y236D01*
X459Y236D02*
X468Y236D01*
X540Y236D02*
X549Y236D01*
X653Y236D02*
X659Y236D01*
X1804Y236D02*
X1811Y236D01*
X1Y235D02*
X8Y235D01*
X459Y235D02*
X468Y235D01*
X540Y235D02*
X549Y235D01*
X653Y235D02*
X659Y235D01*
X1804Y235D02*
X1811Y235D01*
X1Y234D02*
X8Y234D01*
X459Y234D02*
X468Y234D01*
X540Y234D02*
X549Y234D01*
X653Y234D02*
X659Y234D01*
X1804Y234D02*
X1811Y234D01*
X1Y233D02*
X8Y233D01*
X459Y233D02*
X549Y233D01*
X653Y233D02*
X659Y233D01*
X1804Y233D02*
X1811Y233D01*
X1Y232D02*
X8Y232D01*
X459Y232D02*
X549Y232D01*
X653Y232D02*
X659Y232D01*
X1804Y232D02*
X1811Y232D01*
X1Y231D02*
X8Y231D01*
X459Y231D02*
X549Y231D01*
X653Y231D02*
X659Y231D01*
X1804Y231D02*
X1811Y231D01*
X1Y230D02*
X8Y230D01*
X459Y230D02*
X549Y230D01*
X653Y230D02*
X659Y230D01*
X1804Y230D02*
X1811Y230D01*
X1Y229D02*
X8Y229D01*
X459Y229D02*
X549Y229D01*
X653Y229D02*
X659Y229D01*
X1804Y229D02*
X1811Y229D01*
X1Y228D02*
X8Y228D01*
X464Y228D02*
X501Y228D01*
X507Y228D02*
X544Y228D01*
X653Y228D02*
X659Y228D01*
X1804Y228D02*
X1811Y228D01*
X1Y227D02*
X8Y227D01*
X464Y227D02*
X493Y227D01*
X515Y227D02*
X544Y227D01*
X651Y227D02*
X659Y227D01*
X1804Y227D02*
X1811Y227D01*
X1Y226D02*
X8Y226D01*
X464Y226D02*
X489Y226D01*
X519Y226D02*
X544Y226D01*
X631Y226D02*
X659Y226D01*
X1804Y226D02*
X1811Y226D01*
X1Y225D02*
X8Y225D01*
X464Y225D02*
X486Y225D01*
X522Y225D02*
X544Y225D01*
X622Y225D02*
X658Y225D01*
X1804Y225D02*
X1811Y225D01*
X1Y224D02*
X8Y224D01*
X464Y224D02*
X483Y224D01*
X524Y224D02*
X544Y224D01*
X621Y224D02*
X657Y224D01*
X1804Y224D02*
X1811Y224D01*
X1Y223D02*
X8Y223D01*
X621Y223D02*
X657Y223D01*
X1804Y223D02*
X1811Y223D01*
X1Y222D02*
X8Y222D01*
X621Y222D02*
X655Y222D01*
X1804Y222D02*
X1811Y222D01*
X1Y221D02*
X8Y221D01*
X621Y221D02*
X654Y221D01*
X1804Y221D02*
X1811Y221D01*
X1Y220D02*
X8Y220D01*
X622Y220D02*
X652Y220D01*
X1804Y220D02*
X1811Y220D01*
X1Y219D02*
X8Y219D01*
X624Y219D02*
X629Y219D01*
X1804Y219D02*
X1811Y219D01*
X1Y218D02*
X8Y218D01*
X1804Y218D02*
X1811Y218D01*
X1Y217D02*
X8Y217D01*
X1804Y217D02*
X1811Y217D01*
X1Y216D02*
X8Y216D01*
X1804Y216D02*
X1811Y216D01*
X1Y215D02*
X8Y215D01*
X1804Y215D02*
X1811Y215D01*
X1Y214D02*
X8Y214D01*
X1804Y214D02*
X1811Y214D01*
X1Y213D02*
X8Y213D01*
X1804Y213D02*
X1811Y213D01*
X1Y212D02*
X8Y212D01*
X1804Y212D02*
X1811Y212D01*
X1Y211D02*
X8Y211D01*
X1804Y211D02*
X1811Y211D01*
X1Y210D02*
X8Y210D01*
X1804Y210D02*
X1811Y210D01*
X1Y209D02*
X8Y209D01*
X1804Y209D02*
X1811Y209D01*
X1Y208D02*
X8Y208D01*
X1804Y208D02*
X1811Y208D01*
X1Y207D02*
X8Y207D01*
X1804Y207D02*
X1811Y207D01*
X1Y206D02*
X8Y206D01*
X1804Y206D02*
X1811Y206D01*
X1Y205D02*
X8Y205D01*
X1804Y205D02*
X1811Y205D01*
X1Y204D02*
X8Y204D01*
X1804Y204D02*
X1811Y204D01*
X1Y203D02*
X8Y203D01*
X622Y203D02*
X658Y203D01*
X1804Y203D02*
X1811Y203D01*
X1Y202D02*
X8Y202D01*
X622Y202D02*
X659Y202D01*
X1804Y202D02*
X1811Y202D01*
X1Y201D02*
X8Y201D01*
X621Y201D02*
X659Y201D01*
X1804Y201D02*
X1811Y201D01*
X1Y200D02*
X8Y200D01*
X621Y200D02*
X659Y200D01*
X1804Y200D02*
X1811Y200D01*
X1Y199D02*
X8Y199D01*
X621Y199D02*
X659Y199D01*
X1804Y199D02*
X1811Y199D01*
X1Y198D02*
X8Y198D01*
X622Y198D02*
X659Y198D01*
X1804Y198D02*
X1811Y198D01*
X1Y197D02*
X8Y197D01*
X623Y197D02*
X657Y197D01*
X1804Y197D02*
X1811Y197D01*
X1Y196D02*
X8Y196D01*
X649Y196D02*
X658Y196D01*
X1804Y196D02*
X1811Y196D01*
X1Y195D02*
X8Y195D01*
X650Y195D02*
X658Y195D01*
X1804Y195D02*
X1811Y195D01*
X1Y194D02*
X8Y194D01*
X651Y194D02*
X659Y194D01*
X1804Y194D02*
X1811Y194D01*
X1Y193D02*
X8Y193D01*
X652Y193D02*
X659Y193D01*
X1804Y193D02*
X1811Y193D01*
X1Y192D02*
X8Y192D01*
X653Y192D02*
X659Y192D01*
X1804Y192D02*
X1811Y192D01*
X1Y191D02*
X8Y191D01*
X653Y191D02*
X659Y191D01*
X1804Y191D02*
X1811Y191D01*
X1Y190D02*
X8Y190D01*
X653Y190D02*
X659Y190D01*
X1804Y190D02*
X1811Y190D01*
X1Y189D02*
X8Y189D01*
X623Y189D02*
X659Y189D01*
X1804Y189D02*
X1811Y189D01*
X1Y188D02*
X8Y188D01*
X622Y188D02*
X659Y188D01*
X1804Y188D02*
X1811Y188D01*
X1Y187D02*
X8Y187D01*
X621Y187D02*
X658Y187D01*
X1804Y187D02*
X1811Y187D01*
X1Y186D02*
X8Y186D01*
X621Y186D02*
X658Y186D01*
X1804Y186D02*
X1811Y186D01*
X1Y185D02*
X8Y185D01*
X621Y185D02*
X657Y185D01*
X1804Y185D02*
X1811Y185D01*
X1Y184D02*
X8Y184D01*
X622Y184D02*
X656Y184D01*
X1804Y184D02*
X1811Y184D01*
X1Y183D02*
X8Y183D01*
X623Y183D02*
X657Y183D01*
X1804Y183D02*
X1811Y183D01*
X1Y182D02*
X8Y182D01*
X650Y182D02*
X658Y182D01*
X1804Y182D02*
X1811Y182D01*
X1Y181D02*
X8Y181D01*
X651Y181D02*
X658Y181D01*
X1804Y181D02*
X1811Y181D01*
X1Y180D02*
X8Y180D01*
X651Y180D02*
X659Y180D01*
X1804Y180D02*
X1811Y180D01*
X1Y179D02*
X8Y179D01*
X652Y179D02*
X659Y179D01*
X1804Y179D02*
X1811Y179D01*
X1Y178D02*
X8Y178D01*
X653Y178D02*
X659Y178D01*
X1804Y178D02*
X1811Y178D01*
X1Y177D02*
X8Y177D01*
X653Y177D02*
X659Y177D01*
X1804Y177D02*
X1811Y177D01*
X1Y176D02*
X8Y176D01*
X650Y176D02*
X659Y176D01*
X1804Y176D02*
X1811Y176D01*
X1Y175D02*
X8Y175D01*
X624Y175D02*
X659Y175D01*
X1804Y175D02*
X1811Y175D01*
X1Y174D02*
X8Y174D01*
X622Y174D02*
X658Y174D01*
X1804Y174D02*
X1811Y174D01*
X1Y173D02*
X8Y173D01*
X621Y173D02*
X658Y173D01*
X1804Y173D02*
X1811Y173D01*
X1Y172D02*
X8Y172D01*
X621Y172D02*
X657Y172D01*
X1804Y172D02*
X1811Y172D01*
X1Y171D02*
X8Y171D01*
X621Y171D02*
X656Y171D01*
X1804Y171D02*
X1811Y171D01*
X1Y170D02*
X8Y170D01*
X621Y170D02*
X655Y170D01*
X1804Y170D02*
X1811Y170D01*
X1Y169D02*
X8Y169D01*
X622Y169D02*
X648Y169D01*
X1804Y169D02*
X1811Y169D01*
X1Y168D02*
X8Y168D01*
X1804Y168D02*
X1811Y168D01*
X1Y167D02*
X8Y167D01*
X1804Y167D02*
X1811Y167D01*
X1Y166D02*
X8Y166D01*
X1804Y166D02*
X1811Y166D01*
X1Y165D02*
X8Y165D01*
X1804Y165D02*
X1811Y165D01*
X1Y164D02*
X8Y164D01*
X1804Y164D02*
X1811Y164D01*
X1Y163D02*
X8Y163D01*
X1804Y163D02*
X1811Y163D01*
X1Y162D02*
X8Y162D01*
X1804Y162D02*
X1811Y162D01*
X1Y161D02*
X8Y161D01*
X1804Y161D02*
X1811Y161D01*
X1Y160D02*
X8Y160D01*
X1804Y160D02*
X1811Y160D01*
X1Y159D02*
X8Y159D01*
X1804Y159D02*
X1811Y159D01*
X1Y158D02*
X8Y158D01*
X1804Y158D02*
X1811Y158D01*
X1Y157D02*
X8Y157D01*
X1804Y157D02*
X1811Y157D01*
X1Y156D02*
X8Y156D01*
X1804Y156D02*
X1811Y156D01*
X1Y155D02*
X8Y155D01*
X1804Y155D02*
X1811Y155D01*
X1Y154D02*
X8Y154D01*
X1804Y154D02*
X1811Y154D01*
X1Y153D02*
X8Y153D01*
X1804Y153D02*
X1811Y153D01*
X1Y152D02*
X8Y152D01*
X1804Y152D02*
X1811Y152D01*
X1Y151D02*
X8Y151D01*
X1804Y151D02*
X1811Y151D01*
X1Y150D02*
X8Y150D01*
X1804Y150D02*
X1811Y150D01*
X1Y149D02*
X8Y149D01*
X1804Y149D02*
X1811Y149D01*
X1Y148D02*
X8Y148D01*
X1804Y148D02*
X1811Y148D01*
X1Y147D02*
X8Y147D01*
X1804Y147D02*
X1811Y147D01*
X1Y146D02*
X8Y146D01*
X1804Y146D02*
X1811Y146D01*
X1Y145D02*
X8Y145D01*
X1804Y145D02*
X1811Y145D01*
X1Y144D02*
X8Y144D01*
X1804Y144D02*
X1811Y144D01*
X1Y143D02*
X8Y143D01*
X1804Y143D02*
X1811Y143D01*
X1Y142D02*
X8Y142D01*
X1804Y142D02*
X1811Y142D01*
X1Y141D02*
X8Y141D01*
X1804Y141D02*
X1811Y141D01*
X1Y140D02*
X8Y140D01*
X1804Y140D02*
X1811Y140D01*
X1Y139D02*
X8Y139D01*
X1804Y139D02*
X1811Y139D01*
X1Y138D02*
X8Y138D01*
X1804Y138D02*
X1811Y138D01*
X1Y137D02*
X8Y137D01*
X1804Y137D02*
X1811Y137D01*
X1Y136D02*
X8Y136D01*
X1804Y136D02*
X1811Y136D01*
X1Y135D02*
X8Y135D01*
X1804Y135D02*
X1811Y135D01*
X1Y134D02*
X8Y134D01*
X1804Y134D02*
X1811Y134D01*
X1Y133D02*
X8Y133D01*
X1804Y133D02*
X1811Y133D01*
X1Y132D02*
X8Y132D01*
X1804Y132D02*
X1811Y132D01*
X1Y131D02*
X8Y131D01*
X1804Y131D02*
X1811Y131D01*
X1Y130D02*
X8Y130D01*
X1804Y130D02*
X1811Y130D01*
X1Y129D02*
X8Y129D01*
X1804Y129D02*
X1811Y129D01*
X1Y128D02*
X8Y128D01*
X1804Y128D02*
X1811Y128D01*
X1Y127D02*
X8Y127D01*
X1804Y127D02*
X1811Y127D01*
X1Y126D02*
X8Y126D01*
X1804Y126D02*
X1811Y126D01*
X1Y125D02*
X8Y125D01*
X1804Y125D02*
X1811Y125D01*
X1Y124D02*
X8Y124D01*
X1804Y124D02*
X1811Y124D01*
X1Y123D02*
X8Y123D01*
X1804Y123D02*
X1811Y123D01*
X1Y122D02*
X8Y122D01*
X1804Y122D02*
X1811Y122D01*
X1Y121D02*
X8Y121D01*
X1804Y121D02*
X1811Y121D01*
X1Y120D02*
X8Y120D01*
X1804Y120D02*
X1811Y120D01*
X1Y119D02*
X8Y119D01*
X1804Y119D02*
X1811Y119D01*
X1Y118D02*
X8Y118D01*
X1804Y118D02*
X1811Y118D01*
X1Y117D02*
X8Y117D01*
X1804Y117D02*
X1811Y117D01*
X1Y116D02*
X8Y116D01*
X1804Y116D02*
X1811Y116D01*
X1Y115D02*
X8Y115D01*
X1804Y115D02*
X1811Y115D01*
X1Y114D02*
X8Y114D01*
X1804Y114D02*
X1811Y114D01*
X1Y113D02*
X8Y113D01*
X1804Y113D02*
X1811Y113D01*
X1Y112D02*
X8Y112D01*
X1804Y112D02*
X1811Y112D01*
X1Y111D02*
X8Y111D01*
X1804Y111D02*
X1811Y111D01*
X1Y110D02*
X8Y110D01*
X1804Y110D02*
X1811Y110D01*
X1Y109D02*
X8Y109D01*
X1804Y109D02*
X1811Y109D01*
X1Y108D02*
X8Y108D01*
X1804Y108D02*
X1811Y108D01*
X1Y107D02*
X8Y107D01*
X1804Y107D02*
X1811Y107D01*
X1Y106D02*
X8Y106D01*
X1804Y106D02*
X1811Y106D01*
X1Y105D02*
X8Y105D01*
X1109Y105D02*
X1110Y105D01*
X1804Y105D02*
X1811Y105D01*
X1Y104D02*
X8Y104D01*
X1107Y104D02*
X1112Y104D01*
X1804Y104D02*
X1811Y104D01*
X1Y103D02*
X8Y103D01*
X1107Y103D02*
X1112Y103D01*
X1804Y103D02*
X1811Y103D01*
X1Y102D02*
X8Y102D01*
X1106Y102D02*
X1112Y102D01*
X1804Y102D02*
X1811Y102D01*
X1Y101D02*
X8Y101D01*
X1106Y101D02*
X1112Y101D01*
X1804Y101D02*
X1811Y101D01*
X1Y100D02*
X8Y100D01*
X1106Y100D02*
X1112Y100D01*
X1804Y100D02*
X1811Y100D01*
X1Y99D02*
X8Y99D01*
X1106Y99D02*
X1112Y99D01*
X1804Y99D02*
X1811Y99D01*
X1Y98D02*
X8Y98D01*
X1106Y98D02*
X1112Y98D01*
X1804Y98D02*
X1811Y98D01*
X1Y97D02*
X8Y97D01*
X1106Y97D02*
X1112Y97D01*
X1804Y97D02*
X1811Y97D01*
X1Y96D02*
X8Y96D01*
X1106Y96D02*
X1112Y96D01*
X1804Y96D02*
X1811Y96D01*
X1Y95D02*
X8Y95D01*
X1106Y95D02*
X1112Y95D01*
X1804Y95D02*
X1811Y95D01*
X1Y94D02*
X8Y94D01*
X1106Y94D02*
X1112Y94D01*
X1804Y94D02*
X1811Y94D01*
X1Y93D02*
X8Y93D01*
X1106Y93D02*
X1112Y93D01*
X1804Y93D02*
X1811Y93D01*
X1Y92D02*
X8Y92D01*
X1106Y92D02*
X1112Y92D01*
X1804Y92D02*
X1811Y92D01*
X1Y91D02*
X8Y91D01*
X1094Y91D02*
X1124Y91D01*
X1804Y91D02*
X1811Y91D01*
X1Y90D02*
X8Y90D01*
X1093Y90D02*
X1126Y90D01*
X1804Y90D02*
X1811Y90D01*
X1Y89D02*
X8Y89D01*
X1093Y89D02*
X1126Y89D01*
X1804Y89D02*
X1811Y89D01*
X1Y88D02*
X8Y88D01*
X1093Y88D02*
X1126Y88D01*
X1804Y88D02*
X1811Y88D01*
X1Y87D02*
X8Y87D01*
X1093Y87D02*
X1126Y87D01*
X1804Y87D02*
X1811Y87D01*
X1Y86D02*
X8Y86D01*
X1093Y86D02*
X1126Y86D01*
X1804Y86D02*
X1811Y86D01*
X1Y85D02*
X8Y85D01*
X1094Y85D02*
X1124Y85D01*
X1804Y85D02*
X1811Y85D01*
X1Y84D02*
X8Y84D01*
X1106Y84D02*
X1112Y84D01*
X1804Y84D02*
X1811Y84D01*
X1Y83D02*
X8Y83D01*
X1106Y83D02*
X1112Y83D01*
X1804Y83D02*
X1811Y83D01*
X1Y82D02*
X8Y82D01*
X1106Y82D02*
X1112Y82D01*
X1804Y82D02*
X1811Y82D01*
X1Y81D02*
X8Y81D01*
X1106Y81D02*
X1112Y81D01*
X1804Y81D02*
X1811Y81D01*
X1Y80D02*
X8Y80D01*
X1106Y80D02*
X1112Y80D01*
X1804Y80D02*
X1811Y80D01*
X1Y79D02*
X8Y79D01*
X1106Y79D02*
X1112Y79D01*
X1804Y79D02*
X1811Y79D01*
X1Y78D02*
X8Y78D01*
X1106Y78D02*
X1112Y78D01*
X1804Y78D02*
X1811Y78D01*
X1Y77D02*
X8Y77D01*
X1106Y77D02*
X1112Y77D01*
X1804Y77D02*
X1811Y77D01*
X1Y76D02*
X8Y76D01*
X1106Y76D02*
X1112Y76D01*
X1804Y76D02*
X1811Y76D01*
X1Y75D02*
X8Y75D01*
X1106Y75D02*
X1112Y75D01*
X1804Y75D02*
X1811Y75D01*
X1Y74D02*
X8Y74D01*
X1106Y74D02*
X1112Y74D01*
X1804Y74D02*
X1811Y74D01*
X1Y73D02*
X8Y73D01*
X1107Y73D02*
X1112Y73D01*
X1804Y73D02*
X1811Y73D01*
X1Y72D02*
X8Y72D01*
X1107Y72D02*
X1112Y72D01*
X1804Y72D02*
X1811Y72D01*
X1Y71D02*
X8Y71D01*
X1109Y71D02*
X1110Y71D01*
X1804Y71D02*
X1811Y71D01*
X1Y70D02*
X8Y70D01*
X1804Y70D02*
X1811Y70D01*
X1Y69D02*
X8Y69D01*
X1804Y69D02*
X1811Y69D01*
X1Y68D02*
X8Y68D01*
X1804Y68D02*
X1811Y68D01*
X1Y67D02*
X8Y67D01*
X1804Y67D02*
X1811Y67D01*
X1Y66D02*
X8Y66D01*
X1804Y66D02*
X1811Y66D01*
X1Y65D02*
X8Y65D01*
X1804Y65D02*
X1811Y65D01*
X1Y64D02*
X8Y64D01*
X1804Y64D02*
X1811Y64D01*
X1Y63D02*
X8Y63D01*
X1804Y63D02*
X1811Y63D01*
X1Y62D02*
X8Y62D01*
X1804Y62D02*
X1811Y62D01*
X1Y61D02*
X8Y61D01*
X1804Y61D02*
X1811Y61D01*
X1Y60D02*
X8Y60D01*
X1804Y60D02*
X1811Y60D01*
X1Y59D02*
X8Y59D01*
X1804Y59D02*
X1811Y59D01*
X1Y58D02*
X8Y58D01*
X1804Y58D02*
X1811Y58D01*
X1Y57D02*
X8Y57D01*
X1804Y57D02*
X1811Y57D01*
X1Y56D02*
X8Y56D01*
X1804Y56D02*
X1811Y56D01*
X1Y55D02*
X8Y55D01*
X1804Y55D02*
X1811Y55D01*
X1Y54D02*
X8Y54D01*
X1804Y54D02*
X1811Y54D01*
X1Y53D02*
X8Y53D01*
X1804Y53D02*
X1811Y53D01*
X1Y52D02*
X8Y52D01*
X1804Y52D02*
X1811Y52D01*
X1Y51D02*
X8Y51D01*
X1804Y51D02*
X1811Y51D01*
X1Y50D02*
X8Y50D01*
X1804Y50D02*
X1811Y50D01*
X1Y49D02*
X8Y49D01*
X1804Y49D02*
X1811Y49D01*
X1Y48D02*
X8Y48D01*
X1804Y48D02*
X1811Y48D01*
X1Y47D02*
X8Y47D01*
X1804Y47D02*
X1811Y47D01*
X1Y46D02*
X8Y46D01*
X1804Y46D02*
X1811Y46D01*
X1Y45D02*
X8Y45D01*
X1804Y45D02*
X1811Y45D01*
X1Y44D02*
X8Y44D01*
X1804Y44D02*
X1811Y44D01*
X1Y43D02*
X8Y43D01*
X1804Y43D02*
X1811Y43D01*
X1Y42D02*
X8Y42D01*
X1804Y42D02*
X1811Y42D01*
X1Y41D02*
X8Y41D01*
X1804Y41D02*
X1811Y41D01*
X1Y40D02*
X8Y40D01*
X1804Y40D02*
X1811Y40D01*
X1Y39D02*
X8Y39D01*
X1804Y39D02*
X1811Y39D01*
X1Y38D02*
X8Y38D01*
X1804Y38D02*
X1811Y38D01*
X1Y37D02*
X8Y37D01*
X1804Y37D02*
X1811Y37D01*
X1Y36D02*
X8Y36D01*
X1804Y36D02*
X1811Y36D01*
X1Y35D02*
X8Y35D01*
X1804Y35D02*
X1811Y35D01*
X1Y34D02*
X8Y34D01*
X1804Y34D02*
X1811Y34D01*
X1Y33D02*
X8Y33D01*
X1804Y33D02*
X1811Y33D01*
X1Y32D02*
X8Y32D01*
X1804Y32D02*
X1811Y32D01*
X1Y31D02*
X8Y31D01*
X1804Y31D02*
X1811Y31D01*
X1Y30D02*
X8Y30D01*
X1804Y30D02*
X1811Y30D01*
X1Y29D02*
X8Y29D01*
X1804Y29D02*
X1811Y29D01*
X1Y28D02*
X8Y28D01*
X1804Y28D02*
X1811Y28D01*
X1Y27D02*
X8Y27D01*
X1804Y27D02*
X1811Y27D01*
X1Y26D02*
X8Y26D01*
X1804Y26D02*
X1811Y26D01*
X1Y25D02*
X8Y25D01*
X1804Y25D02*
X1811Y25D01*
X1Y24D02*
X8Y24D01*
X1804Y24D02*
X1811Y24D01*
X1Y23D02*
X8Y23D01*
X1804Y23D02*
X1811Y23D01*
X1Y22D02*
X8Y22D01*
X1804Y22D02*
X1811Y22D01*
X1Y21D02*
X8Y21D01*
X1804Y21D02*
X1811Y21D01*
X1Y20D02*
X8Y20D01*
X1804Y20D02*
X1811Y20D01*
X1Y19D02*
X8Y19D01*
X1804Y19D02*
X1811Y19D01*
X1Y18D02*
X8Y18D01*
X1804Y18D02*
X1811Y18D01*
X1Y17D02*
X8Y17D01*
X1804Y17D02*
X1811Y17D01*
X1Y16D02*
X8Y16D01*
X1804Y16D02*
X1811Y16D01*
X1Y15D02*
X8Y15D01*
X1804Y15D02*
X1811Y15D01*
X1Y14D02*
X8Y14D01*
X1804Y14D02*
X1811Y14D01*
X1Y13D02*
X8Y13D01*
X1804Y13D02*
X1811Y13D01*
X1Y12D02*
X8Y12D01*
X1804Y12D02*
X1811Y12D01*
X1Y11D02*
X8Y11D01*
X1804Y11D02*
X1811Y11D01*
X1Y10D02*
X8Y10D01*
X1804Y10D02*
X1811Y10D01*
X1Y9D02*
X8Y9D01*
X1804Y9D02*
X1811Y9D01*
X1Y8D02*
X1811Y8D01*
X1Y7D02*
X1811Y7D01*
X1Y6D02*
X1811Y6D01*
X1Y5D02*
X1811Y5D01*
X1Y4D02*
X1811Y4D01*
X1Y3D02*
X1811Y3D01*
X1Y2D02*
X1811Y2D01*
X1Y1D02*
X1811Y1D01*
D02*
G04 End of Silk1*
M02*