; NON-PLATED HOLES START AT T1
; THROUGH (PLATED) HOLES START AT T100
M48
INCH
T1C0.125984
T100C0.038000
T101C0.035000
T102C0.052000
T103C0.040000
%
T1
X002035Y013766
X016035Y001766
X002035Y001766
X016035Y013766
T100
X008035Y010766
X013035Y005766
X014035Y009766
X014035Y005766
X005035Y009766
X008035Y005766
X017035Y011766
X013035Y009766
X017035Y007766
X014035Y008766
X017035Y009766
X017035Y005766
X005035Y010766
X008035Y009766
X002035Y009766
X008035Y007766
X014035Y007766
X008035Y008766
X014035Y011766
X013035Y006766
X008035Y011766
X014035Y006766
X002035Y008766
X017035Y006766
X005035Y008766
X013035Y008766
X017035Y010766
X013035Y007766
X008035Y006766
X002035Y010766
X013035Y010766
X014035Y010766
X013035Y011766
T101
X001035Y003994
X003594Y003994
X003594Y005766
X001035Y005766
T102
X005035Y001766
X005035Y004766
T103
X009035Y001766
X011035Y001766
T00
M30
